G04 #@! TF.GenerationSoftware,KiCad,Pcbnew,(6.0.1-0)*
G04 #@! TF.CreationDate,2022-07-10T21:45:08+01:00*
G04 #@! TF.ProjectId,Spinny,5370696e-6e79-42e6-9b69-6361645f7063,rev?*
G04 #@! TF.SameCoordinates,Original*
G04 #@! TF.FileFunction,Copper,L2,Bot*
G04 #@! TF.FilePolarity,Positive*
%FSLAX46Y46*%
G04 Gerber Fmt 4.6, Leading zero omitted, Abs format (unit mm)*
G04 Created by KiCad (PCBNEW (6.0.1-0)) date 2022-07-10 21:45:08*
%MOMM*%
%LPD*%
G01*
G04 APERTURE LIST*
G04 #@! TA.AperFunction,ComponentPad*
%ADD10R,1.508000X1.508000*%
G04 #@! TD*
G04 #@! TA.AperFunction,ComponentPad*
%ADD11C,1.508000*%
G04 #@! TD*
G04 #@! TA.AperFunction,ComponentPad*
%ADD12R,1.650000X1.650000*%
G04 #@! TD*
G04 #@! TA.AperFunction,ComponentPad*
%ADD13C,1.650000*%
G04 #@! TD*
G04 #@! TA.AperFunction,ComponentPad*
%ADD14O,6.000000X3.000000*%
G04 #@! TD*
G04 #@! TA.AperFunction,ComponentPad*
%ADD15O,1.000000X2.100000*%
G04 #@! TD*
G04 #@! TA.AperFunction,ComponentPad*
%ADD16O,1.000000X1.600000*%
G04 #@! TD*
G04 #@! TA.AperFunction,ComponentPad*
%ADD17R,1.700000X1.700000*%
G04 #@! TD*
G04 #@! TA.AperFunction,ComponentPad*
%ADD18O,1.700000X1.700000*%
G04 #@! TD*
G04 #@! TA.AperFunction,ViaPad*
%ADD19C,0.700000*%
G04 #@! TD*
G04 #@! TA.AperFunction,Conductor*
%ADD20C,0.500000*%
G04 #@! TD*
G04 #@! TA.AperFunction,Conductor*
%ADD21C,0.300000*%
G04 #@! TD*
G04 APERTURE END LIST*
D10*
X135250000Y-102250000D03*
D11*
X135250000Y-97750000D03*
X128750000Y-102250000D03*
X128750000Y-97750000D03*
X135250000Y-115750000D03*
D10*
X135250000Y-120250000D03*
D11*
X128750000Y-120250000D03*
X128750000Y-115750000D03*
D12*
X143000000Y-102500000D03*
D13*
X143000000Y-97500000D03*
X157500000Y-102500000D03*
X157500000Y-97500000D03*
X157500000Y-100000000D03*
D14*
X150000000Y-105700000D03*
X150000000Y-94300000D03*
D11*
X135250000Y-79750000D03*
D10*
X135250000Y-84250000D03*
D11*
X128750000Y-79750000D03*
X128750000Y-84250000D03*
D15*
X154320000Y-76130000D03*
X145680000Y-76130000D03*
D16*
X145680000Y-71950000D03*
X154320000Y-71950000D03*
D17*
X132600000Y-73990000D03*
D18*
X135140000Y-73990000D03*
X137680000Y-73990000D03*
X140220000Y-73990000D03*
D10*
X153250000Y-120250000D03*
D11*
X153250000Y-115750000D03*
X146750000Y-115750000D03*
X146750000Y-120250000D03*
D19*
X148400000Y-78550000D03*
X152450000Y-78550000D03*
X172950000Y-84350000D03*
X166130000Y-89400000D03*
X166910560Y-85481304D03*
X172950000Y-90200000D03*
X150980628Y-79919872D03*
X165750000Y-75850000D03*
X168300000Y-81500000D03*
X166999500Y-94950000D03*
X171700000Y-92300000D03*
X146250000Y-83400000D03*
X145500000Y-81650000D03*
X172400000Y-72800000D03*
X144200000Y-80850000D03*
X158000000Y-75850000D03*
X145500000Y-82450000D03*
X161100000Y-88700000D03*
X162031166Y-83566561D03*
X154900000Y-89000000D03*
X154900000Y-87080000D03*
X163150000Y-77600000D03*
X159900000Y-79650000D03*
D20*
X152450000Y-78550000D02*
X148400000Y-78550000D01*
X154900000Y-87080000D02*
X154900000Y-89000000D01*
D21*
X159900000Y-77850000D02*
X160150000Y-77600000D01*
X160150000Y-77600000D02*
X163150000Y-77600000D01*
X159900000Y-79650000D02*
X159900000Y-77850000D01*
G04 #@! TA.AperFunction,Conductor*
G36*
X145243778Y-70528002D02*
G01*
X145290271Y-70581658D01*
X145300375Y-70651932D01*
X145270881Y-70716512D01*
X145234032Y-70745662D01*
X145130846Y-70799606D01*
X145120585Y-70806321D01*
X144976127Y-70922468D01*
X144967368Y-70931046D01*
X144848222Y-71073039D01*
X144841292Y-71083159D01*
X144751998Y-71245585D01*
X144747166Y-71256858D01*
X144691120Y-71433538D01*
X144688570Y-71445532D01*
X144672393Y-71589761D01*
X144672000Y-71596785D01*
X144672000Y-71677885D01*
X144676475Y-71693124D01*
X144677865Y-71694329D01*
X144685548Y-71696000D01*
X146669885Y-71696000D01*
X146685124Y-71691525D01*
X146686329Y-71690135D01*
X146688000Y-71682452D01*
X146688000Y-71603343D01*
X146687699Y-71597195D01*
X146674188Y-71459397D01*
X146671805Y-71447362D01*
X146618233Y-71269924D01*
X146613559Y-71258584D01*
X146526540Y-71094923D01*
X146519751Y-71084706D01*
X146402603Y-70941067D01*
X146393959Y-70932363D01*
X146251144Y-70814216D01*
X146240973Y-70807356D01*
X146125345Y-70744836D01*
X146074936Y-70694841D01*
X146059559Y-70625530D01*
X146084095Y-70558908D01*
X146140755Y-70516127D01*
X146185274Y-70508000D01*
X153815657Y-70508000D01*
X153883778Y-70528002D01*
X153930271Y-70581658D01*
X153940375Y-70651932D01*
X153910881Y-70716512D01*
X153874032Y-70745662D01*
X153770846Y-70799606D01*
X153760585Y-70806321D01*
X153616127Y-70922468D01*
X153607368Y-70931046D01*
X153488222Y-71073039D01*
X153481292Y-71083159D01*
X153391998Y-71245585D01*
X153387166Y-71256858D01*
X153331120Y-71433538D01*
X153328570Y-71445532D01*
X153312393Y-71589761D01*
X153312000Y-71596785D01*
X153312000Y-71677885D01*
X153316475Y-71693124D01*
X153317865Y-71694329D01*
X153325548Y-71696000D01*
X155309885Y-71696000D01*
X155325124Y-71691525D01*
X155326329Y-71690135D01*
X155328000Y-71682452D01*
X155328000Y-71603343D01*
X155327699Y-71597195D01*
X155314188Y-71459397D01*
X155311805Y-71447362D01*
X155258233Y-71269924D01*
X155253559Y-71258584D01*
X155166540Y-71094923D01*
X155159751Y-71084706D01*
X155042603Y-70941067D01*
X155033959Y-70932363D01*
X154891144Y-70814216D01*
X154880973Y-70807356D01*
X154765345Y-70744836D01*
X154714936Y-70694841D01*
X154699559Y-70625530D01*
X154724095Y-70558908D01*
X154780755Y-70516127D01*
X154825274Y-70508000D01*
X178950673Y-70508000D01*
X178970057Y-70509500D01*
X178984858Y-70511805D01*
X178984862Y-70511805D01*
X178993731Y-70513186D01*
X179002633Y-70512022D01*
X179002637Y-70512022D01*
X179002733Y-70512009D01*
X179033170Y-70511738D01*
X179095375Y-70518746D01*
X179122882Y-70525024D01*
X179200071Y-70552034D01*
X179225491Y-70564276D01*
X179294738Y-70607787D01*
X179316797Y-70625379D01*
X179374621Y-70683203D01*
X179392213Y-70705262D01*
X179435724Y-70774509D01*
X179447966Y-70799930D01*
X179474975Y-70877117D01*
X179481254Y-70904624D01*
X179487522Y-70960251D01*
X179488305Y-70975897D01*
X179488196Y-70984855D01*
X179486814Y-70993729D01*
X179488454Y-71006269D01*
X179490936Y-71025250D01*
X179492000Y-71041588D01*
X179492000Y-128950673D01*
X179490500Y-128970057D01*
X179488195Y-128984858D01*
X179488195Y-128984862D01*
X179486814Y-128993731D01*
X179487978Y-129002633D01*
X179487978Y-129002637D01*
X179487991Y-129002733D01*
X179488262Y-129033170D01*
X179481254Y-129095375D01*
X179474975Y-129122885D01*
X179447966Y-129200071D01*
X179435724Y-129225491D01*
X179392213Y-129294738D01*
X179374621Y-129316797D01*
X179316797Y-129374621D01*
X179294738Y-129392213D01*
X179225491Y-129435724D01*
X179200070Y-129447966D01*
X179122883Y-129474975D01*
X179095376Y-129481254D01*
X179071428Y-129483952D01*
X179039744Y-129487522D01*
X179024103Y-129488305D01*
X179015145Y-129488196D01*
X179006271Y-129486814D01*
X178974750Y-129490936D01*
X178958412Y-129492000D01*
X121049327Y-129492000D01*
X121029943Y-129490500D01*
X121015142Y-129488195D01*
X121015138Y-129488195D01*
X121006269Y-129486814D01*
X120997367Y-129487978D01*
X120997363Y-129487978D01*
X120997267Y-129487991D01*
X120966830Y-129488262D01*
X120904625Y-129481254D01*
X120877118Y-129474976D01*
X120799928Y-129447966D01*
X120774509Y-129435724D01*
X120705262Y-129392213D01*
X120683203Y-129374621D01*
X120625379Y-129316797D01*
X120607787Y-129294738D01*
X120564276Y-129225491D01*
X120552034Y-129200070D01*
X120525025Y-129122883D01*
X120518746Y-129095376D01*
X120512478Y-129039749D01*
X120511695Y-129024103D01*
X120511804Y-129015145D01*
X120513186Y-129006271D01*
X120509064Y-128974749D01*
X120508000Y-128958412D01*
X120508000Y-123132703D01*
X121890743Y-123132703D01*
X121928268Y-123417734D01*
X122004129Y-123695036D01*
X122116923Y-123959476D01*
X122264561Y-124206161D01*
X122444313Y-124430528D01*
X122652851Y-124628423D01*
X122886317Y-124796186D01*
X122890112Y-124798195D01*
X122890113Y-124798196D01*
X122911869Y-124809715D01*
X123140392Y-124930712D01*
X123410373Y-125029511D01*
X123691264Y-125090755D01*
X123719841Y-125093004D01*
X123914282Y-125108307D01*
X123914291Y-125108307D01*
X123916739Y-125108500D01*
X124072271Y-125108500D01*
X124074407Y-125108354D01*
X124074418Y-125108354D01*
X124282548Y-125094165D01*
X124282554Y-125094164D01*
X124286825Y-125093873D01*
X124291020Y-125093004D01*
X124291022Y-125093004D01*
X124427583Y-125064724D01*
X124568342Y-125035574D01*
X124839343Y-124939607D01*
X125094812Y-124807750D01*
X125098313Y-124805289D01*
X125098317Y-124805287D01*
X125212418Y-124725095D01*
X125330023Y-124642441D01*
X125540622Y-124446740D01*
X125722713Y-124224268D01*
X125872927Y-123979142D01*
X125988483Y-123715898D01*
X126067244Y-123439406D01*
X126107751Y-123154784D01*
X126107845Y-123136951D01*
X126107867Y-123132703D01*
X173890743Y-123132703D01*
X173928268Y-123417734D01*
X174004129Y-123695036D01*
X174116923Y-123959476D01*
X174264561Y-124206161D01*
X174444313Y-124430528D01*
X174652851Y-124628423D01*
X174886317Y-124796186D01*
X174890112Y-124798195D01*
X174890113Y-124798196D01*
X174911869Y-124809715D01*
X175140392Y-124930712D01*
X175410373Y-125029511D01*
X175691264Y-125090755D01*
X175719841Y-125093004D01*
X175914282Y-125108307D01*
X175914291Y-125108307D01*
X175916739Y-125108500D01*
X176072271Y-125108500D01*
X176074407Y-125108354D01*
X176074418Y-125108354D01*
X176282548Y-125094165D01*
X176282554Y-125094164D01*
X176286825Y-125093873D01*
X176291020Y-125093004D01*
X176291022Y-125093004D01*
X176427583Y-125064724D01*
X176568342Y-125035574D01*
X176839343Y-124939607D01*
X177094812Y-124807750D01*
X177098313Y-124805289D01*
X177098317Y-124805287D01*
X177212418Y-124725095D01*
X177330023Y-124642441D01*
X177540622Y-124446740D01*
X177722713Y-124224268D01*
X177872927Y-123979142D01*
X177988483Y-123715898D01*
X178067244Y-123439406D01*
X178107751Y-123154784D01*
X178107845Y-123136951D01*
X178109235Y-122871583D01*
X178109235Y-122871576D01*
X178109257Y-122867297D01*
X178071732Y-122582266D01*
X177995871Y-122304964D01*
X177883077Y-122040524D01*
X177735439Y-121793839D01*
X177555687Y-121569472D01*
X177347149Y-121371577D01*
X177113683Y-121203814D01*
X177091843Y-121192250D01*
X176958625Y-121121715D01*
X176859608Y-121069288D01*
X176589627Y-120970489D01*
X176308736Y-120909245D01*
X176277685Y-120906801D01*
X176085718Y-120891693D01*
X176085709Y-120891693D01*
X176083261Y-120891500D01*
X175927729Y-120891500D01*
X175925593Y-120891646D01*
X175925582Y-120891646D01*
X175717452Y-120905835D01*
X175717446Y-120905836D01*
X175713175Y-120906127D01*
X175708980Y-120906996D01*
X175708978Y-120906996D01*
X175601841Y-120929183D01*
X175431658Y-120964426D01*
X175160657Y-121060393D01*
X174905188Y-121192250D01*
X174901687Y-121194711D01*
X174901683Y-121194713D01*
X174891594Y-121201804D01*
X174669977Y-121357559D01*
X174654892Y-121371577D01*
X174518787Y-121498054D01*
X174459378Y-121553260D01*
X174277287Y-121775732D01*
X174127073Y-122020858D01*
X174011517Y-122284102D01*
X173932756Y-122560594D01*
X173892249Y-122845216D01*
X173892227Y-122849505D01*
X173892226Y-122849512D01*
X173890765Y-123128417D01*
X173890743Y-123132703D01*
X126107867Y-123132703D01*
X126109235Y-122871583D01*
X126109235Y-122871576D01*
X126109257Y-122867297D01*
X126071732Y-122582266D01*
X125995871Y-122304964D01*
X125883077Y-122040524D01*
X125735439Y-121793839D01*
X125555687Y-121569472D01*
X125347149Y-121371577D01*
X125251762Y-121303034D01*
X128061521Y-121303034D01*
X128070817Y-121315049D01*
X128112081Y-121343942D01*
X128121576Y-121349425D01*
X128311740Y-121438099D01*
X128322032Y-121441845D01*
X128524704Y-121496151D01*
X128535499Y-121498054D01*
X128744525Y-121516342D01*
X128755475Y-121516342D01*
X128964501Y-121498054D01*
X128975296Y-121496151D01*
X129177968Y-121441845D01*
X129188260Y-121438099D01*
X129378424Y-121349425D01*
X129387919Y-121343942D01*
X129430021Y-121314462D01*
X129438396Y-121303985D01*
X129431328Y-121290538D01*
X129192924Y-121052134D01*
X133987500Y-121052134D01*
X133994255Y-121114316D01*
X134045385Y-121250705D01*
X134132739Y-121367261D01*
X134249295Y-121454615D01*
X134385684Y-121505745D01*
X134447866Y-121512500D01*
X136052134Y-121512500D01*
X136114316Y-121505745D01*
X136250705Y-121454615D01*
X136367261Y-121367261D01*
X136415397Y-121303034D01*
X146061521Y-121303034D01*
X146070817Y-121315049D01*
X146112081Y-121343942D01*
X146121576Y-121349425D01*
X146311740Y-121438099D01*
X146322032Y-121441845D01*
X146524704Y-121496151D01*
X146535499Y-121498054D01*
X146744525Y-121516342D01*
X146755475Y-121516342D01*
X146964501Y-121498054D01*
X146975296Y-121496151D01*
X147177968Y-121441845D01*
X147188260Y-121438099D01*
X147378424Y-121349425D01*
X147387919Y-121343942D01*
X147430021Y-121314462D01*
X147438396Y-121303985D01*
X147431328Y-121290538D01*
X147192924Y-121052134D01*
X151987500Y-121052134D01*
X151994255Y-121114316D01*
X152045385Y-121250705D01*
X152132739Y-121367261D01*
X152249295Y-121454615D01*
X152385684Y-121505745D01*
X152447866Y-121512500D01*
X154052134Y-121512500D01*
X154114316Y-121505745D01*
X154250705Y-121454615D01*
X154367261Y-121367261D01*
X154454615Y-121250705D01*
X154505745Y-121114316D01*
X154512500Y-121052134D01*
X154512500Y-119447866D01*
X154505745Y-119385684D01*
X154454615Y-119249295D01*
X154367261Y-119132739D01*
X154250705Y-119045385D01*
X154114316Y-118994255D01*
X154052134Y-118987500D01*
X152447866Y-118987500D01*
X152385684Y-118994255D01*
X152249295Y-119045385D01*
X152132739Y-119132739D01*
X152045385Y-119249295D01*
X151994255Y-119385684D01*
X151987500Y-119447866D01*
X151987500Y-121052134D01*
X147192924Y-121052134D01*
X146762812Y-120622022D01*
X146748868Y-120614408D01*
X146747035Y-120614539D01*
X146740420Y-120618790D01*
X146067951Y-121291259D01*
X146061521Y-121303034D01*
X136415397Y-121303034D01*
X136454615Y-121250705D01*
X136505745Y-121114316D01*
X136512500Y-121052134D01*
X136512500Y-120255475D01*
X145483658Y-120255475D01*
X145501946Y-120464501D01*
X145503849Y-120475296D01*
X145558155Y-120677968D01*
X145561901Y-120688260D01*
X145650577Y-120878425D01*
X145656055Y-120887915D01*
X145685539Y-120930022D01*
X145696015Y-120938396D01*
X145709463Y-120931327D01*
X146377978Y-120262812D01*
X146384356Y-120251132D01*
X147114408Y-120251132D01*
X147114539Y-120252965D01*
X147118790Y-120259580D01*
X147791259Y-120932049D01*
X147803033Y-120938479D01*
X147815049Y-120929183D01*
X147843945Y-120887915D01*
X147849423Y-120878425D01*
X147938099Y-120688260D01*
X147941845Y-120677968D01*
X147996151Y-120475296D01*
X147998054Y-120464501D01*
X148016342Y-120255475D01*
X148016342Y-120244525D01*
X147998054Y-120035499D01*
X147996151Y-120024704D01*
X147941845Y-119822032D01*
X147938099Y-119811740D01*
X147849423Y-119621575D01*
X147843945Y-119612085D01*
X147814461Y-119569978D01*
X147803985Y-119561604D01*
X147790537Y-119568673D01*
X147122022Y-120237188D01*
X147114408Y-120251132D01*
X146384356Y-120251132D01*
X146385592Y-120248868D01*
X146385461Y-120247035D01*
X146381210Y-120240420D01*
X145708741Y-119567951D01*
X145696967Y-119561521D01*
X145684951Y-119570817D01*
X145656055Y-119612085D01*
X145650577Y-119621575D01*
X145561901Y-119811740D01*
X145558155Y-119822032D01*
X145503849Y-120024704D01*
X145501946Y-120035499D01*
X145483658Y-120244525D01*
X145483658Y-120255475D01*
X136512500Y-120255475D01*
X136512500Y-119447866D01*
X136505745Y-119385684D01*
X136454615Y-119249295D01*
X136414684Y-119196015D01*
X146061604Y-119196015D01*
X146068673Y-119209463D01*
X146737188Y-119877978D01*
X146751132Y-119885592D01*
X146752965Y-119885461D01*
X146759580Y-119881210D01*
X147432049Y-119208741D01*
X147438479Y-119196966D01*
X147429183Y-119184951D01*
X147387919Y-119156058D01*
X147378424Y-119150575D01*
X147188260Y-119061901D01*
X147177968Y-119058155D01*
X146975296Y-119003849D01*
X146964501Y-119001946D01*
X146755475Y-118983658D01*
X146744525Y-118983658D01*
X146535499Y-119001946D01*
X146524704Y-119003849D01*
X146322032Y-119058155D01*
X146311740Y-119061901D01*
X146121575Y-119150577D01*
X146112085Y-119156055D01*
X146069978Y-119185539D01*
X146061604Y-119196015D01*
X136414684Y-119196015D01*
X136367261Y-119132739D01*
X136250705Y-119045385D01*
X136114316Y-118994255D01*
X136052134Y-118987500D01*
X134447866Y-118987500D01*
X134385684Y-118994255D01*
X134249295Y-119045385D01*
X134132739Y-119132739D01*
X134045385Y-119249295D01*
X133994255Y-119385684D01*
X133987500Y-119447866D01*
X133987500Y-121052134D01*
X129192924Y-121052134D01*
X128762812Y-120622022D01*
X128748868Y-120614408D01*
X128747035Y-120614539D01*
X128740420Y-120618790D01*
X128067951Y-121291259D01*
X128061521Y-121303034D01*
X125251762Y-121303034D01*
X125113683Y-121203814D01*
X125091843Y-121192250D01*
X124958625Y-121121715D01*
X124859608Y-121069288D01*
X124589627Y-120970489D01*
X124308736Y-120909245D01*
X124277685Y-120906801D01*
X124085718Y-120891693D01*
X124085709Y-120891693D01*
X124083261Y-120891500D01*
X123927729Y-120891500D01*
X123925593Y-120891646D01*
X123925582Y-120891646D01*
X123717452Y-120905835D01*
X123717446Y-120905836D01*
X123713175Y-120906127D01*
X123708980Y-120906996D01*
X123708978Y-120906996D01*
X123601841Y-120929183D01*
X123431658Y-120964426D01*
X123160657Y-121060393D01*
X122905188Y-121192250D01*
X122901687Y-121194711D01*
X122901683Y-121194713D01*
X122891594Y-121201804D01*
X122669977Y-121357559D01*
X122654892Y-121371577D01*
X122518787Y-121498054D01*
X122459378Y-121553260D01*
X122277287Y-121775732D01*
X122127073Y-122020858D01*
X122011517Y-122284102D01*
X121932756Y-122560594D01*
X121892249Y-122845216D01*
X121892227Y-122849505D01*
X121892226Y-122849512D01*
X121890765Y-123128417D01*
X121890743Y-123132703D01*
X120508000Y-123132703D01*
X120508000Y-120255475D01*
X127483658Y-120255475D01*
X127501946Y-120464501D01*
X127503849Y-120475296D01*
X127558155Y-120677968D01*
X127561901Y-120688260D01*
X127650577Y-120878425D01*
X127656055Y-120887915D01*
X127685539Y-120930022D01*
X127696015Y-120938396D01*
X127709463Y-120931327D01*
X128377978Y-120262812D01*
X128384356Y-120251132D01*
X129114408Y-120251132D01*
X129114539Y-120252965D01*
X129118790Y-120259580D01*
X129791259Y-120932049D01*
X129803033Y-120938479D01*
X129815049Y-120929183D01*
X129843945Y-120887915D01*
X129849423Y-120878425D01*
X129938099Y-120688260D01*
X129941845Y-120677968D01*
X129996151Y-120475296D01*
X129998054Y-120464501D01*
X130016342Y-120255475D01*
X130016342Y-120244525D01*
X129998054Y-120035499D01*
X129996151Y-120024704D01*
X129941845Y-119822032D01*
X129938099Y-119811740D01*
X129849423Y-119621575D01*
X129843945Y-119612085D01*
X129814461Y-119569978D01*
X129803985Y-119561604D01*
X129790537Y-119568673D01*
X129122022Y-120237188D01*
X129114408Y-120251132D01*
X128384356Y-120251132D01*
X128385592Y-120248868D01*
X128385461Y-120247035D01*
X128381210Y-120240420D01*
X127708741Y-119567951D01*
X127696967Y-119561521D01*
X127684951Y-119570817D01*
X127656055Y-119612085D01*
X127650577Y-119621575D01*
X127561901Y-119811740D01*
X127558155Y-119822032D01*
X127503849Y-120024704D01*
X127501946Y-120035499D01*
X127483658Y-120244525D01*
X127483658Y-120255475D01*
X120508000Y-120255475D01*
X120508000Y-119196015D01*
X128061604Y-119196015D01*
X128068673Y-119209463D01*
X128737188Y-119877978D01*
X128751132Y-119885592D01*
X128752965Y-119885461D01*
X128759580Y-119881210D01*
X129432049Y-119208741D01*
X129438479Y-119196966D01*
X129429183Y-119184951D01*
X129387919Y-119156058D01*
X129378424Y-119150575D01*
X129188260Y-119061901D01*
X129177968Y-119058155D01*
X128975296Y-119003849D01*
X128964501Y-119001946D01*
X128755475Y-118983658D01*
X128744525Y-118983658D01*
X128535499Y-119001946D01*
X128524704Y-119003849D01*
X128322032Y-119058155D01*
X128311740Y-119061901D01*
X128121575Y-119150577D01*
X128112085Y-119156055D01*
X128069978Y-119185539D01*
X128061604Y-119196015D01*
X120508000Y-119196015D01*
X120508000Y-116803034D01*
X128061521Y-116803034D01*
X128070817Y-116815049D01*
X128112081Y-116843942D01*
X128121576Y-116849425D01*
X128311740Y-116938099D01*
X128322032Y-116941845D01*
X128524704Y-116996151D01*
X128535499Y-116998054D01*
X128744525Y-117016342D01*
X128755475Y-117016342D01*
X128964501Y-116998054D01*
X128975296Y-116996151D01*
X129177968Y-116941845D01*
X129188260Y-116938099D01*
X129378424Y-116849425D01*
X129387919Y-116843942D01*
X129430021Y-116814462D01*
X129438396Y-116803985D01*
X129431328Y-116790538D01*
X128762812Y-116122022D01*
X128748868Y-116114408D01*
X128747035Y-116114539D01*
X128740420Y-116118790D01*
X128067951Y-116791259D01*
X128061521Y-116803034D01*
X120508000Y-116803034D01*
X120508000Y-115755475D01*
X127483658Y-115755475D01*
X127501946Y-115964501D01*
X127503849Y-115975296D01*
X127558155Y-116177968D01*
X127561901Y-116188260D01*
X127650577Y-116378425D01*
X127656055Y-116387915D01*
X127685539Y-116430022D01*
X127696015Y-116438396D01*
X127709463Y-116431327D01*
X128377978Y-115762812D01*
X128384356Y-115751132D01*
X129114408Y-115751132D01*
X129114539Y-115752965D01*
X129118790Y-115759580D01*
X129791259Y-116432049D01*
X129803033Y-116438479D01*
X129815049Y-116429183D01*
X129843945Y-116387915D01*
X129849423Y-116378425D01*
X129938099Y-116188260D01*
X129941845Y-116177968D01*
X129996151Y-115975296D01*
X129998054Y-115964501D01*
X130016342Y-115755475D01*
X130016342Y-115750000D01*
X133982677Y-115750000D01*
X134001930Y-115970068D01*
X134059106Y-116183450D01*
X134152466Y-116383661D01*
X134279174Y-116564620D01*
X134435380Y-116720826D01*
X134439888Y-116723983D01*
X134439891Y-116723985D01*
X134611208Y-116843942D01*
X134616338Y-116847534D01*
X134621320Y-116849857D01*
X134621325Y-116849860D01*
X134810556Y-116938099D01*
X134816550Y-116940894D01*
X134821858Y-116942316D01*
X134821860Y-116942317D01*
X134887252Y-116959839D01*
X135029932Y-116998070D01*
X135250000Y-117017323D01*
X135470068Y-116998070D01*
X135612748Y-116959839D01*
X135678140Y-116942317D01*
X135678142Y-116942316D01*
X135683450Y-116940894D01*
X135689444Y-116938099D01*
X135878675Y-116849860D01*
X135878680Y-116849857D01*
X135883662Y-116847534D01*
X135888792Y-116843942D01*
X135947215Y-116803034D01*
X146061521Y-116803034D01*
X146070817Y-116815049D01*
X146112081Y-116843942D01*
X146121576Y-116849425D01*
X146311740Y-116938099D01*
X146322032Y-116941845D01*
X146524704Y-116996151D01*
X146535499Y-116998054D01*
X146744525Y-117016342D01*
X146755475Y-117016342D01*
X146964501Y-116998054D01*
X146975296Y-116996151D01*
X147177968Y-116941845D01*
X147188260Y-116938099D01*
X147378424Y-116849425D01*
X147387919Y-116843942D01*
X147430021Y-116814462D01*
X147438396Y-116803985D01*
X147431328Y-116790538D01*
X146762812Y-116122022D01*
X146748868Y-116114408D01*
X146747035Y-116114539D01*
X146740420Y-116118790D01*
X146067951Y-116791259D01*
X146061521Y-116803034D01*
X135947215Y-116803034D01*
X136060109Y-116723985D01*
X136060112Y-116723983D01*
X136064620Y-116720826D01*
X136220826Y-116564620D01*
X136347534Y-116383661D01*
X136440894Y-116183450D01*
X136498070Y-115970068D01*
X136516844Y-115755475D01*
X145483658Y-115755475D01*
X145501946Y-115964501D01*
X145503849Y-115975296D01*
X145558155Y-116177968D01*
X145561901Y-116188260D01*
X145650577Y-116378425D01*
X145656055Y-116387915D01*
X145685539Y-116430022D01*
X145696015Y-116438396D01*
X145709463Y-116431327D01*
X146377978Y-115762812D01*
X146384356Y-115751132D01*
X147114408Y-115751132D01*
X147114539Y-115752965D01*
X147118790Y-115759580D01*
X147791259Y-116432049D01*
X147803033Y-116438479D01*
X147815049Y-116429183D01*
X147843945Y-116387915D01*
X147849423Y-116378425D01*
X147938099Y-116188260D01*
X147941845Y-116177968D01*
X147996151Y-115975296D01*
X147998054Y-115964501D01*
X148016342Y-115755475D01*
X148016342Y-115750000D01*
X151982677Y-115750000D01*
X152001930Y-115970068D01*
X152059106Y-116183450D01*
X152152466Y-116383661D01*
X152279174Y-116564620D01*
X152435380Y-116720826D01*
X152439888Y-116723983D01*
X152439891Y-116723985D01*
X152611208Y-116843942D01*
X152616338Y-116847534D01*
X152621320Y-116849857D01*
X152621325Y-116849860D01*
X152810556Y-116938099D01*
X152816550Y-116940894D01*
X152821858Y-116942316D01*
X152821860Y-116942317D01*
X152887252Y-116959839D01*
X153029932Y-116998070D01*
X153250000Y-117017323D01*
X153470068Y-116998070D01*
X153612748Y-116959839D01*
X153678140Y-116942317D01*
X153678142Y-116942316D01*
X153683450Y-116940894D01*
X153689444Y-116938099D01*
X153878675Y-116849860D01*
X153878680Y-116849857D01*
X153883662Y-116847534D01*
X153888792Y-116843942D01*
X154060109Y-116723985D01*
X154060112Y-116723983D01*
X154064620Y-116720826D01*
X154220826Y-116564620D01*
X154347534Y-116383661D01*
X154440894Y-116183450D01*
X154498070Y-115970068D01*
X154517323Y-115750000D01*
X154498070Y-115529932D01*
X154440894Y-115316550D01*
X154347534Y-115116339D01*
X154220826Y-114935380D01*
X154064620Y-114779174D01*
X154060112Y-114776017D01*
X154060109Y-114776015D01*
X153888171Y-114655623D01*
X153888168Y-114655621D01*
X153883662Y-114652466D01*
X153878680Y-114650143D01*
X153878675Y-114650140D01*
X153688432Y-114561429D01*
X153688431Y-114561429D01*
X153683450Y-114559106D01*
X153678142Y-114557684D01*
X153678140Y-114557683D01*
X153612748Y-114540161D01*
X153470068Y-114501930D01*
X153250000Y-114482677D01*
X153029932Y-114501930D01*
X152887252Y-114540161D01*
X152821860Y-114557683D01*
X152821858Y-114557684D01*
X152816550Y-114559106D01*
X152811569Y-114561428D01*
X152811568Y-114561429D01*
X152621320Y-114650143D01*
X152621317Y-114650145D01*
X152616339Y-114652466D01*
X152435380Y-114779174D01*
X152279174Y-114935380D01*
X152152466Y-115116339D01*
X152059106Y-115316550D01*
X152001930Y-115529932D01*
X151982677Y-115750000D01*
X148016342Y-115750000D01*
X148016342Y-115744525D01*
X147998054Y-115535499D01*
X147996151Y-115524704D01*
X147941845Y-115322032D01*
X147938099Y-115311740D01*
X147849423Y-115121575D01*
X147843945Y-115112085D01*
X147814461Y-115069978D01*
X147803985Y-115061604D01*
X147790537Y-115068673D01*
X147122022Y-115737188D01*
X147114408Y-115751132D01*
X146384356Y-115751132D01*
X146385592Y-115748868D01*
X146385461Y-115747035D01*
X146381210Y-115740420D01*
X145708741Y-115067951D01*
X145696967Y-115061521D01*
X145684951Y-115070817D01*
X145656055Y-115112085D01*
X145650577Y-115121575D01*
X145561901Y-115311740D01*
X145558155Y-115322032D01*
X145503849Y-115524704D01*
X145501946Y-115535499D01*
X145483658Y-115744525D01*
X145483658Y-115755475D01*
X136516844Y-115755475D01*
X136517323Y-115750000D01*
X136498070Y-115529932D01*
X136440894Y-115316550D01*
X136347534Y-115116339D01*
X136220826Y-114935380D01*
X136064620Y-114779174D01*
X136060112Y-114776017D01*
X136060109Y-114776015D01*
X135945857Y-114696015D01*
X146061604Y-114696015D01*
X146068673Y-114709463D01*
X146737188Y-115377978D01*
X146751132Y-115385592D01*
X146752965Y-115385461D01*
X146759580Y-115381210D01*
X147432049Y-114708741D01*
X147438479Y-114696966D01*
X147429183Y-114684951D01*
X147387919Y-114656058D01*
X147378424Y-114650575D01*
X147188260Y-114561901D01*
X147177968Y-114558155D01*
X146975296Y-114503849D01*
X146964501Y-114501946D01*
X146755475Y-114483658D01*
X146744525Y-114483658D01*
X146535499Y-114501946D01*
X146524704Y-114503849D01*
X146322032Y-114558155D01*
X146311740Y-114561901D01*
X146121575Y-114650577D01*
X146112085Y-114656055D01*
X146069978Y-114685539D01*
X146061604Y-114696015D01*
X135945857Y-114696015D01*
X135888171Y-114655623D01*
X135888168Y-114655621D01*
X135883662Y-114652466D01*
X135878680Y-114650143D01*
X135878675Y-114650140D01*
X135688432Y-114561429D01*
X135688431Y-114561429D01*
X135683450Y-114559106D01*
X135678142Y-114557684D01*
X135678140Y-114557683D01*
X135612748Y-114540161D01*
X135470068Y-114501930D01*
X135250000Y-114482677D01*
X135029932Y-114501930D01*
X134887252Y-114540161D01*
X134821860Y-114557683D01*
X134821858Y-114557684D01*
X134816550Y-114559106D01*
X134811569Y-114561428D01*
X134811568Y-114561429D01*
X134621320Y-114650143D01*
X134621317Y-114650145D01*
X134616339Y-114652466D01*
X134435380Y-114779174D01*
X134279174Y-114935380D01*
X134152466Y-115116339D01*
X134059106Y-115316550D01*
X134001930Y-115529932D01*
X133982677Y-115750000D01*
X130016342Y-115750000D01*
X130016342Y-115744525D01*
X129998054Y-115535499D01*
X129996151Y-115524704D01*
X129941845Y-115322032D01*
X129938099Y-115311740D01*
X129849423Y-115121575D01*
X129843945Y-115112085D01*
X129814461Y-115069978D01*
X129803985Y-115061604D01*
X129790537Y-115068673D01*
X129122022Y-115737188D01*
X129114408Y-115751132D01*
X128384356Y-115751132D01*
X128385592Y-115748868D01*
X128385461Y-115747035D01*
X128381210Y-115740420D01*
X127708741Y-115067951D01*
X127696967Y-115061521D01*
X127684951Y-115070817D01*
X127656055Y-115112085D01*
X127650577Y-115121575D01*
X127561901Y-115311740D01*
X127558155Y-115322032D01*
X127503849Y-115524704D01*
X127501946Y-115535499D01*
X127483658Y-115744525D01*
X127483658Y-115755475D01*
X120508000Y-115755475D01*
X120508000Y-114696015D01*
X128061604Y-114696015D01*
X128068673Y-114709463D01*
X128737188Y-115377978D01*
X128751132Y-115385592D01*
X128752965Y-115385461D01*
X128759580Y-115381210D01*
X129432049Y-114708741D01*
X129438479Y-114696966D01*
X129429183Y-114684951D01*
X129387919Y-114656058D01*
X129378424Y-114650575D01*
X129188260Y-114561901D01*
X129177968Y-114558155D01*
X128975296Y-114503849D01*
X128964501Y-114501946D01*
X128755475Y-114483658D01*
X128744525Y-114483658D01*
X128535499Y-114501946D01*
X128524704Y-114503849D01*
X128322032Y-114558155D01*
X128311740Y-114561901D01*
X128121575Y-114650577D01*
X128112085Y-114656055D01*
X128069978Y-114685539D01*
X128061604Y-114696015D01*
X120508000Y-114696015D01*
X120508000Y-105629733D01*
X146487822Y-105629733D01*
X146497625Y-105910458D01*
X146498387Y-105914781D01*
X146498388Y-105914788D01*
X146522164Y-106049624D01*
X146546402Y-106187087D01*
X146633203Y-106454235D01*
X146756340Y-106706702D01*
X146758795Y-106710341D01*
X146758798Y-106710347D01*
X146831890Y-106818710D01*
X146913415Y-106939576D01*
X147101371Y-107148322D01*
X147316550Y-107328879D01*
X147554764Y-107477731D01*
X147811375Y-107591982D01*
X148081390Y-107669407D01*
X148085740Y-107670018D01*
X148085743Y-107670019D01*
X148188690Y-107684487D01*
X148359552Y-107708500D01*
X151570146Y-107708500D01*
X151572332Y-107708347D01*
X151572336Y-107708347D01*
X151775827Y-107694118D01*
X151775832Y-107694117D01*
X151780212Y-107693811D01*
X152054970Y-107635409D01*
X152059099Y-107633906D01*
X152059103Y-107633905D01*
X152314781Y-107540846D01*
X152314785Y-107540844D01*
X152318926Y-107539337D01*
X152566942Y-107407464D01*
X152671896Y-107331211D01*
X152790629Y-107244947D01*
X152790632Y-107244944D01*
X152794192Y-107242358D01*
X152996252Y-107047231D01*
X153169188Y-106825882D01*
X153171384Y-106822078D01*
X153171389Y-106822071D01*
X153307435Y-106586431D01*
X153309636Y-106582619D01*
X153414862Y-106322176D01*
X153448544Y-106187087D01*
X153481753Y-106053893D01*
X153481754Y-106053888D01*
X153482817Y-106049624D01*
X153512178Y-105770267D01*
X153502375Y-105489542D01*
X153478608Y-105354749D01*
X153454360Y-105217236D01*
X153453598Y-105212913D01*
X153366797Y-104945765D01*
X153243660Y-104693298D01*
X153241205Y-104689659D01*
X153241202Y-104689653D01*
X153160935Y-104570653D01*
X153086585Y-104460424D01*
X152898629Y-104251678D01*
X152683450Y-104071121D01*
X152445236Y-103922269D01*
X152244733Y-103832999D01*
X152192639Y-103809805D01*
X152192637Y-103809804D01*
X152188625Y-103808018D01*
X151918610Y-103730593D01*
X151914260Y-103729982D01*
X151914257Y-103729981D01*
X151811310Y-103715513D01*
X151640448Y-103691500D01*
X148429854Y-103691500D01*
X148427668Y-103691653D01*
X148427664Y-103691653D01*
X148224173Y-103705882D01*
X148224168Y-103705883D01*
X148219788Y-103706189D01*
X147945030Y-103764591D01*
X147940901Y-103766094D01*
X147940897Y-103766095D01*
X147685219Y-103859154D01*
X147685215Y-103859156D01*
X147681074Y-103860663D01*
X147433058Y-103992536D01*
X147429499Y-103995122D01*
X147429497Y-103995123D01*
X147324895Y-104071121D01*
X147205808Y-104157642D01*
X147003748Y-104352769D01*
X146830812Y-104574118D01*
X146828616Y-104577922D01*
X146828611Y-104577929D01*
X146714794Y-104775067D01*
X146690364Y-104817381D01*
X146585138Y-105077824D01*
X146584073Y-105082097D01*
X146584072Y-105082099D01*
X146550379Y-105217236D01*
X146517183Y-105350376D01*
X146487822Y-105629733D01*
X120508000Y-105629733D01*
X120508000Y-103303034D01*
X128061521Y-103303034D01*
X128070817Y-103315049D01*
X128112081Y-103343942D01*
X128121576Y-103349425D01*
X128311740Y-103438099D01*
X128322032Y-103441845D01*
X128524704Y-103496151D01*
X128535499Y-103498054D01*
X128744525Y-103516342D01*
X128755475Y-103516342D01*
X128964501Y-103498054D01*
X128975296Y-103496151D01*
X129177968Y-103441845D01*
X129188260Y-103438099D01*
X129378424Y-103349425D01*
X129387919Y-103343942D01*
X129430021Y-103314462D01*
X129438396Y-103303985D01*
X129431328Y-103290538D01*
X129192924Y-103052134D01*
X133987500Y-103052134D01*
X133994255Y-103114316D01*
X134045385Y-103250705D01*
X134132739Y-103367261D01*
X134249295Y-103454615D01*
X134385684Y-103505745D01*
X134447866Y-103512500D01*
X136052134Y-103512500D01*
X136114316Y-103505745D01*
X136250705Y-103454615D01*
X136364048Y-103369669D01*
X141667001Y-103369669D01*
X141667371Y-103376490D01*
X141672895Y-103427352D01*
X141676521Y-103442604D01*
X141721676Y-103563054D01*
X141730214Y-103578649D01*
X141806715Y-103680724D01*
X141819276Y-103693285D01*
X141921351Y-103769786D01*
X141936946Y-103778324D01*
X142057394Y-103823478D01*
X142072649Y-103827105D01*
X142123514Y-103832631D01*
X142130328Y-103833000D01*
X142727885Y-103833000D01*
X142743124Y-103828525D01*
X142744329Y-103827135D01*
X142746000Y-103819452D01*
X142746000Y-103814884D01*
X143254000Y-103814884D01*
X143258475Y-103830123D01*
X143259865Y-103831328D01*
X143267548Y-103832999D01*
X143869669Y-103832999D01*
X143876490Y-103832629D01*
X143927352Y-103827105D01*
X143942604Y-103823479D01*
X144063054Y-103778324D01*
X144078649Y-103769786D01*
X144180724Y-103693285D01*
X144193285Y-103680724D01*
X144269786Y-103578649D01*
X144278324Y-103563054D01*
X144323478Y-103442606D01*
X144327105Y-103427351D01*
X144332631Y-103376486D01*
X144333000Y-103369672D01*
X144333000Y-102772115D01*
X144328525Y-102756876D01*
X144327135Y-102755671D01*
X144319452Y-102754000D01*
X143272115Y-102754000D01*
X143256876Y-102758475D01*
X143255671Y-102759865D01*
X143254000Y-102767548D01*
X143254000Y-103814884D01*
X142746000Y-103814884D01*
X142746000Y-102772115D01*
X142741525Y-102756876D01*
X142740135Y-102755671D01*
X142732452Y-102754000D01*
X141685116Y-102754000D01*
X141669877Y-102758475D01*
X141668672Y-102759865D01*
X141667001Y-102767548D01*
X141667001Y-103369669D01*
X136364048Y-103369669D01*
X136367261Y-103367261D01*
X136454615Y-103250705D01*
X136505745Y-103114316D01*
X136512500Y-103052134D01*
X136512500Y-102500000D01*
X156161406Y-102500000D01*
X156181742Y-102732444D01*
X156183166Y-102737757D01*
X156183166Y-102737759D01*
X156235033Y-102931327D01*
X156242133Y-102957826D01*
X156244455Y-102962806D01*
X156244456Y-102962808D01*
X156338418Y-103164310D01*
X156338421Y-103164315D01*
X156340744Y-103169297D01*
X156343900Y-103173804D01*
X156343901Y-103173806D01*
X156466871Y-103349425D01*
X156474578Y-103360432D01*
X156639568Y-103525422D01*
X156644076Y-103528579D01*
X156644079Y-103528581D01*
X156693312Y-103563054D01*
X156830703Y-103659256D01*
X156835685Y-103661579D01*
X156835690Y-103661582D01*
X156986284Y-103731805D01*
X157042174Y-103757867D01*
X157047482Y-103759289D01*
X157047484Y-103759290D01*
X157262241Y-103816834D01*
X157262243Y-103816834D01*
X157267556Y-103818258D01*
X157500000Y-103838594D01*
X157732444Y-103818258D01*
X157737757Y-103816834D01*
X157737759Y-103816834D01*
X157952516Y-103759290D01*
X157952518Y-103759289D01*
X157957826Y-103757867D01*
X158013716Y-103731805D01*
X158164310Y-103661582D01*
X158164315Y-103661579D01*
X158169297Y-103659256D01*
X158306688Y-103563054D01*
X158355921Y-103528581D01*
X158355924Y-103528579D01*
X158360432Y-103525422D01*
X158525422Y-103360432D01*
X158533130Y-103349425D01*
X158656099Y-103173806D01*
X158656100Y-103173804D01*
X158659256Y-103169297D01*
X158661579Y-103164315D01*
X158661582Y-103164310D01*
X158755544Y-102962808D01*
X158755545Y-102962806D01*
X158757867Y-102957826D01*
X158764968Y-102931327D01*
X158816834Y-102737759D01*
X158816834Y-102737757D01*
X158818258Y-102732444D01*
X158838594Y-102500000D01*
X158818258Y-102267556D01*
X158815021Y-102255475D01*
X158759290Y-102047484D01*
X158759289Y-102047482D01*
X158757867Y-102042174D01*
X158755544Y-102037192D01*
X158661582Y-101835690D01*
X158661579Y-101835685D01*
X158659256Y-101830703D01*
X158525422Y-101639568D01*
X158360432Y-101474578D01*
X158355924Y-101471421D01*
X158355921Y-101471419D01*
X158186669Y-101352908D01*
X158142341Y-101297451D01*
X158135032Y-101226832D01*
X158167063Y-101163471D01*
X158186669Y-101146482D01*
X158231000Y-101115441D01*
X158239375Y-101104964D01*
X158232307Y-101091517D01*
X157512812Y-100372022D01*
X157498868Y-100364408D01*
X157497035Y-100364539D01*
X157490420Y-100368790D01*
X156766972Y-101092238D01*
X156760542Y-101104013D01*
X156769838Y-101116028D01*
X156813331Y-101146482D01*
X156857659Y-101201939D01*
X156864968Y-101272558D01*
X156832937Y-101335919D01*
X156813331Y-101352908D01*
X156644079Y-101471419D01*
X156644076Y-101471421D01*
X156639568Y-101474578D01*
X156474578Y-101639568D01*
X156340744Y-101830703D01*
X156338421Y-101835685D01*
X156338418Y-101835690D01*
X156244456Y-102037192D01*
X156242133Y-102042174D01*
X156240711Y-102047482D01*
X156240710Y-102047484D01*
X156184979Y-102255475D01*
X156181742Y-102267556D01*
X156161406Y-102500000D01*
X136512500Y-102500000D01*
X136512500Y-102227885D01*
X141667000Y-102227885D01*
X141671475Y-102243124D01*
X141672865Y-102244329D01*
X141680548Y-102246000D01*
X142727885Y-102246000D01*
X142743124Y-102241525D01*
X142744329Y-102240135D01*
X142746000Y-102232452D01*
X142746000Y-102227885D01*
X143254000Y-102227885D01*
X143258475Y-102243124D01*
X143259865Y-102244329D01*
X143267548Y-102246000D01*
X144314884Y-102246000D01*
X144330123Y-102241525D01*
X144331328Y-102240135D01*
X144332999Y-102232452D01*
X144332999Y-101630331D01*
X144332629Y-101623510D01*
X144327105Y-101572648D01*
X144323479Y-101557396D01*
X144278324Y-101436946D01*
X144269786Y-101421351D01*
X144193285Y-101319276D01*
X144180724Y-101306715D01*
X144078649Y-101230214D01*
X144063054Y-101221676D01*
X143942606Y-101176522D01*
X143927351Y-101172895D01*
X143876486Y-101167369D01*
X143869672Y-101167000D01*
X143272115Y-101167000D01*
X143256876Y-101171475D01*
X143255671Y-101172865D01*
X143254000Y-101180548D01*
X143254000Y-102227885D01*
X142746000Y-102227885D01*
X142746000Y-101185116D01*
X142741525Y-101169877D01*
X142740135Y-101168672D01*
X142732452Y-101167001D01*
X142130331Y-101167001D01*
X142123510Y-101167371D01*
X142072648Y-101172895D01*
X142057396Y-101176521D01*
X141936946Y-101221676D01*
X141921351Y-101230214D01*
X141819276Y-101306715D01*
X141806715Y-101319276D01*
X141730214Y-101421351D01*
X141721676Y-101436946D01*
X141676522Y-101557394D01*
X141672895Y-101572649D01*
X141667369Y-101623514D01*
X141667000Y-101630328D01*
X141667000Y-102227885D01*
X136512500Y-102227885D01*
X136512500Y-101447866D01*
X136505745Y-101385684D01*
X136454615Y-101249295D01*
X136367261Y-101132739D01*
X136250705Y-101045385D01*
X136114316Y-100994255D01*
X136052134Y-100987500D01*
X134447866Y-100987500D01*
X134385684Y-100994255D01*
X134249295Y-101045385D01*
X134132739Y-101132739D01*
X134045385Y-101249295D01*
X133994255Y-101385684D01*
X133987500Y-101447866D01*
X133987500Y-103052134D01*
X129192924Y-103052134D01*
X128762812Y-102622022D01*
X128748868Y-102614408D01*
X128747035Y-102614539D01*
X128740420Y-102618790D01*
X128067951Y-103291259D01*
X128061521Y-103303034D01*
X120508000Y-103303034D01*
X120508000Y-102255475D01*
X127483658Y-102255475D01*
X127501946Y-102464501D01*
X127503849Y-102475296D01*
X127558155Y-102677968D01*
X127561901Y-102688260D01*
X127650577Y-102878425D01*
X127656055Y-102887915D01*
X127685539Y-102930022D01*
X127696015Y-102938396D01*
X127709463Y-102931327D01*
X128377978Y-102262812D01*
X128384356Y-102251132D01*
X129114408Y-102251132D01*
X129114539Y-102252965D01*
X129118790Y-102259580D01*
X129791259Y-102932049D01*
X129803033Y-102938479D01*
X129815049Y-102929183D01*
X129843945Y-102887915D01*
X129849423Y-102878425D01*
X129938099Y-102688260D01*
X129941845Y-102677968D01*
X129996151Y-102475296D01*
X129998054Y-102464501D01*
X130016342Y-102255475D01*
X130016342Y-102244525D01*
X129998054Y-102035499D01*
X129996151Y-102024704D01*
X129941845Y-101822032D01*
X129938099Y-101811740D01*
X129849423Y-101621575D01*
X129843945Y-101612085D01*
X129814461Y-101569978D01*
X129803985Y-101561604D01*
X129790537Y-101568673D01*
X129122022Y-102237188D01*
X129114408Y-102251132D01*
X128384356Y-102251132D01*
X128385592Y-102248868D01*
X128385461Y-102247035D01*
X128381210Y-102240420D01*
X127708741Y-101567951D01*
X127696967Y-101561521D01*
X127684951Y-101570817D01*
X127656055Y-101612085D01*
X127650577Y-101621575D01*
X127561901Y-101811740D01*
X127558155Y-101822032D01*
X127503849Y-102024704D01*
X127501946Y-102035499D01*
X127483658Y-102244525D01*
X127483658Y-102255475D01*
X120508000Y-102255475D01*
X120508000Y-101196015D01*
X128061604Y-101196015D01*
X128068673Y-101209463D01*
X128737188Y-101877978D01*
X128751132Y-101885592D01*
X128752965Y-101885461D01*
X128759580Y-101881210D01*
X129432049Y-101208741D01*
X129438479Y-101196966D01*
X129429183Y-101184951D01*
X129387919Y-101156058D01*
X129378424Y-101150575D01*
X129188260Y-101061901D01*
X129177968Y-101058155D01*
X128975296Y-101003849D01*
X128964501Y-101001946D01*
X128755475Y-100983658D01*
X128744525Y-100983658D01*
X128535499Y-101001946D01*
X128524704Y-101003849D01*
X128322032Y-101058155D01*
X128311740Y-101061901D01*
X128121575Y-101150577D01*
X128112085Y-101156055D01*
X128069978Y-101185539D01*
X128061604Y-101196015D01*
X120508000Y-101196015D01*
X120508000Y-100005475D01*
X156162387Y-100005475D01*
X156181758Y-100226877D01*
X156183661Y-100237672D01*
X156241182Y-100452344D01*
X156244928Y-100462636D01*
X156338852Y-100664059D01*
X156344335Y-100673554D01*
X156384559Y-100731000D01*
X156395036Y-100739375D01*
X156408483Y-100732307D01*
X157127978Y-100012812D01*
X157134356Y-100001132D01*
X157864408Y-100001132D01*
X157864539Y-100002965D01*
X157868790Y-100009580D01*
X158592238Y-100733028D01*
X158604013Y-100739458D01*
X158616028Y-100730162D01*
X158655665Y-100673554D01*
X158661148Y-100664059D01*
X158755072Y-100462636D01*
X158758818Y-100452344D01*
X158816339Y-100237672D01*
X158818242Y-100226877D01*
X158837613Y-100005475D01*
X158837613Y-99994525D01*
X158818242Y-99773123D01*
X158816339Y-99762328D01*
X158758818Y-99547656D01*
X158755072Y-99537364D01*
X158661148Y-99335941D01*
X158655665Y-99326446D01*
X158615441Y-99269000D01*
X158604964Y-99260625D01*
X158591517Y-99267693D01*
X157872022Y-99987188D01*
X157864408Y-100001132D01*
X157134356Y-100001132D01*
X157135592Y-99998868D01*
X157135461Y-99997035D01*
X157131210Y-99990420D01*
X156407762Y-99266972D01*
X156395987Y-99260542D01*
X156383972Y-99269838D01*
X156344335Y-99326446D01*
X156338852Y-99335941D01*
X156244928Y-99537364D01*
X156241182Y-99547656D01*
X156183661Y-99762328D01*
X156181758Y-99773123D01*
X156162387Y-99994525D01*
X156162387Y-100005475D01*
X120508000Y-100005475D01*
X120508000Y-98803034D01*
X128061521Y-98803034D01*
X128070817Y-98815049D01*
X128112081Y-98843942D01*
X128121576Y-98849425D01*
X128311740Y-98938099D01*
X128322032Y-98941845D01*
X128524704Y-98996151D01*
X128535499Y-98998054D01*
X128744525Y-99016342D01*
X128755475Y-99016342D01*
X128964501Y-98998054D01*
X128975296Y-98996151D01*
X129177968Y-98941845D01*
X129188260Y-98938099D01*
X129378424Y-98849425D01*
X129387919Y-98843942D01*
X129430021Y-98814462D01*
X129438396Y-98803985D01*
X129431328Y-98790538D01*
X128762812Y-98122022D01*
X128748868Y-98114408D01*
X128747035Y-98114539D01*
X128740420Y-98118790D01*
X128067951Y-98791259D01*
X128061521Y-98803034D01*
X120508000Y-98803034D01*
X120508000Y-97755475D01*
X127483658Y-97755475D01*
X127501946Y-97964501D01*
X127503849Y-97975296D01*
X127558155Y-98177968D01*
X127561901Y-98188260D01*
X127650577Y-98378425D01*
X127656055Y-98387915D01*
X127685539Y-98430022D01*
X127696015Y-98438396D01*
X127709463Y-98431327D01*
X128377978Y-97762812D01*
X128384356Y-97751132D01*
X129114408Y-97751132D01*
X129114539Y-97752965D01*
X129118790Y-97759580D01*
X129791259Y-98432049D01*
X129803033Y-98438479D01*
X129815049Y-98429183D01*
X129843945Y-98387915D01*
X129849423Y-98378425D01*
X129938099Y-98188260D01*
X129941845Y-98177968D01*
X129996151Y-97975296D01*
X129998054Y-97964501D01*
X130016342Y-97755475D01*
X130016342Y-97750000D01*
X133982677Y-97750000D01*
X134001930Y-97970068D01*
X134059106Y-98183450D01*
X134061428Y-98188431D01*
X134061429Y-98188432D01*
X134139531Y-98355921D01*
X134152466Y-98383661D01*
X134279174Y-98564620D01*
X134435380Y-98720826D01*
X134439888Y-98723983D01*
X134439891Y-98723985D01*
X134600621Y-98836529D01*
X134616338Y-98847534D01*
X134621320Y-98849857D01*
X134621325Y-98849860D01*
X134747044Y-98908483D01*
X134816550Y-98940894D01*
X134821858Y-98942316D01*
X134821860Y-98942317D01*
X134887252Y-98959839D01*
X135029932Y-98998070D01*
X135250000Y-99017323D01*
X135470068Y-98998070D01*
X135612748Y-98959839D01*
X135678140Y-98942317D01*
X135678142Y-98942316D01*
X135683450Y-98940894D01*
X135752956Y-98908483D01*
X135878675Y-98849860D01*
X135878680Y-98849857D01*
X135883662Y-98847534D01*
X135899379Y-98836529D01*
X136060109Y-98723985D01*
X136060112Y-98723983D01*
X136064620Y-98720826D01*
X136220826Y-98564620D01*
X136347534Y-98383661D01*
X136360470Y-98355921D01*
X136438571Y-98188432D01*
X136438572Y-98188431D01*
X136440894Y-98183450D01*
X136498070Y-97970068D01*
X136517323Y-97750000D01*
X136498070Y-97529932D01*
X136490050Y-97500000D01*
X141661406Y-97500000D01*
X141681742Y-97732444D01*
X141683166Y-97737757D01*
X141683166Y-97737759D01*
X141687241Y-97752965D01*
X141742133Y-97957826D01*
X141744455Y-97962806D01*
X141744456Y-97962808D01*
X141838418Y-98164310D01*
X141838421Y-98164315D01*
X141840744Y-98169297D01*
X141974578Y-98360432D01*
X142139568Y-98525422D01*
X142144076Y-98528579D01*
X142144079Y-98528581D01*
X142201111Y-98568515D01*
X142330703Y-98659256D01*
X142335685Y-98661579D01*
X142335690Y-98661582D01*
X142537192Y-98755544D01*
X142542174Y-98757867D01*
X142547482Y-98759289D01*
X142547484Y-98759290D01*
X142762241Y-98816834D01*
X142762243Y-98816834D01*
X142767556Y-98818258D01*
X143000000Y-98838594D01*
X143232444Y-98818258D01*
X143237757Y-98816834D01*
X143237759Y-98816834D01*
X143452516Y-98759290D01*
X143452518Y-98759289D01*
X143457826Y-98757867D01*
X143462808Y-98755544D01*
X143664310Y-98661582D01*
X143664315Y-98661579D01*
X143669297Y-98659256D01*
X143798889Y-98568515D01*
X143855921Y-98528581D01*
X143855924Y-98528579D01*
X143860432Y-98525422D01*
X144025422Y-98360432D01*
X144159256Y-98169297D01*
X144161579Y-98164315D01*
X144161582Y-98164310D01*
X144255544Y-97962808D01*
X144255545Y-97962806D01*
X144257867Y-97957826D01*
X144312760Y-97752965D01*
X144316834Y-97737759D01*
X144316834Y-97737757D01*
X144318258Y-97732444D01*
X144338594Y-97500000D01*
X156161406Y-97500000D01*
X156181742Y-97732444D01*
X156183166Y-97737757D01*
X156183166Y-97737759D01*
X156187241Y-97752965D01*
X156242133Y-97957826D01*
X156244455Y-97962806D01*
X156244456Y-97962808D01*
X156338418Y-98164310D01*
X156338421Y-98164315D01*
X156340744Y-98169297D01*
X156474578Y-98360432D01*
X156639568Y-98525422D01*
X156644076Y-98528579D01*
X156644079Y-98528581D01*
X156813331Y-98647092D01*
X156857659Y-98702549D01*
X156864968Y-98773168D01*
X156832937Y-98836529D01*
X156813331Y-98853518D01*
X156769000Y-98884559D01*
X156760625Y-98895036D01*
X156767693Y-98908483D01*
X157487188Y-99627978D01*
X157501132Y-99635592D01*
X157502965Y-99635461D01*
X157509580Y-99631210D01*
X158233028Y-98907762D01*
X158239458Y-98895987D01*
X158230162Y-98883972D01*
X158186669Y-98853518D01*
X158142341Y-98798061D01*
X158135032Y-98727442D01*
X158167063Y-98664081D01*
X158186669Y-98647092D01*
X158355921Y-98528581D01*
X158355924Y-98528579D01*
X158360432Y-98525422D01*
X158525422Y-98360432D01*
X158659256Y-98169297D01*
X158661579Y-98164315D01*
X158661582Y-98164310D01*
X158755544Y-97962808D01*
X158755545Y-97962806D01*
X158757867Y-97957826D01*
X158812760Y-97752965D01*
X158816834Y-97737759D01*
X158816834Y-97737757D01*
X158818258Y-97732444D01*
X158838594Y-97500000D01*
X158818258Y-97267556D01*
X158816834Y-97262241D01*
X158759290Y-97047484D01*
X158759289Y-97047482D01*
X158757867Y-97042174D01*
X158706252Y-96931485D01*
X158661582Y-96835690D01*
X158661579Y-96835685D01*
X158659256Y-96830703D01*
X158625904Y-96783071D01*
X158528581Y-96644079D01*
X158528579Y-96644076D01*
X158525422Y-96639568D01*
X158360432Y-96474578D01*
X158355924Y-96471421D01*
X158355921Y-96471419D01*
X158173806Y-96343901D01*
X158173804Y-96343900D01*
X158169297Y-96340744D01*
X158164315Y-96338421D01*
X158164310Y-96338418D01*
X157962808Y-96244456D01*
X157962806Y-96244455D01*
X157957826Y-96242133D01*
X157952518Y-96240711D01*
X157952516Y-96240710D01*
X157737759Y-96183166D01*
X157737757Y-96183166D01*
X157732444Y-96181742D01*
X157500000Y-96161406D01*
X157267556Y-96181742D01*
X157262243Y-96183166D01*
X157262241Y-96183166D01*
X157047484Y-96240710D01*
X157047482Y-96240711D01*
X157042174Y-96242133D01*
X157037194Y-96244455D01*
X157037192Y-96244456D01*
X156835690Y-96338418D01*
X156835685Y-96338421D01*
X156830703Y-96340744D01*
X156826196Y-96343900D01*
X156826194Y-96343901D01*
X156644079Y-96471419D01*
X156644076Y-96471421D01*
X156639568Y-96474578D01*
X156474578Y-96639568D01*
X156471421Y-96644076D01*
X156471419Y-96644079D01*
X156374096Y-96783071D01*
X156340744Y-96830703D01*
X156338421Y-96835685D01*
X156338418Y-96835690D01*
X156293748Y-96931485D01*
X156242133Y-97042174D01*
X156240711Y-97047482D01*
X156240710Y-97047484D01*
X156183166Y-97262241D01*
X156181742Y-97267556D01*
X156161406Y-97500000D01*
X144338594Y-97500000D01*
X144318258Y-97267556D01*
X144316834Y-97262241D01*
X144259290Y-97047484D01*
X144259289Y-97047482D01*
X144257867Y-97042174D01*
X144206252Y-96931485D01*
X144161582Y-96835690D01*
X144161579Y-96835685D01*
X144159256Y-96830703D01*
X144125904Y-96783071D01*
X144028581Y-96644079D01*
X144028579Y-96644076D01*
X144025422Y-96639568D01*
X143860432Y-96474578D01*
X143855924Y-96471421D01*
X143855921Y-96471419D01*
X143673806Y-96343901D01*
X143673804Y-96343900D01*
X143669297Y-96340744D01*
X143664315Y-96338421D01*
X143664310Y-96338418D01*
X143462808Y-96244456D01*
X143462806Y-96244455D01*
X143457826Y-96242133D01*
X143452518Y-96240711D01*
X143452516Y-96240710D01*
X143237759Y-96183166D01*
X143237757Y-96183166D01*
X143232444Y-96181742D01*
X143000000Y-96161406D01*
X142767556Y-96181742D01*
X142762243Y-96183166D01*
X142762241Y-96183166D01*
X142547484Y-96240710D01*
X142547482Y-96240711D01*
X142542174Y-96242133D01*
X142537194Y-96244455D01*
X142537192Y-96244456D01*
X142335690Y-96338418D01*
X142335685Y-96338421D01*
X142330703Y-96340744D01*
X142326196Y-96343900D01*
X142326194Y-96343901D01*
X142144079Y-96471419D01*
X142144076Y-96471421D01*
X142139568Y-96474578D01*
X141974578Y-96639568D01*
X141971421Y-96644076D01*
X141971419Y-96644079D01*
X141874096Y-96783071D01*
X141840744Y-96830703D01*
X141838421Y-96835685D01*
X141838418Y-96835690D01*
X141793748Y-96931485D01*
X141742133Y-97042174D01*
X141740711Y-97047482D01*
X141740710Y-97047484D01*
X141683166Y-97262241D01*
X141681742Y-97267556D01*
X141661406Y-97500000D01*
X136490050Y-97500000D01*
X136440894Y-97316550D01*
X136347534Y-97116339D01*
X136220826Y-96935380D01*
X136064620Y-96779174D01*
X136060112Y-96776017D01*
X136060109Y-96776015D01*
X135888171Y-96655623D01*
X135888168Y-96655621D01*
X135883662Y-96652466D01*
X135878680Y-96650143D01*
X135878675Y-96650140D01*
X135688432Y-96561429D01*
X135688431Y-96561429D01*
X135683450Y-96559106D01*
X135678142Y-96557684D01*
X135678140Y-96557683D01*
X135612748Y-96540161D01*
X135470068Y-96501930D01*
X135250000Y-96482677D01*
X135029932Y-96501930D01*
X134887252Y-96540161D01*
X134821860Y-96557683D01*
X134821858Y-96557684D01*
X134816550Y-96559106D01*
X134811569Y-96561428D01*
X134811568Y-96561429D01*
X134621320Y-96650143D01*
X134621317Y-96650145D01*
X134616339Y-96652466D01*
X134435380Y-96779174D01*
X134279174Y-96935380D01*
X134152466Y-97116339D01*
X134059106Y-97316550D01*
X134001930Y-97529932D01*
X133982677Y-97750000D01*
X130016342Y-97750000D01*
X130016342Y-97744525D01*
X129998054Y-97535499D01*
X129996151Y-97524704D01*
X129941845Y-97322032D01*
X129938099Y-97311740D01*
X129849423Y-97121575D01*
X129843945Y-97112085D01*
X129814461Y-97069978D01*
X129803985Y-97061604D01*
X129790537Y-97068673D01*
X129122022Y-97737188D01*
X129114408Y-97751132D01*
X128384356Y-97751132D01*
X128385592Y-97748868D01*
X128385461Y-97747035D01*
X128381210Y-97740420D01*
X127708741Y-97067951D01*
X127696967Y-97061521D01*
X127684951Y-97070817D01*
X127656055Y-97112085D01*
X127650577Y-97121575D01*
X127561901Y-97311740D01*
X127558155Y-97322032D01*
X127503849Y-97524704D01*
X127501946Y-97535499D01*
X127483658Y-97744525D01*
X127483658Y-97755475D01*
X120508000Y-97755475D01*
X120508000Y-96696015D01*
X128061604Y-96696015D01*
X128068673Y-96709463D01*
X128737188Y-97377978D01*
X128751132Y-97385592D01*
X128752965Y-97385461D01*
X128759580Y-97381210D01*
X129432049Y-96708741D01*
X129438479Y-96696966D01*
X129429183Y-96684951D01*
X129387919Y-96656058D01*
X129378424Y-96650575D01*
X129188260Y-96561901D01*
X129177968Y-96558155D01*
X128975296Y-96503849D01*
X128964501Y-96501946D01*
X128755475Y-96483658D01*
X128744525Y-96483658D01*
X128535499Y-96501946D01*
X128524704Y-96503849D01*
X128322032Y-96558155D01*
X128311740Y-96561901D01*
X128121575Y-96650577D01*
X128112085Y-96656055D01*
X128069978Y-96685539D01*
X128061604Y-96696015D01*
X120508000Y-96696015D01*
X120508000Y-94229733D01*
X146487822Y-94229733D01*
X146497625Y-94510458D01*
X146498387Y-94514781D01*
X146498388Y-94514788D01*
X146522164Y-94649624D01*
X146546402Y-94787087D01*
X146633203Y-95054235D01*
X146756340Y-95306702D01*
X146758795Y-95310341D01*
X146758798Y-95310347D01*
X146831890Y-95418710D01*
X146913415Y-95539576D01*
X147101371Y-95748322D01*
X147316550Y-95928879D01*
X147554764Y-96077731D01*
X147688484Y-96137267D01*
X147788376Y-96181742D01*
X147811375Y-96191982D01*
X148081390Y-96269407D01*
X148085740Y-96270018D01*
X148085743Y-96270019D01*
X148188690Y-96284487D01*
X148359552Y-96308500D01*
X151570146Y-96308500D01*
X151572332Y-96308347D01*
X151572336Y-96308347D01*
X151775827Y-96294118D01*
X151775832Y-96294117D01*
X151780212Y-96293811D01*
X152054970Y-96235409D01*
X152059099Y-96233906D01*
X152059103Y-96233905D01*
X152314781Y-96140846D01*
X152314785Y-96140844D01*
X152318926Y-96139337D01*
X152566942Y-96007464D01*
X152671896Y-95931211D01*
X152790629Y-95844947D01*
X152790632Y-95844944D01*
X152794192Y-95842358D01*
X152996252Y-95647231D01*
X153169188Y-95425882D01*
X153171384Y-95422078D01*
X153171389Y-95422071D01*
X153307435Y-95186431D01*
X153309636Y-95182619D01*
X153414862Y-94922176D01*
X153448544Y-94787087D01*
X153481753Y-94653893D01*
X153481754Y-94653888D01*
X153482817Y-94649624D01*
X153512178Y-94370267D01*
X153502375Y-94089542D01*
X153478608Y-93954749D01*
X153454360Y-93817236D01*
X153453598Y-93812913D01*
X153366797Y-93545765D01*
X153243660Y-93293298D01*
X153241205Y-93289659D01*
X153241202Y-93289653D01*
X153160935Y-93170653D01*
X153086585Y-93060424D01*
X152898629Y-92851678D01*
X152683450Y-92671121D01*
X152445236Y-92522269D01*
X152188625Y-92408018D01*
X151918610Y-92330593D01*
X151914260Y-92329982D01*
X151914257Y-92329981D01*
X151811310Y-92315513D01*
X151640448Y-92291500D01*
X148429854Y-92291500D01*
X148427668Y-92291653D01*
X148427664Y-92291653D01*
X148224173Y-92305882D01*
X148224168Y-92305883D01*
X148219788Y-92306189D01*
X147945030Y-92364591D01*
X147940901Y-92366094D01*
X147940897Y-92366095D01*
X147685219Y-92459154D01*
X147685215Y-92459156D01*
X147681074Y-92460663D01*
X147433058Y-92592536D01*
X147429499Y-92595122D01*
X147429497Y-92595123D01*
X147324895Y-92671121D01*
X147205808Y-92757642D01*
X147003748Y-92952769D01*
X146830812Y-93174118D01*
X146828616Y-93177922D01*
X146828611Y-93177929D01*
X146714794Y-93375068D01*
X146690364Y-93417381D01*
X146585138Y-93677824D01*
X146584073Y-93682097D01*
X146584072Y-93682099D01*
X146550379Y-93817236D01*
X146517183Y-93950376D01*
X146487822Y-94229733D01*
X120508000Y-94229733D01*
X120508000Y-89000000D01*
X154036771Y-89000000D01*
X154055635Y-89179475D01*
X154111401Y-89351107D01*
X154201633Y-89507393D01*
X154322387Y-89641504D01*
X154468385Y-89747578D01*
X154474413Y-89750262D01*
X154474415Y-89750263D01*
X154627217Y-89818295D01*
X154633248Y-89820980D01*
X154721508Y-89839740D01*
X154803311Y-89857128D01*
X154803315Y-89857128D01*
X154809768Y-89858500D01*
X154990232Y-89858500D01*
X154996685Y-89857128D01*
X154996689Y-89857128D01*
X155078492Y-89839740D01*
X155166752Y-89820980D01*
X155172783Y-89818295D01*
X155325585Y-89750263D01*
X155325587Y-89750262D01*
X155331615Y-89747578D01*
X155477613Y-89641504D01*
X155598367Y-89507393D01*
X155688599Y-89351107D01*
X155744365Y-89179475D01*
X155763229Y-89000000D01*
X155744365Y-88820525D01*
X155688599Y-88648893D01*
X155675380Y-88625998D01*
X155658500Y-88562999D01*
X155658500Y-87517001D01*
X155675380Y-87454002D01*
X155688599Y-87431107D01*
X155744365Y-87259475D01*
X155763229Y-87080000D01*
X155744365Y-86900525D01*
X155688599Y-86728893D01*
X155598367Y-86572607D01*
X155477613Y-86438496D01*
X155331615Y-86332422D01*
X155325587Y-86329738D01*
X155325585Y-86329737D01*
X155172783Y-86261705D01*
X155172781Y-86261705D01*
X155166752Y-86259020D01*
X155078492Y-86240260D01*
X154996689Y-86222872D01*
X154996685Y-86222872D01*
X154990232Y-86221500D01*
X154809768Y-86221500D01*
X154803315Y-86222872D01*
X154803311Y-86222872D01*
X154721508Y-86240260D01*
X154633248Y-86259020D01*
X154627219Y-86261704D01*
X154627217Y-86261705D01*
X154474416Y-86329737D01*
X154474414Y-86329738D01*
X154468386Y-86332422D01*
X154463045Y-86336302D01*
X154463044Y-86336303D01*
X154327731Y-86434613D01*
X154327729Y-86434615D01*
X154322387Y-86438496D01*
X154201633Y-86572607D01*
X154111401Y-86728893D01*
X154055635Y-86900525D01*
X154036771Y-87080000D01*
X154055635Y-87259475D01*
X154111401Y-87431107D01*
X154124620Y-87454002D01*
X154141500Y-87517001D01*
X154141500Y-88562999D01*
X154124620Y-88625998D01*
X154111401Y-88648893D01*
X154055635Y-88820525D01*
X154036771Y-89000000D01*
X120508000Y-89000000D01*
X120508000Y-85303034D01*
X128061521Y-85303034D01*
X128070817Y-85315049D01*
X128112081Y-85343942D01*
X128121576Y-85349425D01*
X128311740Y-85438099D01*
X128322032Y-85441845D01*
X128524704Y-85496151D01*
X128535499Y-85498054D01*
X128744525Y-85516342D01*
X128755475Y-85516342D01*
X128964501Y-85498054D01*
X128975296Y-85496151D01*
X129177968Y-85441845D01*
X129188260Y-85438099D01*
X129378424Y-85349425D01*
X129387919Y-85343942D01*
X129430021Y-85314462D01*
X129438396Y-85303985D01*
X129431328Y-85290538D01*
X129192924Y-85052134D01*
X133987500Y-85052134D01*
X133994255Y-85114316D01*
X134045385Y-85250705D01*
X134132739Y-85367261D01*
X134249295Y-85454615D01*
X134385684Y-85505745D01*
X134447866Y-85512500D01*
X136052134Y-85512500D01*
X136114316Y-85505745D01*
X136250705Y-85454615D01*
X136367261Y-85367261D01*
X136454615Y-85250705D01*
X136505745Y-85114316D01*
X136512500Y-85052134D01*
X136512500Y-83447866D01*
X136505745Y-83385684D01*
X136454615Y-83249295D01*
X136367261Y-83132739D01*
X136250705Y-83045385D01*
X136114316Y-82994255D01*
X136052134Y-82987500D01*
X134447866Y-82987500D01*
X134385684Y-82994255D01*
X134249295Y-83045385D01*
X134132739Y-83132739D01*
X134045385Y-83249295D01*
X133994255Y-83385684D01*
X133987500Y-83447866D01*
X133987500Y-85052134D01*
X129192924Y-85052134D01*
X128762812Y-84622022D01*
X128748868Y-84614408D01*
X128747035Y-84614539D01*
X128740420Y-84618790D01*
X128067951Y-85291259D01*
X128061521Y-85303034D01*
X120508000Y-85303034D01*
X120508000Y-84255475D01*
X127483658Y-84255475D01*
X127501946Y-84464501D01*
X127503849Y-84475296D01*
X127558155Y-84677968D01*
X127561901Y-84688260D01*
X127650577Y-84878425D01*
X127656055Y-84887915D01*
X127685539Y-84930022D01*
X127696015Y-84938396D01*
X127709463Y-84931327D01*
X128377978Y-84262812D01*
X128384356Y-84251132D01*
X129114408Y-84251132D01*
X129114539Y-84252965D01*
X129118790Y-84259580D01*
X129791259Y-84932049D01*
X129803033Y-84938479D01*
X129815049Y-84929183D01*
X129843945Y-84887915D01*
X129849423Y-84878425D01*
X129938099Y-84688260D01*
X129941845Y-84677968D01*
X129996151Y-84475296D01*
X129998054Y-84464501D01*
X130016342Y-84255475D01*
X130016342Y-84244525D01*
X129998054Y-84035499D01*
X129996151Y-84024704D01*
X129941845Y-83822032D01*
X129938099Y-83811740D01*
X129849423Y-83621575D01*
X129843945Y-83612085D01*
X129814461Y-83569978D01*
X129803985Y-83561604D01*
X129790537Y-83568673D01*
X129122022Y-84237188D01*
X129114408Y-84251132D01*
X128384356Y-84251132D01*
X128385592Y-84248868D01*
X128385461Y-84247035D01*
X128381210Y-84240420D01*
X127708741Y-83567951D01*
X127696967Y-83561521D01*
X127684951Y-83570817D01*
X127656055Y-83612085D01*
X127650577Y-83621575D01*
X127561901Y-83811740D01*
X127558155Y-83822032D01*
X127503849Y-84024704D01*
X127501946Y-84035499D01*
X127483658Y-84244525D01*
X127483658Y-84255475D01*
X120508000Y-84255475D01*
X120508000Y-83196015D01*
X128061604Y-83196015D01*
X128068673Y-83209463D01*
X128737188Y-83877978D01*
X128751132Y-83885592D01*
X128752965Y-83885461D01*
X128759580Y-83881210D01*
X129432049Y-83208741D01*
X129438479Y-83196966D01*
X129429183Y-83184951D01*
X129387919Y-83156058D01*
X129378424Y-83150575D01*
X129188260Y-83061901D01*
X129177968Y-83058155D01*
X128975296Y-83003849D01*
X128964501Y-83001946D01*
X128755475Y-82983658D01*
X128744525Y-82983658D01*
X128535499Y-83001946D01*
X128524704Y-83003849D01*
X128322032Y-83058155D01*
X128311740Y-83061901D01*
X128121575Y-83150577D01*
X128112085Y-83156055D01*
X128069978Y-83185539D01*
X128061604Y-83196015D01*
X120508000Y-83196015D01*
X120508000Y-80803034D01*
X128061521Y-80803034D01*
X128070817Y-80815049D01*
X128112081Y-80843942D01*
X128121576Y-80849425D01*
X128311740Y-80938099D01*
X128322032Y-80941845D01*
X128524704Y-80996151D01*
X128535499Y-80998054D01*
X128744525Y-81016342D01*
X128755475Y-81016342D01*
X128964501Y-80998054D01*
X128975296Y-80996151D01*
X129177968Y-80941845D01*
X129188260Y-80938099D01*
X129378424Y-80849425D01*
X129387919Y-80843942D01*
X129430021Y-80814462D01*
X129438396Y-80803985D01*
X129431328Y-80790538D01*
X128762812Y-80122022D01*
X128748868Y-80114408D01*
X128747035Y-80114539D01*
X128740420Y-80118790D01*
X128067951Y-80791259D01*
X128061521Y-80803034D01*
X120508000Y-80803034D01*
X120508000Y-79755475D01*
X127483658Y-79755475D01*
X127501946Y-79964501D01*
X127503849Y-79975296D01*
X127558155Y-80177968D01*
X127561901Y-80188260D01*
X127650577Y-80378425D01*
X127656055Y-80387915D01*
X127685539Y-80430022D01*
X127696015Y-80438396D01*
X127709463Y-80431327D01*
X128377978Y-79762812D01*
X128384356Y-79751132D01*
X129114408Y-79751132D01*
X129114539Y-79752965D01*
X129118790Y-79759580D01*
X129791259Y-80432049D01*
X129803033Y-80438479D01*
X129815049Y-80429183D01*
X129843945Y-80387915D01*
X129849423Y-80378425D01*
X129938099Y-80188260D01*
X129941845Y-80177968D01*
X129996151Y-79975296D01*
X129998054Y-79964501D01*
X130016342Y-79755475D01*
X130016342Y-79750000D01*
X133982677Y-79750000D01*
X134001930Y-79970068D01*
X134059106Y-80183450D01*
X134152466Y-80383661D01*
X134279174Y-80564620D01*
X134435380Y-80720826D01*
X134439888Y-80723983D01*
X134439891Y-80723985D01*
X134611208Y-80843942D01*
X134616338Y-80847534D01*
X134621320Y-80849857D01*
X134621325Y-80849860D01*
X134810556Y-80938099D01*
X134816550Y-80940894D01*
X134821858Y-80942316D01*
X134821860Y-80942317D01*
X134887252Y-80959839D01*
X135029932Y-80998070D01*
X135250000Y-81017323D01*
X135470068Y-80998070D01*
X135612748Y-80959839D01*
X135678140Y-80942317D01*
X135678142Y-80942316D01*
X135683450Y-80940894D01*
X135689444Y-80938099D01*
X135878675Y-80849860D01*
X135878680Y-80849857D01*
X135883662Y-80847534D01*
X135888792Y-80843942D01*
X136060109Y-80723985D01*
X136060112Y-80723983D01*
X136064620Y-80720826D01*
X136220826Y-80564620D01*
X136347534Y-80383661D01*
X136440894Y-80183450D01*
X136498070Y-79970068D01*
X136517323Y-79750000D01*
X136508574Y-79650000D01*
X159036771Y-79650000D01*
X159055635Y-79829475D01*
X159111401Y-80001107D01*
X159201633Y-80157393D01*
X159206051Y-80162300D01*
X159206052Y-80162301D01*
X159317965Y-80286593D01*
X159322387Y-80291504D01*
X159327729Y-80295385D01*
X159327731Y-80295387D01*
X159463043Y-80393697D01*
X159468385Y-80397578D01*
X159474413Y-80400262D01*
X159474415Y-80400263D01*
X159627217Y-80468295D01*
X159633248Y-80470980D01*
X159721508Y-80489740D01*
X159803311Y-80507128D01*
X159803315Y-80507128D01*
X159809768Y-80508500D01*
X159990232Y-80508500D01*
X159996685Y-80507128D01*
X159996689Y-80507128D01*
X160078492Y-80489740D01*
X160166752Y-80470980D01*
X160172783Y-80468295D01*
X160325585Y-80400263D01*
X160325587Y-80400262D01*
X160331615Y-80397578D01*
X160336957Y-80393697D01*
X160472269Y-80295387D01*
X160472271Y-80295385D01*
X160477613Y-80291504D01*
X160482035Y-80286593D01*
X160593948Y-80162301D01*
X160593949Y-80162300D01*
X160598367Y-80157393D01*
X160688599Y-80001107D01*
X160744365Y-79829475D01*
X160763229Y-79650000D01*
X160744365Y-79470525D01*
X160688599Y-79298893D01*
X160598367Y-79142607D01*
X160590862Y-79134272D01*
X160560146Y-79070266D01*
X160558500Y-79049964D01*
X160558500Y-78384500D01*
X160578502Y-78316379D01*
X160632158Y-78269886D01*
X160684500Y-78258500D01*
X162554840Y-78258500D01*
X162622961Y-78278502D01*
X162628901Y-78282564D01*
X162718385Y-78347578D01*
X162724413Y-78350262D01*
X162724415Y-78350263D01*
X162877217Y-78418295D01*
X162883248Y-78420980D01*
X162971508Y-78439740D01*
X163053311Y-78457128D01*
X163053315Y-78457128D01*
X163059768Y-78458500D01*
X163240232Y-78458500D01*
X163246685Y-78457128D01*
X163246689Y-78457128D01*
X163328492Y-78439740D01*
X163416752Y-78420980D01*
X163422783Y-78418295D01*
X163575585Y-78350263D01*
X163575587Y-78350262D01*
X163581615Y-78347578D01*
X163688549Y-78269886D01*
X163722269Y-78245387D01*
X163722271Y-78245385D01*
X163727613Y-78241504D01*
X163743132Y-78224268D01*
X163843948Y-78112301D01*
X163843949Y-78112300D01*
X163848367Y-78107393D01*
X163924684Y-77975208D01*
X163935295Y-77956830D01*
X163935296Y-77956829D01*
X163938599Y-77951107D01*
X163994365Y-77779475D01*
X164005593Y-77672655D01*
X164012539Y-77606565D01*
X164013229Y-77600000D01*
X164004377Y-77515784D01*
X163995055Y-77427089D01*
X163995055Y-77427088D01*
X163994365Y-77420525D01*
X163991225Y-77410859D01*
X163940641Y-77255178D01*
X163938599Y-77248893D01*
X163871516Y-77132703D01*
X173890743Y-77132703D01*
X173891302Y-77136947D01*
X173891302Y-77136951D01*
X173894210Y-77159036D01*
X173928268Y-77417734D01*
X174004129Y-77695036D01*
X174005813Y-77698984D01*
X174083473Y-77881053D01*
X174116923Y-77959476D01*
X174128693Y-77979142D01*
X174205450Y-78107393D01*
X174264561Y-78206161D01*
X174444313Y-78430528D01*
X174519555Y-78501930D01*
X174578307Y-78557683D01*
X174652851Y-78628423D01*
X174886317Y-78796186D01*
X174890112Y-78798195D01*
X174890113Y-78798196D01*
X174911869Y-78809715D01*
X175140392Y-78930712D01*
X175410373Y-79029511D01*
X175691264Y-79090755D01*
X175719841Y-79093004D01*
X175914282Y-79108307D01*
X175914291Y-79108307D01*
X175916739Y-79108500D01*
X176072271Y-79108500D01*
X176074407Y-79108354D01*
X176074418Y-79108354D01*
X176282548Y-79094165D01*
X176282554Y-79094164D01*
X176286825Y-79093873D01*
X176291020Y-79093004D01*
X176291022Y-79093004D01*
X176462981Y-79057393D01*
X176568342Y-79035574D01*
X176839343Y-78939607D01*
X177094812Y-78807750D01*
X177098313Y-78805289D01*
X177098317Y-78805287D01*
X177253795Y-78696015D01*
X177330023Y-78642441D01*
X177479698Y-78503354D01*
X177537479Y-78449661D01*
X177537481Y-78449658D01*
X177540622Y-78446740D01*
X177722713Y-78224268D01*
X177872927Y-77979142D01*
X177887993Y-77944822D01*
X177986757Y-77719830D01*
X177988483Y-77715898D01*
X177990036Y-77710448D01*
X178059435Y-77466819D01*
X178067244Y-77439406D01*
X178107751Y-77154784D01*
X178107845Y-77136951D01*
X178109235Y-76871583D01*
X178109235Y-76871576D01*
X178109257Y-76867297D01*
X178097455Y-76777648D01*
X178072292Y-76586522D01*
X178071732Y-76582266D01*
X177995871Y-76304964D01*
X177955922Y-76211305D01*
X177884763Y-76044476D01*
X177884761Y-76044472D01*
X177883077Y-76040524D01*
X177758160Y-75831803D01*
X177737643Y-75797521D01*
X177737640Y-75797517D01*
X177735439Y-75793839D01*
X177555687Y-75569472D01*
X177432289Y-75452372D01*
X177350258Y-75374527D01*
X177350255Y-75374525D01*
X177347149Y-75371577D01*
X177113683Y-75203814D01*
X177091843Y-75192250D01*
X177060368Y-75175585D01*
X176859608Y-75069288D01*
X176589627Y-74970489D01*
X176308736Y-74909245D01*
X176277685Y-74906801D01*
X176085718Y-74891693D01*
X176085709Y-74891693D01*
X176083261Y-74891500D01*
X175927729Y-74891500D01*
X175925593Y-74891646D01*
X175925582Y-74891646D01*
X175717452Y-74905835D01*
X175717446Y-74905836D01*
X175713175Y-74906127D01*
X175708980Y-74906996D01*
X175708978Y-74906996D01*
X175583284Y-74933026D01*
X175431658Y-74964426D01*
X175160657Y-75060393D01*
X174905188Y-75192250D01*
X174901687Y-75194711D01*
X174901683Y-75194713D01*
X174864666Y-75220729D01*
X174669977Y-75357559D01*
X174644465Y-75381266D01*
X174466695Y-75546461D01*
X174459378Y-75553260D01*
X174277287Y-75775732D01*
X174127073Y-76020858D01*
X174011517Y-76284102D01*
X174010342Y-76288229D01*
X174010341Y-76288230D01*
X173981390Y-76389865D01*
X173932756Y-76560594D01*
X173892249Y-76845216D01*
X173892227Y-76849505D01*
X173892226Y-76849512D01*
X173890765Y-77128417D01*
X173890743Y-77132703D01*
X163871516Y-77132703D01*
X163848367Y-77092607D01*
X163838058Y-77081157D01*
X163732035Y-76963407D01*
X163732034Y-76963406D01*
X163727613Y-76958496D01*
X163711309Y-76946650D01*
X163586957Y-76856303D01*
X163586956Y-76856302D01*
X163581615Y-76852422D01*
X163575587Y-76849738D01*
X163575585Y-76849737D01*
X163422783Y-76781705D01*
X163422781Y-76781705D01*
X163416752Y-76779020D01*
X163328492Y-76760260D01*
X163246689Y-76742872D01*
X163246685Y-76742872D01*
X163240232Y-76741500D01*
X163059768Y-76741500D01*
X163053315Y-76742872D01*
X163053311Y-76742872D01*
X162971508Y-76760260D01*
X162883248Y-76779020D01*
X162877219Y-76781704D01*
X162877217Y-76781705D01*
X162724416Y-76849737D01*
X162724414Y-76849738D01*
X162718386Y-76852422D01*
X162713044Y-76856303D01*
X162713039Y-76856306D01*
X162628900Y-76917436D01*
X162554840Y-76941500D01*
X160232056Y-76941500D01*
X160220200Y-76940941D01*
X160220197Y-76940941D01*
X160212463Y-76939212D01*
X160157446Y-76940941D01*
X160141631Y-76941438D01*
X160137673Y-76941500D01*
X160108568Y-76941500D01*
X160104168Y-76942056D01*
X160092336Y-76942988D01*
X160046169Y-76944438D01*
X160025579Y-76950420D01*
X160006218Y-76954430D01*
X159999230Y-76955312D01*
X159992796Y-76956125D01*
X159992795Y-76956125D01*
X159984936Y-76957118D01*
X159977571Y-76960034D01*
X159977567Y-76960035D01*
X159941979Y-76974126D01*
X159930769Y-76977965D01*
X159886400Y-76990855D01*
X159867943Y-77001771D01*
X159850193Y-77010466D01*
X159830244Y-77018365D01*
X159823833Y-77023023D01*
X159823831Y-77023024D01*
X159792864Y-77045523D01*
X159782946Y-77052038D01*
X159743193Y-77075548D01*
X159728032Y-77090709D01*
X159713000Y-77103548D01*
X159695643Y-77116159D01*
X159690589Y-77122268D01*
X159666194Y-77151756D01*
X159658205Y-77160535D01*
X159492397Y-77326343D01*
X159483618Y-77334332D01*
X159483612Y-77334337D01*
X159476920Y-77338584D01*
X159471495Y-77344361D01*
X159428395Y-77390258D01*
X159425640Y-77393100D01*
X159405073Y-77413667D01*
X159402356Y-77417170D01*
X159394648Y-77426195D01*
X159363028Y-77459867D01*
X159359207Y-77466818D01*
X159359206Y-77466819D01*
X159352697Y-77478658D01*
X159341843Y-77495182D01*
X159334018Y-77505271D01*
X159328696Y-77512132D01*
X159325549Y-77519404D01*
X159325548Y-77519406D01*
X159310346Y-77554535D01*
X159305124Y-77565195D01*
X159289599Y-77593435D01*
X159282876Y-77605663D01*
X159277541Y-77626441D01*
X159271142Y-77645131D01*
X159262620Y-77664824D01*
X159261380Y-77672655D01*
X159255394Y-77710448D01*
X159252987Y-77722071D01*
X159241500Y-77766812D01*
X159241500Y-77788259D01*
X159239949Y-77807969D01*
X159236594Y-77829152D01*
X159237340Y-77837043D01*
X159240941Y-77875138D01*
X159241500Y-77886996D01*
X159241500Y-79049964D01*
X159221498Y-79118085D01*
X159209142Y-79134267D01*
X159201633Y-79142607D01*
X159111401Y-79298893D01*
X159055635Y-79470525D01*
X159036771Y-79650000D01*
X136508574Y-79650000D01*
X136498070Y-79529932D01*
X136440894Y-79316550D01*
X136433299Y-79300263D01*
X136349857Y-79121320D01*
X136349855Y-79121317D01*
X136347534Y-79116339D01*
X136220826Y-78935380D01*
X136064620Y-78779174D01*
X136060112Y-78776017D01*
X136060109Y-78776015D01*
X135888171Y-78655623D01*
X135888168Y-78655621D01*
X135883662Y-78652466D01*
X135878680Y-78650143D01*
X135878675Y-78650140D01*
X135688432Y-78561429D01*
X135688431Y-78561429D01*
X135683450Y-78559106D01*
X135678142Y-78557684D01*
X135678140Y-78557683D01*
X135649467Y-78550000D01*
X147536771Y-78550000D01*
X147555635Y-78729475D01*
X147557675Y-78735753D01*
X147557675Y-78735754D01*
X147581068Y-78807750D01*
X147611401Y-78901107D01*
X147614704Y-78906829D01*
X147614705Y-78906830D01*
X147632494Y-78937641D01*
X147701633Y-79057393D01*
X147706051Y-79062300D01*
X147706052Y-79062301D01*
X147738493Y-79098330D01*
X147822387Y-79191504D01*
X147968385Y-79297578D01*
X147974413Y-79300262D01*
X147974415Y-79300263D01*
X148017382Y-79319393D01*
X148133248Y-79370980D01*
X148201377Y-79385461D01*
X148303311Y-79407128D01*
X148303315Y-79407128D01*
X148309768Y-79408500D01*
X148490232Y-79408500D01*
X148496685Y-79407128D01*
X148496689Y-79407128D01*
X148598623Y-79385461D01*
X148666752Y-79370980D01*
X148782618Y-79319393D01*
X148833867Y-79308500D01*
X152016133Y-79308500D01*
X152067382Y-79319393D01*
X152183248Y-79370980D01*
X152251377Y-79385461D01*
X152353311Y-79407128D01*
X152353315Y-79407128D01*
X152359768Y-79408500D01*
X152540232Y-79408500D01*
X152546685Y-79407128D01*
X152546689Y-79407128D01*
X152648623Y-79385461D01*
X152716752Y-79370980D01*
X152832618Y-79319393D01*
X152875585Y-79300263D01*
X152875587Y-79300262D01*
X152881615Y-79297578D01*
X153027613Y-79191504D01*
X153111507Y-79098330D01*
X153143948Y-79062301D01*
X153143949Y-79062300D01*
X153148367Y-79057393D01*
X153217506Y-78937641D01*
X153235295Y-78906830D01*
X153235296Y-78906829D01*
X153238599Y-78901107D01*
X153268932Y-78807750D01*
X153292325Y-78735754D01*
X153292325Y-78735753D01*
X153294365Y-78729475D01*
X153313229Y-78550000D01*
X153302027Y-78443421D01*
X153295055Y-78377089D01*
X153295055Y-78377088D01*
X153294365Y-78370525D01*
X153238599Y-78198893D01*
X153148367Y-78042607D01*
X153027613Y-77908496D01*
X152881615Y-77802422D01*
X152875587Y-77799738D01*
X152875585Y-77799737D01*
X152722783Y-77731705D01*
X152722781Y-77731705D01*
X152716752Y-77729020D01*
X152628492Y-77710260D01*
X152546689Y-77692872D01*
X152546685Y-77692872D01*
X152540232Y-77691500D01*
X152359768Y-77691500D01*
X152353315Y-77692872D01*
X152353311Y-77692872D01*
X152271508Y-77710260D01*
X152183248Y-77729020D01*
X152177219Y-77731704D01*
X152177217Y-77731705D01*
X152067383Y-77780607D01*
X152016134Y-77791500D01*
X148833867Y-77791500D01*
X148782618Y-77780607D01*
X148672783Y-77731705D01*
X148672781Y-77731705D01*
X148666752Y-77729020D01*
X148578492Y-77710260D01*
X148496689Y-77692872D01*
X148496685Y-77692872D01*
X148490232Y-77691500D01*
X148309768Y-77691500D01*
X148303315Y-77692872D01*
X148303311Y-77692872D01*
X148221508Y-77710260D01*
X148133248Y-77729020D01*
X148127219Y-77731704D01*
X148127217Y-77731705D01*
X147974416Y-77799737D01*
X147974414Y-77799738D01*
X147968386Y-77802422D01*
X147963045Y-77806302D01*
X147963044Y-77806303D01*
X147827731Y-77904613D01*
X147827729Y-77904615D01*
X147822387Y-77908496D01*
X147701633Y-78042607D01*
X147611401Y-78198893D01*
X147555635Y-78370525D01*
X147554945Y-78377088D01*
X147554945Y-78377089D01*
X147547973Y-78443421D01*
X147536771Y-78550000D01*
X135649467Y-78550000D01*
X135612748Y-78540161D01*
X135470068Y-78501930D01*
X135250000Y-78482677D01*
X135029932Y-78501930D01*
X134887252Y-78540161D01*
X134821860Y-78557683D01*
X134821858Y-78557684D01*
X134816550Y-78559106D01*
X134811569Y-78561428D01*
X134811568Y-78561429D01*
X134621320Y-78650143D01*
X134621317Y-78650145D01*
X134616339Y-78652466D01*
X134435380Y-78779174D01*
X134279174Y-78935380D01*
X134152466Y-79116339D01*
X134150145Y-79121317D01*
X134150143Y-79121320D01*
X134066701Y-79300263D01*
X134059106Y-79316550D01*
X134001930Y-79529932D01*
X133982677Y-79750000D01*
X130016342Y-79750000D01*
X130016342Y-79744525D01*
X129998054Y-79535499D01*
X129996151Y-79524704D01*
X129941845Y-79322032D01*
X129938099Y-79311740D01*
X129849423Y-79121575D01*
X129843945Y-79112085D01*
X129814461Y-79069978D01*
X129803985Y-79061604D01*
X129790537Y-79068673D01*
X129122022Y-79737188D01*
X129114408Y-79751132D01*
X128384356Y-79751132D01*
X128385592Y-79748868D01*
X128385461Y-79747035D01*
X128381210Y-79740420D01*
X127708741Y-79067951D01*
X127696967Y-79061521D01*
X127684951Y-79070817D01*
X127656055Y-79112085D01*
X127650577Y-79121575D01*
X127561901Y-79311740D01*
X127558155Y-79322032D01*
X127503849Y-79524704D01*
X127501946Y-79535499D01*
X127483658Y-79744525D01*
X127483658Y-79755475D01*
X120508000Y-79755475D01*
X120508000Y-77132703D01*
X121890743Y-77132703D01*
X121891302Y-77136947D01*
X121891302Y-77136951D01*
X121894210Y-77159036D01*
X121928268Y-77417734D01*
X122004129Y-77695036D01*
X122005813Y-77698984D01*
X122083473Y-77881053D01*
X122116923Y-77959476D01*
X122128693Y-77979142D01*
X122205450Y-78107393D01*
X122264561Y-78206161D01*
X122444313Y-78430528D01*
X122519555Y-78501930D01*
X122578307Y-78557683D01*
X122652851Y-78628423D01*
X122886317Y-78796186D01*
X122890112Y-78798195D01*
X122890113Y-78798196D01*
X122911869Y-78809715D01*
X123140392Y-78930712D01*
X123410373Y-79029511D01*
X123691264Y-79090755D01*
X123719841Y-79093004D01*
X123914282Y-79108307D01*
X123914291Y-79108307D01*
X123916739Y-79108500D01*
X124072271Y-79108500D01*
X124074407Y-79108354D01*
X124074418Y-79108354D01*
X124282548Y-79094165D01*
X124282554Y-79094164D01*
X124286825Y-79093873D01*
X124291020Y-79093004D01*
X124291022Y-79093004D01*
X124462981Y-79057393D01*
X124568342Y-79035574D01*
X124839343Y-78939607D01*
X125094812Y-78807750D01*
X125098313Y-78805289D01*
X125098317Y-78805287D01*
X125253795Y-78696015D01*
X128061604Y-78696015D01*
X128068673Y-78709463D01*
X128737188Y-79377978D01*
X128751132Y-79385592D01*
X128752965Y-79385461D01*
X128759580Y-79381210D01*
X129432049Y-78708741D01*
X129438479Y-78696966D01*
X129429183Y-78684951D01*
X129387919Y-78656058D01*
X129378424Y-78650575D01*
X129188260Y-78561901D01*
X129177968Y-78558155D01*
X128975296Y-78503849D01*
X128964501Y-78501946D01*
X128755475Y-78483658D01*
X128744525Y-78483658D01*
X128535499Y-78501946D01*
X128524704Y-78503849D01*
X128322032Y-78558155D01*
X128311740Y-78561901D01*
X128121575Y-78650577D01*
X128112085Y-78656055D01*
X128069978Y-78685539D01*
X128061604Y-78696015D01*
X125253795Y-78696015D01*
X125330023Y-78642441D01*
X125479698Y-78503354D01*
X125537479Y-78449661D01*
X125537481Y-78449658D01*
X125540622Y-78446740D01*
X125722713Y-78224268D01*
X125872927Y-77979142D01*
X125887993Y-77944822D01*
X125986757Y-77719830D01*
X125988483Y-77715898D01*
X125990036Y-77710448D01*
X126059435Y-77466819D01*
X126067244Y-77439406D01*
X126107751Y-77154784D01*
X126107845Y-77136951D01*
X126109235Y-76871583D01*
X126109235Y-76871576D01*
X126109257Y-76867297D01*
X126097455Y-76777648D01*
X126090742Y-76726657D01*
X144672000Y-76726657D01*
X144672301Y-76732805D01*
X144685812Y-76870603D01*
X144688195Y-76882638D01*
X144741767Y-77060076D01*
X144746441Y-77071416D01*
X144833460Y-77235077D01*
X144840249Y-77245294D01*
X144957397Y-77388933D01*
X144966041Y-77397637D01*
X145108856Y-77515784D01*
X145119027Y-77522644D01*
X145282076Y-77610804D01*
X145293381Y-77615556D01*
X145408692Y-77651250D01*
X145422795Y-77651456D01*
X145426000Y-77644701D01*
X145426000Y-77637924D01*
X145934000Y-77637924D01*
X145937973Y-77651455D01*
X145945768Y-77652575D01*
X146053521Y-77620862D01*
X146064889Y-77616269D01*
X146229154Y-77530393D01*
X146239415Y-77523679D01*
X146383873Y-77407532D01*
X146392632Y-77398954D01*
X146511778Y-77256961D01*
X146518708Y-77246841D01*
X146608002Y-77084415D01*
X146612834Y-77073142D01*
X146668880Y-76896462D01*
X146671430Y-76884468D01*
X146687607Y-76740239D01*
X146688000Y-76733215D01*
X146688000Y-76517026D01*
X146708002Y-76448905D01*
X146761658Y-76402412D01*
X146831932Y-76392308D01*
X146841486Y-76394061D01*
X147011494Y-76432062D01*
X147011501Y-76432063D01*
X147016543Y-76433190D01*
X147022088Y-76433500D01*
X147155244Y-76433500D01*
X147290037Y-76418857D01*
X147408190Y-76379094D01*
X147455204Y-76363272D01*
X147455206Y-76363271D01*
X147461675Y-76361094D01*
X147616905Y-76267823D01*
X147621862Y-76263135D01*
X147621865Y-76263133D01*
X147743527Y-76148082D01*
X147743529Y-76148080D01*
X147748485Y-76143393D01*
X147752317Y-76137755D01*
X147752320Y-76137751D01*
X147846442Y-75999255D01*
X147850277Y-75993612D01*
X147917530Y-75825466D01*
X147918644Y-75818738D01*
X147918645Y-75818734D01*
X147945993Y-75653539D01*
X147945993Y-75653536D01*
X147947108Y-75646802D01*
X147943231Y-75572814D01*
X147942203Y-75553198D01*
X152052892Y-75553198D01*
X152053249Y-75560015D01*
X152053249Y-75560019D01*
X152058151Y-75653539D01*
X152062370Y-75734047D01*
X152064181Y-75740620D01*
X152064181Y-75740623D01*
X152097738Y-75862452D01*
X152110461Y-75908641D01*
X152194922Y-76068836D01*
X152199327Y-76074049D01*
X152199330Y-76074053D01*
X152307406Y-76201943D01*
X152307410Y-76201947D01*
X152311813Y-76207157D01*
X152317237Y-76211304D01*
X152317238Y-76211305D01*
X152450257Y-76313006D01*
X152450261Y-76313009D01*
X152455678Y-76317150D01*
X152542372Y-76357576D01*
X152613631Y-76390805D01*
X152613634Y-76390806D01*
X152619808Y-76393685D01*
X152626456Y-76395171D01*
X152626459Y-76395172D01*
X152722686Y-76416681D01*
X152796543Y-76433190D01*
X152802088Y-76433500D01*
X152935244Y-76433500D01*
X153070037Y-76418857D01*
X153076501Y-76416682D01*
X153076504Y-76416681D01*
X153143716Y-76394061D01*
X153145811Y-76393356D01*
X153216753Y-76390586D01*
X153277932Y-76426609D01*
X153309923Y-76489990D01*
X153312000Y-76512775D01*
X153312000Y-76726657D01*
X153312301Y-76732805D01*
X153325812Y-76870603D01*
X153328195Y-76882638D01*
X153381767Y-77060076D01*
X153386441Y-77071416D01*
X153473460Y-77235077D01*
X153480249Y-77245294D01*
X153597397Y-77388933D01*
X153606041Y-77397637D01*
X153748856Y-77515784D01*
X153759027Y-77522644D01*
X153922076Y-77610804D01*
X153933381Y-77615556D01*
X154048692Y-77651250D01*
X154062795Y-77651456D01*
X154066000Y-77644701D01*
X154066000Y-77637924D01*
X154574000Y-77637924D01*
X154577973Y-77651455D01*
X154585768Y-77652575D01*
X154693521Y-77620862D01*
X154704889Y-77616269D01*
X154869154Y-77530393D01*
X154879415Y-77523679D01*
X155023873Y-77407532D01*
X155032632Y-77398954D01*
X155151778Y-77256961D01*
X155158708Y-77246841D01*
X155248002Y-77084415D01*
X155252834Y-77073142D01*
X155308880Y-76896462D01*
X155311430Y-76884468D01*
X155327607Y-76740239D01*
X155328000Y-76733215D01*
X155328000Y-76402115D01*
X155323525Y-76386876D01*
X155322135Y-76385671D01*
X155314452Y-76384000D01*
X154592115Y-76384000D01*
X154576876Y-76388475D01*
X154575671Y-76389865D01*
X154574000Y-76397548D01*
X154574000Y-77637924D01*
X154066000Y-77637924D01*
X154066000Y-75857885D01*
X154574000Y-75857885D01*
X154578475Y-75873124D01*
X154579865Y-75874329D01*
X154587548Y-75876000D01*
X155309885Y-75876000D01*
X155325124Y-75871525D01*
X155326329Y-75870135D01*
X155328000Y-75862452D01*
X155328000Y-75533343D01*
X155327699Y-75527195D01*
X155314188Y-75389397D01*
X155311805Y-75377362D01*
X155258233Y-75199924D01*
X155253559Y-75188584D01*
X155166540Y-75024923D01*
X155159751Y-75014706D01*
X155042603Y-74871067D01*
X155033959Y-74862363D01*
X154891144Y-74744216D01*
X154880973Y-74737356D01*
X154717924Y-74649196D01*
X154706619Y-74644444D01*
X154591308Y-74608750D01*
X154577205Y-74608544D01*
X154574000Y-74615299D01*
X154574000Y-75857885D01*
X154066000Y-75857885D01*
X154066000Y-74622076D01*
X154062027Y-74608545D01*
X154054232Y-74607425D01*
X153946479Y-74639138D01*
X153935111Y-74643731D01*
X153770846Y-74729607D01*
X153760585Y-74736321D01*
X153616127Y-74852468D01*
X153607368Y-74861046D01*
X153563000Y-74913921D01*
X153503890Y-74953248D01*
X153432902Y-74954374D01*
X153389952Y-74933028D01*
X153324322Y-74882850D01*
X153219186Y-74833825D01*
X153166369Y-74809195D01*
X153166366Y-74809194D01*
X153160192Y-74806315D01*
X153153544Y-74804829D01*
X153153541Y-74804828D01*
X152988494Y-74767936D01*
X152988495Y-74767936D01*
X152983457Y-74766810D01*
X152977912Y-74766500D01*
X152844756Y-74766500D01*
X152709963Y-74781143D01*
X152626609Y-74809195D01*
X152544796Y-74836728D01*
X152544794Y-74836729D01*
X152538325Y-74838906D01*
X152383095Y-74932177D01*
X152378138Y-74936865D01*
X152378135Y-74936867D01*
X152278410Y-75031173D01*
X152251515Y-75056607D01*
X152247683Y-75062245D01*
X152247680Y-75062249D01*
X152179387Y-75162739D01*
X152149723Y-75206388D01*
X152082470Y-75374534D01*
X152081356Y-75381262D01*
X152081355Y-75381266D01*
X152056179Y-75533343D01*
X152052892Y-75553198D01*
X147942203Y-75553198D01*
X147937987Y-75472766D01*
X147937630Y-75465953D01*
X147914304Y-75381266D01*
X147891352Y-75297941D01*
X147889539Y-75291359D01*
X147805078Y-75131164D01*
X147800673Y-75125951D01*
X147800670Y-75125947D01*
X147692594Y-74998057D01*
X147692590Y-74998053D01*
X147688187Y-74992843D01*
X147682762Y-74988695D01*
X147549743Y-74886994D01*
X147549739Y-74886991D01*
X147544322Y-74882850D01*
X147439186Y-74833825D01*
X147386369Y-74809195D01*
X147386366Y-74809194D01*
X147380192Y-74806315D01*
X147373544Y-74804829D01*
X147373541Y-74804828D01*
X147208494Y-74767936D01*
X147208495Y-74767936D01*
X147203457Y-74766810D01*
X147197912Y-74766500D01*
X147064756Y-74766500D01*
X146929963Y-74781143D01*
X146846609Y-74809195D01*
X146764796Y-74836728D01*
X146764794Y-74836729D01*
X146758325Y-74838906D01*
X146606349Y-74930222D01*
X146606346Y-74930223D01*
X146603095Y-74932177D01*
X146602745Y-74931594D01*
X146541083Y-74955065D01*
X146471609Y-74940439D01*
X146433609Y-74909085D01*
X146402603Y-74871067D01*
X146393959Y-74862363D01*
X146251144Y-74744216D01*
X146240973Y-74737356D01*
X146077924Y-74649196D01*
X146066619Y-74644444D01*
X145951308Y-74608750D01*
X145937205Y-74608544D01*
X145934000Y-74615299D01*
X145934000Y-77637924D01*
X145426000Y-77637924D01*
X145426000Y-76402115D01*
X145421525Y-76386876D01*
X145420135Y-76385671D01*
X145412452Y-76384000D01*
X144690115Y-76384000D01*
X144674876Y-76388475D01*
X144673671Y-76389865D01*
X144672000Y-76397548D01*
X144672000Y-76726657D01*
X126090742Y-76726657D01*
X126072292Y-76586522D01*
X126071732Y-76582266D01*
X125995871Y-76304964D01*
X125955922Y-76211305D01*
X125884763Y-76044476D01*
X125884761Y-76044472D01*
X125883077Y-76040524D01*
X125773770Y-75857885D01*
X144672000Y-75857885D01*
X144676475Y-75873124D01*
X144677865Y-75874329D01*
X144685548Y-75876000D01*
X145407885Y-75876000D01*
X145423124Y-75871525D01*
X145424329Y-75870135D01*
X145426000Y-75862452D01*
X145426000Y-74622076D01*
X145422027Y-74608545D01*
X145414232Y-74607425D01*
X145306479Y-74639138D01*
X145295111Y-74643731D01*
X145130846Y-74729607D01*
X145120585Y-74736321D01*
X144976127Y-74852468D01*
X144967368Y-74861046D01*
X144848222Y-75003039D01*
X144841292Y-75013159D01*
X144751998Y-75175585D01*
X144747166Y-75186858D01*
X144691120Y-75363538D01*
X144688570Y-75375532D01*
X144672393Y-75519761D01*
X144672000Y-75526785D01*
X144672000Y-75857885D01*
X125773770Y-75857885D01*
X125758160Y-75831803D01*
X125737643Y-75797521D01*
X125737640Y-75797517D01*
X125735439Y-75793839D01*
X125555687Y-75569472D01*
X125432289Y-75452372D01*
X125350258Y-75374527D01*
X125350255Y-75374525D01*
X125347149Y-75371577D01*
X125113683Y-75203814D01*
X125091843Y-75192250D01*
X125060368Y-75175585D01*
X124859608Y-75069288D01*
X124589627Y-74970489D01*
X124308736Y-74909245D01*
X124277685Y-74906801D01*
X124085718Y-74891693D01*
X124085709Y-74891693D01*
X124083261Y-74891500D01*
X123927729Y-74891500D01*
X123925593Y-74891646D01*
X123925582Y-74891646D01*
X123717452Y-74905835D01*
X123717446Y-74905836D01*
X123713175Y-74906127D01*
X123708980Y-74906996D01*
X123708978Y-74906996D01*
X123583284Y-74933026D01*
X123431658Y-74964426D01*
X123160657Y-75060393D01*
X122905188Y-75192250D01*
X122901687Y-75194711D01*
X122901683Y-75194713D01*
X122864666Y-75220729D01*
X122669977Y-75357559D01*
X122644465Y-75381266D01*
X122466695Y-75546461D01*
X122459378Y-75553260D01*
X122277287Y-75775732D01*
X122127073Y-76020858D01*
X122011517Y-76284102D01*
X122010342Y-76288229D01*
X122010341Y-76288230D01*
X121981390Y-76389865D01*
X121932756Y-76560594D01*
X121892249Y-76845216D01*
X121892227Y-76849505D01*
X121892226Y-76849512D01*
X121890765Y-77128417D01*
X121890743Y-77132703D01*
X120508000Y-77132703D01*
X120508000Y-74888134D01*
X131241500Y-74888134D01*
X131241869Y-74891531D01*
X131241887Y-74891693D01*
X131248255Y-74950316D01*
X131299385Y-75086705D01*
X131386739Y-75203261D01*
X131503295Y-75290615D01*
X131639684Y-75341745D01*
X131701866Y-75348500D01*
X133498134Y-75348500D01*
X133560316Y-75341745D01*
X133696705Y-75290615D01*
X133813261Y-75203261D01*
X133900615Y-75086705D01*
X133922799Y-75027529D01*
X133944598Y-74969382D01*
X133987240Y-74912618D01*
X134053802Y-74887918D01*
X134123150Y-74903126D01*
X134157817Y-74931114D01*
X134186250Y-74963938D01*
X134358126Y-75106632D01*
X134551000Y-75219338D01*
X134759692Y-75299030D01*
X134764760Y-75300061D01*
X134764763Y-75300062D01*
X134859862Y-75319410D01*
X134978597Y-75343567D01*
X134983772Y-75343757D01*
X134983774Y-75343757D01*
X135196673Y-75351564D01*
X135196677Y-75351564D01*
X135201837Y-75351753D01*
X135206957Y-75351097D01*
X135206959Y-75351097D01*
X135418288Y-75324025D01*
X135418289Y-75324025D01*
X135423416Y-75323368D01*
X135428366Y-75321883D01*
X135632429Y-75260661D01*
X135632434Y-75260659D01*
X135637384Y-75259174D01*
X135837994Y-75160896D01*
X136019860Y-75031173D01*
X136048093Y-75003039D01*
X136118351Y-74933026D01*
X136178096Y-74873489D01*
X136308453Y-74692077D01*
X136309776Y-74693028D01*
X136356645Y-74649857D01*
X136426580Y-74637625D01*
X136492026Y-74665144D01*
X136519875Y-74696994D01*
X136579987Y-74795088D01*
X136726250Y-74963938D01*
X136898126Y-75106632D01*
X137091000Y-75219338D01*
X137299692Y-75299030D01*
X137304760Y-75300061D01*
X137304763Y-75300062D01*
X137399862Y-75319410D01*
X137518597Y-75343567D01*
X137523772Y-75343757D01*
X137523774Y-75343757D01*
X137736673Y-75351564D01*
X137736677Y-75351564D01*
X137741837Y-75351753D01*
X137746957Y-75351097D01*
X137746959Y-75351097D01*
X137958288Y-75324025D01*
X137958289Y-75324025D01*
X137963416Y-75323368D01*
X137968366Y-75321883D01*
X138172429Y-75260661D01*
X138172434Y-75260659D01*
X138177384Y-75259174D01*
X138377994Y-75160896D01*
X138559860Y-75031173D01*
X138588093Y-75003039D01*
X138658351Y-74933026D01*
X138718096Y-74873489D01*
X138848453Y-74692077D01*
X138849640Y-74692930D01*
X138896960Y-74649362D01*
X138966897Y-74637145D01*
X139032338Y-74664678D01*
X139060166Y-74696511D01*
X139117694Y-74790388D01*
X139123777Y-74798699D01*
X139263213Y-74959667D01*
X139270580Y-74966883D01*
X139434434Y-75102916D01*
X139442881Y-75108831D01*
X139626756Y-75216279D01*
X139636042Y-75220729D01*
X139835001Y-75296703D01*
X139844899Y-75299579D01*
X139948250Y-75320606D01*
X139962299Y-75319410D01*
X139966000Y-75309065D01*
X139966000Y-75308517D01*
X140474000Y-75308517D01*
X140478064Y-75322359D01*
X140491478Y-75324393D01*
X140498184Y-75323534D01*
X140508262Y-75321392D01*
X140712255Y-75260191D01*
X140721842Y-75256433D01*
X140913095Y-75162739D01*
X140921945Y-75157464D01*
X141095328Y-75033792D01*
X141103200Y-75027139D01*
X141254052Y-74876812D01*
X141260730Y-74868965D01*
X141385003Y-74696020D01*
X141390313Y-74687183D01*
X141484670Y-74496267D01*
X141488469Y-74486672D01*
X141550377Y-74282910D01*
X141552555Y-74272837D01*
X141553986Y-74261962D01*
X141551775Y-74247778D01*
X141538617Y-74244000D01*
X140492115Y-74244000D01*
X140476876Y-74248475D01*
X140475671Y-74249865D01*
X140474000Y-74257548D01*
X140474000Y-75308517D01*
X139966000Y-75308517D01*
X139966000Y-73717885D01*
X140474000Y-73717885D01*
X140478475Y-73733124D01*
X140479865Y-73734329D01*
X140487548Y-73736000D01*
X141538344Y-73736000D01*
X141551875Y-73732027D01*
X141553180Y-73722947D01*
X141511214Y-73555875D01*
X141507894Y-73546124D01*
X141422972Y-73350814D01*
X141418105Y-73341739D01*
X141302426Y-73162926D01*
X141296136Y-73154757D01*
X141152806Y-72997240D01*
X141145273Y-72990215D01*
X140978139Y-72858222D01*
X140969552Y-72852517D01*
X140783117Y-72749599D01*
X140773705Y-72745369D01*
X140572959Y-72674280D01*
X140562988Y-72671646D01*
X140491837Y-72658972D01*
X140478540Y-72660432D01*
X140474000Y-72674989D01*
X140474000Y-73717885D01*
X139966000Y-73717885D01*
X139966000Y-72673102D01*
X139962082Y-72659758D01*
X139947806Y-72657771D01*
X139909324Y-72663660D01*
X139899288Y-72666051D01*
X139696868Y-72732212D01*
X139687359Y-72736209D01*
X139498463Y-72834542D01*
X139489738Y-72840036D01*
X139319433Y-72967905D01*
X139311726Y-72974748D01*
X139164590Y-73128717D01*
X139158109Y-73136722D01*
X139053498Y-73290074D01*
X138998587Y-73335076D01*
X138928062Y-73343247D01*
X138864315Y-73311993D01*
X138843618Y-73287509D01*
X138762822Y-73162617D01*
X138762820Y-73162614D01*
X138760014Y-73158277D01*
X138609670Y-72993051D01*
X138605619Y-72989852D01*
X138605615Y-72989848D01*
X138438414Y-72857800D01*
X138438410Y-72857798D01*
X138434359Y-72854598D01*
X138398028Y-72834542D01*
X138344651Y-72805077D01*
X138238789Y-72746638D01*
X138233920Y-72744914D01*
X138233916Y-72744912D01*
X138033087Y-72673795D01*
X138033083Y-72673794D01*
X138028212Y-72672069D01*
X138023119Y-72671162D01*
X138023116Y-72671161D01*
X137813373Y-72633800D01*
X137813367Y-72633799D01*
X137808284Y-72632894D01*
X137734452Y-72631992D01*
X137590081Y-72630228D01*
X137590079Y-72630228D01*
X137584911Y-72630165D01*
X137364091Y-72663955D01*
X137151756Y-72733357D01*
X137078757Y-72771358D01*
X136971945Y-72826961D01*
X136953607Y-72836507D01*
X136949474Y-72839610D01*
X136949471Y-72839612D01*
X136779100Y-72967530D01*
X136774965Y-72970635D01*
X136771393Y-72974373D01*
X136663729Y-73087037D01*
X136620629Y-73132138D01*
X136513201Y-73289621D01*
X136458293Y-73334621D01*
X136387768Y-73342792D01*
X136324021Y-73311538D01*
X136303324Y-73287054D01*
X136222822Y-73162617D01*
X136222820Y-73162614D01*
X136220014Y-73158277D01*
X136069670Y-72993051D01*
X136065619Y-72989852D01*
X136065615Y-72989848D01*
X135898414Y-72857800D01*
X135898410Y-72857798D01*
X135894359Y-72854598D01*
X135858028Y-72834542D01*
X135804651Y-72805077D01*
X135698789Y-72746638D01*
X135693920Y-72744914D01*
X135693916Y-72744912D01*
X135493087Y-72673795D01*
X135493083Y-72673794D01*
X135488212Y-72672069D01*
X135483119Y-72671162D01*
X135483116Y-72671161D01*
X135273373Y-72633800D01*
X135273367Y-72633799D01*
X135268284Y-72632894D01*
X135194452Y-72631992D01*
X135050081Y-72630228D01*
X135050079Y-72630228D01*
X135044911Y-72630165D01*
X134824091Y-72663955D01*
X134611756Y-72733357D01*
X134538757Y-72771358D01*
X134431945Y-72826961D01*
X134413607Y-72836507D01*
X134409474Y-72839610D01*
X134409471Y-72839612D01*
X134239100Y-72967530D01*
X134234965Y-72970635D01*
X134178537Y-73029684D01*
X134154283Y-73055064D01*
X134092759Y-73090494D01*
X134021846Y-73087037D01*
X133964060Y-73045791D01*
X133945207Y-73012243D01*
X133903767Y-72901703D01*
X133900615Y-72893295D01*
X133813261Y-72776739D01*
X133696705Y-72689385D01*
X133560316Y-72638255D01*
X133498134Y-72631500D01*
X131701866Y-72631500D01*
X131639684Y-72638255D01*
X131503295Y-72689385D01*
X131386739Y-72776739D01*
X131299385Y-72893295D01*
X131248255Y-73029684D01*
X131241500Y-73091866D01*
X131241500Y-74888134D01*
X120508000Y-74888134D01*
X120508000Y-72296657D01*
X144672000Y-72296657D01*
X144672301Y-72302805D01*
X144685812Y-72440603D01*
X144688195Y-72452638D01*
X144741767Y-72630076D01*
X144746441Y-72641416D01*
X144833460Y-72805077D01*
X144840249Y-72815294D01*
X144957397Y-72958933D01*
X144966041Y-72967637D01*
X145108856Y-73085784D01*
X145119027Y-73092644D01*
X145282076Y-73180804D01*
X145293381Y-73185556D01*
X145408692Y-73221250D01*
X145422795Y-73221456D01*
X145426000Y-73214701D01*
X145426000Y-73207924D01*
X145934000Y-73207924D01*
X145937973Y-73221455D01*
X145945768Y-73222575D01*
X146053521Y-73190862D01*
X146064889Y-73186269D01*
X146229154Y-73100393D01*
X146239415Y-73093679D01*
X146383873Y-72977532D01*
X146392632Y-72968954D01*
X146511778Y-72826961D01*
X146518708Y-72816841D01*
X146608002Y-72654415D01*
X146612834Y-72643142D01*
X146668880Y-72466462D01*
X146671430Y-72454468D01*
X146687607Y-72310239D01*
X146688000Y-72303215D01*
X146688000Y-72296657D01*
X153312000Y-72296657D01*
X153312301Y-72302805D01*
X153325812Y-72440603D01*
X153328195Y-72452638D01*
X153381767Y-72630076D01*
X153386441Y-72641416D01*
X153473460Y-72805077D01*
X153480249Y-72815294D01*
X153597397Y-72958933D01*
X153606041Y-72967637D01*
X153748856Y-73085784D01*
X153759027Y-73092644D01*
X153922076Y-73180804D01*
X153933381Y-73185556D01*
X154048692Y-73221250D01*
X154062795Y-73221456D01*
X154066000Y-73214701D01*
X154066000Y-73207924D01*
X154574000Y-73207924D01*
X154577973Y-73221455D01*
X154585768Y-73222575D01*
X154693521Y-73190862D01*
X154704889Y-73186269D01*
X154869154Y-73100393D01*
X154879415Y-73093679D01*
X155023873Y-72977532D01*
X155032632Y-72968954D01*
X155151778Y-72826961D01*
X155158708Y-72816841D01*
X155248002Y-72654415D01*
X155252834Y-72643142D01*
X155308880Y-72466462D01*
X155311430Y-72454468D01*
X155327607Y-72310239D01*
X155328000Y-72303215D01*
X155328000Y-72222115D01*
X155323525Y-72206876D01*
X155322135Y-72205671D01*
X155314452Y-72204000D01*
X154592115Y-72204000D01*
X154576876Y-72208475D01*
X154575671Y-72209865D01*
X154574000Y-72217548D01*
X154574000Y-73207924D01*
X154066000Y-73207924D01*
X154066000Y-72222115D01*
X154061525Y-72206876D01*
X154060135Y-72205671D01*
X154052452Y-72204000D01*
X153330115Y-72204000D01*
X153314876Y-72208475D01*
X153313671Y-72209865D01*
X153312000Y-72217548D01*
X153312000Y-72296657D01*
X146688000Y-72296657D01*
X146688000Y-72222115D01*
X146683525Y-72206876D01*
X146682135Y-72205671D01*
X146674452Y-72204000D01*
X145952115Y-72204000D01*
X145936876Y-72208475D01*
X145935671Y-72209865D01*
X145934000Y-72217548D01*
X145934000Y-73207924D01*
X145426000Y-73207924D01*
X145426000Y-72222115D01*
X145421525Y-72206876D01*
X145420135Y-72205671D01*
X145412452Y-72204000D01*
X144690115Y-72204000D01*
X144674876Y-72208475D01*
X144673671Y-72209865D01*
X144672000Y-72217548D01*
X144672000Y-72296657D01*
X120508000Y-72296657D01*
X120508000Y-71049327D01*
X120509500Y-71029943D01*
X120511805Y-71015142D01*
X120511805Y-71015138D01*
X120513186Y-71006269D01*
X120512022Y-70997367D01*
X120512022Y-70997363D01*
X120512009Y-70997267D01*
X120511738Y-70966830D01*
X120518746Y-70904625D01*
X120525025Y-70877115D01*
X120552034Y-70799929D01*
X120564276Y-70774509D01*
X120607787Y-70705262D01*
X120625379Y-70683203D01*
X120683203Y-70625379D01*
X120705262Y-70607787D01*
X120774509Y-70564276D01*
X120799930Y-70552034D01*
X120877117Y-70525025D01*
X120904624Y-70518746D01*
X120928572Y-70516048D01*
X120960256Y-70512478D01*
X120975897Y-70511695D01*
X120984855Y-70511804D01*
X120993729Y-70513186D01*
X121025251Y-70509064D01*
X121041588Y-70508000D01*
X145175657Y-70508000D01*
X145243778Y-70528002D01*
G37*
G04 #@! TD.AperFunction*
M02*
