G04 #@! TF.GenerationSoftware,KiCad,Pcbnew,(6.0.1-0)*
G04 #@! TF.CreationDate,2022-07-10T21:45:08+01:00*
G04 #@! TF.ProjectId,Spinny,5370696e-6e79-42e6-9b69-6361645f7063,rev?*
G04 #@! TF.SameCoordinates,Original*
G04 #@! TF.FileFunction,Copper,L1,Top*
G04 #@! TF.FilePolarity,Positive*
%FSLAX46Y46*%
G04 Gerber Fmt 4.6, Leading zero omitted, Abs format (unit mm)*
G04 Created by KiCad (PCBNEW (6.0.1-0)) date 2022-07-10 21:45:08*
%MOMM*%
%LPD*%
G01*
G04 APERTURE LIST*
G04 Aperture macros list*
%AMRoundRect*
0 Rectangle with rounded corners*
0 $1 Rounding radius*
0 $2 $3 $4 $5 $6 $7 $8 $9 X,Y pos of 4 corners*
0 Add a 4 corners polygon primitive as box body*
4,1,4,$2,$3,$4,$5,$6,$7,$8,$9,$2,$3,0*
0 Add four circle primitives for the rounded corners*
1,1,$1+$1,$2,$3*
1,1,$1+$1,$4,$5*
1,1,$1+$1,$6,$7*
1,1,$1+$1,$8,$9*
0 Add four rect primitives between the rounded corners*
20,1,$1+$1,$2,$3,$4,$5,0*
20,1,$1+$1,$4,$5,$6,$7,0*
20,1,$1+$1,$6,$7,$8,$9,0*
20,1,$1+$1,$8,$9,$2,$3,0*%
G04 Aperture macros list end*
G04 #@! TA.AperFunction,ComponentPad*
%ADD10R,1.508000X1.508000*%
G04 #@! TD*
G04 #@! TA.AperFunction,ComponentPad*
%ADD11C,1.508000*%
G04 #@! TD*
G04 #@! TA.AperFunction,SMDPad,CuDef*
%ADD12RoundRect,0.218750X-0.256250X0.218750X-0.256250X-0.218750X0.256250X-0.218750X0.256250X0.218750X0*%
G04 #@! TD*
G04 #@! TA.AperFunction,SMDPad,CuDef*
%ADD13RoundRect,0.135000X-0.185000X0.135000X-0.185000X-0.135000X0.185000X-0.135000X0.185000X0.135000X0*%
G04 #@! TD*
G04 #@! TA.AperFunction,SMDPad,CuDef*
%ADD14RoundRect,0.140000X-0.140000X-0.170000X0.140000X-0.170000X0.140000X0.170000X-0.140000X0.170000X0*%
G04 #@! TD*
G04 #@! TA.AperFunction,ComponentPad*
%ADD15R,1.650000X1.650000*%
G04 #@! TD*
G04 #@! TA.AperFunction,ComponentPad*
%ADD16C,1.650000*%
G04 #@! TD*
G04 #@! TA.AperFunction,ComponentPad*
%ADD17O,6.000000X3.000000*%
G04 #@! TD*
G04 #@! TA.AperFunction,SMDPad,CuDef*
%ADD18R,2.400000X2.000000*%
G04 #@! TD*
G04 #@! TA.AperFunction,SMDPad,CuDef*
%ADD19RoundRect,0.075000X0.662500X0.075000X-0.662500X0.075000X-0.662500X-0.075000X0.662500X-0.075000X0*%
G04 #@! TD*
G04 #@! TA.AperFunction,SMDPad,CuDef*
%ADD20RoundRect,0.075000X0.075000X0.662500X-0.075000X0.662500X-0.075000X-0.662500X0.075000X-0.662500X0*%
G04 #@! TD*
G04 #@! TA.AperFunction,SMDPad,CuDef*
%ADD21R,0.600000X1.450000*%
G04 #@! TD*
G04 #@! TA.AperFunction,SMDPad,CuDef*
%ADD22R,0.300000X1.450000*%
G04 #@! TD*
G04 #@! TA.AperFunction,ComponentPad*
%ADD23O,1.000000X2.100000*%
G04 #@! TD*
G04 #@! TA.AperFunction,ComponentPad*
%ADD24O,1.000000X1.600000*%
G04 #@! TD*
G04 #@! TA.AperFunction,SMDPad,CuDef*
%ADD25RoundRect,0.150000X0.150000X-0.587500X0.150000X0.587500X-0.150000X0.587500X-0.150000X-0.587500X0*%
G04 #@! TD*
G04 #@! TA.AperFunction,SMDPad,CuDef*
%ADD26RoundRect,0.140000X0.140000X0.170000X-0.140000X0.170000X-0.140000X-0.170000X0.140000X-0.170000X0*%
G04 #@! TD*
G04 #@! TA.AperFunction,SMDPad,CuDef*
%ADD27RoundRect,0.140000X-0.170000X0.140000X-0.170000X-0.140000X0.170000X-0.140000X0.170000X0.140000X0*%
G04 #@! TD*
G04 #@! TA.AperFunction,SMDPad,CuDef*
%ADD28RoundRect,0.140000X0.170000X-0.140000X0.170000X0.140000X-0.170000X0.140000X-0.170000X-0.140000X0*%
G04 #@! TD*
G04 #@! TA.AperFunction,SMDPad,CuDef*
%ADD29RoundRect,0.135000X-0.135000X-0.185000X0.135000X-0.185000X0.135000X0.185000X-0.135000X0.185000X0*%
G04 #@! TD*
G04 #@! TA.AperFunction,SMDPad,CuDef*
%ADD30RoundRect,0.225000X-0.225000X-0.250000X0.225000X-0.250000X0.225000X0.250000X-0.225000X0.250000X0*%
G04 #@! TD*
G04 #@! TA.AperFunction,SMDPad,CuDef*
%ADD31RoundRect,0.135000X0.185000X-0.135000X0.185000X0.135000X-0.185000X0.135000X-0.185000X-0.135000X0*%
G04 #@! TD*
G04 #@! TA.AperFunction,SMDPad,CuDef*
%ADD32RoundRect,0.150000X-0.512500X-0.150000X0.512500X-0.150000X0.512500X0.150000X-0.512500X0.150000X0*%
G04 #@! TD*
G04 #@! TA.AperFunction,ComponentPad*
%ADD33R,1.700000X1.700000*%
G04 #@! TD*
G04 #@! TA.AperFunction,ComponentPad*
%ADD34O,1.700000X1.700000*%
G04 #@! TD*
G04 #@! TA.AperFunction,SMDPad,CuDef*
%ADD35RoundRect,0.187500X0.187500X-0.312500X0.187500X0.312500X-0.187500X0.312500X-0.187500X-0.312500X0*%
G04 #@! TD*
G04 #@! TA.AperFunction,ViaPad*
%ADD36C,0.700000*%
G04 #@! TD*
G04 #@! TA.AperFunction,Conductor*
%ADD37C,0.500000*%
G04 #@! TD*
G04 #@! TA.AperFunction,Conductor*
%ADD38C,0.300000*%
G04 #@! TD*
G04 #@! TA.AperFunction,Conductor*
%ADD39C,0.250000*%
G04 #@! TD*
G04 APERTURE END LIST*
D10*
X135250000Y-102250000D03*
D11*
X135250000Y-97750000D03*
X128750000Y-102250000D03*
X128750000Y-97750000D03*
D12*
X160950000Y-74877500D03*
X160950000Y-76452500D03*
D11*
X135250000Y-115750000D03*
D10*
X135250000Y-120250000D03*
D11*
X128750000Y-120250000D03*
X128750000Y-115750000D03*
D13*
X167850000Y-93940000D03*
X167850000Y-94960000D03*
D14*
X161050000Y-80600000D03*
X162010000Y-80600000D03*
X167370000Y-80450000D03*
X168330000Y-80450000D03*
D15*
X143000000Y-102500000D03*
D16*
X143000000Y-97500000D03*
X157500000Y-102500000D03*
X157500000Y-97500000D03*
X157500000Y-100000000D03*
D17*
X150000000Y-105700000D03*
X150000000Y-94300000D03*
D18*
X175950000Y-89100000D03*
X175950000Y-85400000D03*
D11*
X135250000Y-79750000D03*
D10*
X135250000Y-84250000D03*
D11*
X128750000Y-79750000D03*
X128750000Y-84250000D03*
D19*
X168162500Y-89200000D03*
X168162500Y-88700000D03*
X168162500Y-88200000D03*
X168162500Y-87700000D03*
X168162500Y-87200000D03*
X168162500Y-86700000D03*
X168162500Y-86200000D03*
X168162500Y-85700000D03*
X168162500Y-85200000D03*
X168162500Y-84700000D03*
X168162500Y-84200000D03*
X168162500Y-83700000D03*
D20*
X166750000Y-82287500D03*
X166250000Y-82287500D03*
X165750000Y-82287500D03*
X165250000Y-82287500D03*
X164750000Y-82287500D03*
X164250000Y-82287500D03*
X163750000Y-82287500D03*
X163250000Y-82287500D03*
X162750000Y-82287500D03*
X162250000Y-82287500D03*
X161750000Y-82287500D03*
X161250000Y-82287500D03*
D19*
X159837500Y-83700000D03*
X159837500Y-84200000D03*
X159837500Y-84700000D03*
X159837500Y-85200000D03*
X159837500Y-85700000D03*
X159837500Y-86200000D03*
X159837500Y-86700000D03*
X159837500Y-87200000D03*
X159837500Y-87700000D03*
X159837500Y-88200000D03*
X159837500Y-88700000D03*
X159837500Y-89200000D03*
D20*
X161250000Y-90612500D03*
X161750000Y-90612500D03*
X162250000Y-90612500D03*
X162750000Y-90612500D03*
X163250000Y-90612500D03*
X163750000Y-90612500D03*
X164250000Y-90612500D03*
X164750000Y-90612500D03*
X165250000Y-90612500D03*
X165750000Y-90612500D03*
X166250000Y-90612500D03*
X166750000Y-90612500D03*
D21*
X153250000Y-77045000D03*
X152450000Y-77045000D03*
D22*
X151250000Y-77045000D03*
X150250000Y-77045000D03*
X149750000Y-77045000D03*
X148750000Y-77045000D03*
D21*
X147550000Y-77045000D03*
X146750000Y-77045000D03*
X146750000Y-77045000D03*
X147550000Y-77045000D03*
D22*
X148250000Y-77045000D03*
X149250000Y-77045000D03*
X150750000Y-77045000D03*
X151750000Y-77045000D03*
D21*
X152450000Y-77045000D03*
X153250000Y-77045000D03*
D23*
X154320000Y-76130000D03*
X145680000Y-76130000D03*
D24*
X145680000Y-71950000D03*
X154320000Y-71950000D03*
D25*
X146600000Y-81800000D03*
X148500000Y-81800000D03*
X147550000Y-79925000D03*
D26*
X167180000Y-92300000D03*
X166220000Y-92300000D03*
D13*
X164850000Y-74840000D03*
X164850000Y-75860000D03*
D14*
X169200000Y-90400000D03*
X170160000Y-90400000D03*
D12*
X163150000Y-74840000D03*
X163150000Y-76415000D03*
D27*
X171150000Y-84600000D03*
X171150000Y-85560000D03*
X172950000Y-88350000D03*
X172950000Y-89310000D03*
X145100000Y-79840000D03*
X145100000Y-80800000D03*
D13*
X156050000Y-74590000D03*
X156050000Y-75610000D03*
X159000000Y-74850000D03*
X159000000Y-75870000D03*
D28*
X172950000Y-86186000D03*
X172950000Y-85226000D03*
D29*
X153790000Y-85070000D03*
X154810000Y-85070000D03*
D30*
X169000000Y-92300000D03*
X170550000Y-92300000D03*
D31*
X143950000Y-75720000D03*
X143950000Y-74700000D03*
D28*
X158150000Y-89850000D03*
X158150000Y-88890000D03*
D32*
X152212500Y-79750000D03*
X152212500Y-80700000D03*
X152212500Y-81650000D03*
X154487500Y-81650000D03*
X154487500Y-80700000D03*
X154487500Y-79750000D03*
D27*
X169900000Y-84600000D03*
X169900000Y-85560000D03*
D33*
X132600000Y-73990000D03*
D34*
X135140000Y-73990000D03*
X137680000Y-73990000D03*
X140220000Y-73990000D03*
D26*
X148060000Y-83400000D03*
X147100000Y-83400000D03*
D10*
X153250000Y-120250000D03*
D11*
X153250000Y-115750000D03*
X146750000Y-115750000D03*
X146750000Y-120250000D03*
D35*
X167375000Y-78800000D03*
X171125000Y-78800000D03*
X171125000Y-72800000D03*
X167375000Y-72800000D03*
D36*
X148400000Y-78550000D03*
X152450000Y-78550000D03*
X172950000Y-84350000D03*
X166130000Y-89400000D03*
X166910560Y-85481304D03*
X172950000Y-90200000D03*
X150980628Y-79919872D03*
X165750000Y-75850000D03*
X168300000Y-81500000D03*
X166999500Y-94950000D03*
X171700000Y-92300000D03*
X146250000Y-83400000D03*
X145500000Y-81650000D03*
X172400000Y-72800000D03*
X144200000Y-80850000D03*
X158000000Y-75850000D03*
X145500000Y-82450000D03*
X161100000Y-88700000D03*
X162031166Y-83566561D03*
X154900000Y-89000000D03*
X154900000Y-87080000D03*
X163150000Y-77600000D03*
X159900000Y-79650000D03*
D37*
X155599520Y-80400480D02*
X155300000Y-80700000D01*
X147550000Y-78550000D02*
X147550000Y-79925000D01*
X152450000Y-78550000D02*
X154797849Y-78550000D01*
X147550000Y-77045000D02*
X147550000Y-78550000D01*
X147550000Y-78550000D02*
X148400000Y-78550000D01*
X155599520Y-79351671D02*
X155599520Y-80400480D01*
X155300000Y-80700000D02*
X154487500Y-80700000D01*
X145100000Y-79840000D02*
X147465000Y-79840000D01*
X154797849Y-78550000D02*
X155599520Y-79351671D01*
X147465000Y-79840000D02*
X147550000Y-79925000D01*
X152450000Y-78550000D02*
X152450000Y-77045000D01*
D38*
X159837500Y-88700000D02*
X161100000Y-88700000D01*
X166250000Y-90612500D02*
X166250000Y-92270000D01*
X164850000Y-75860000D02*
X165740000Y-75860000D01*
X167129256Y-85700000D02*
X166910560Y-85481304D01*
X170160000Y-90400000D02*
X170200000Y-90400000D01*
X169760000Y-85700000D02*
X168162500Y-85700000D01*
X167850000Y-94960000D02*
X167009500Y-94960000D01*
X153405000Y-77045000D02*
X154320000Y-76130000D01*
X169900000Y-85560000D02*
X171150000Y-85560000D01*
X167375000Y-72800000D02*
X171125000Y-72800000D01*
X172950000Y-89310000D02*
X172950000Y-90200000D01*
X170550000Y-90750000D02*
X170550000Y-92300000D01*
X165740000Y-75860000D02*
X165750000Y-75850000D01*
X170200000Y-90400000D02*
X170550000Y-90750000D01*
D39*
X143950000Y-75720000D02*
X145270000Y-75720000D01*
D38*
X167009500Y-94960000D02*
X166999500Y-94950000D01*
X146750000Y-77045000D02*
X146595000Y-77045000D01*
X172400000Y-72800000D02*
X171125000Y-72800000D01*
X159000000Y-75870000D02*
X158020000Y-75870000D01*
X161750000Y-82300000D02*
X161750000Y-81400000D01*
X172950000Y-85226000D02*
X172950000Y-84150000D01*
X158340000Y-88700000D02*
X158150000Y-88890000D01*
X161750000Y-81400000D02*
X162010000Y-81140000D01*
X168162500Y-85700000D02*
X167129256Y-85700000D01*
X158020000Y-75870000D02*
X158000000Y-75850000D01*
X169900000Y-85560000D02*
X169760000Y-85700000D01*
X170550000Y-92300000D02*
X171700000Y-92300000D01*
X168330000Y-80450000D02*
X168330000Y-81470000D01*
D39*
X154840000Y-75610000D02*
X154320000Y-76130000D01*
D38*
X161750000Y-83285395D02*
X162031166Y-83566561D01*
D39*
X145270000Y-75720000D02*
X145680000Y-76130000D01*
D38*
X166250000Y-90612500D02*
X166250000Y-89400000D01*
X166250000Y-92270000D02*
X166220000Y-92300000D01*
X161750000Y-82287500D02*
X161750000Y-83285395D01*
X159837500Y-88700000D02*
X158340000Y-88700000D01*
X153250000Y-77045000D02*
X153405000Y-77045000D01*
X162010000Y-81140000D02*
X162010000Y-80600000D01*
D39*
X156050000Y-75610000D02*
X154840000Y-75610000D01*
D38*
X151760756Y-80700000D02*
X152212500Y-80700000D01*
X150980628Y-79919872D02*
X151760756Y-80700000D01*
X168330000Y-81470000D02*
X168300000Y-81500000D01*
X146595000Y-77045000D02*
X145680000Y-76130000D01*
D37*
X160950000Y-76452500D02*
X160952500Y-76452500D01*
D38*
X168162500Y-85200000D02*
X169000361Y-85200000D01*
D37*
X157100000Y-74100000D02*
X156600000Y-73600000D01*
X146750000Y-85990000D02*
X146750000Y-85980000D01*
X142640000Y-74040000D02*
X142640000Y-72090000D01*
D38*
X169900000Y-84600000D02*
X171150000Y-84600000D01*
D37*
X161050000Y-80600000D02*
X161050000Y-78750000D01*
X171569320Y-84600000D02*
X175500000Y-80669320D01*
X164500000Y-78750000D02*
X161050000Y-78750000D01*
X167180000Y-92970000D02*
X167180000Y-92300000D01*
X166200000Y-95450000D02*
X166900000Y-96150000D01*
X178200000Y-83350000D02*
X178200000Y-91740000D01*
D38*
X166750000Y-90612500D02*
X166750000Y-91300000D01*
D37*
X166900000Y-96150000D02*
X169000000Y-96150000D01*
D38*
X168162500Y-89200000D02*
X169000000Y-89200000D01*
D37*
X156600000Y-73600000D02*
X142720000Y-73600000D01*
D38*
X161050000Y-80600000D02*
X161050000Y-81250000D01*
D37*
X148060000Y-84670000D02*
X148060000Y-83400000D01*
X153680000Y-87080000D02*
X154900000Y-87080000D01*
D38*
X153790000Y-85070000D02*
X153790000Y-86970000D01*
D37*
X157100000Y-77100000D02*
X157100000Y-74100000D01*
D38*
X153790000Y-86970000D02*
X153680000Y-87080000D01*
X158550000Y-89850000D02*
X158150000Y-89850000D01*
D37*
X166200000Y-93950000D02*
X166200000Y-95450000D01*
D38*
X167180000Y-91730000D02*
X167180000Y-92300000D01*
D37*
X142640000Y-81890000D02*
X147830000Y-87080000D01*
X132600000Y-72350000D02*
X132600000Y-74100000D01*
X169000000Y-96150000D02*
X173790000Y-96150000D01*
D38*
X169600361Y-84600000D02*
X169900000Y-84600000D01*
D37*
X154900000Y-89000000D02*
X156000000Y-89000000D01*
X161050000Y-78750000D02*
X161050000Y-76552500D01*
X175500000Y-80650000D02*
X178200000Y-83350000D01*
X147830000Y-87080000D02*
X153680000Y-87080000D01*
X156000000Y-89000000D02*
X156850000Y-89850000D01*
X142640000Y-74060000D02*
X142640000Y-81890000D01*
X171569320Y-84600000D02*
X171150000Y-84600000D01*
X146750000Y-85980000D02*
X148060000Y-84670000D01*
X175500000Y-80650000D02*
X172550000Y-77700000D01*
X169000000Y-92300000D02*
X169000000Y-96150000D01*
X165550000Y-77700000D02*
X164500000Y-78750000D01*
X161050000Y-78750000D02*
X158750000Y-78750000D01*
X156850000Y-89850000D02*
X158150000Y-89850000D01*
X133360000Y-71590000D02*
X132600000Y-72350000D01*
D38*
X159837500Y-89212500D02*
X159187500Y-89212500D01*
X161050000Y-81250000D02*
X161250000Y-81450000D01*
X166750000Y-91300000D02*
X167180000Y-91730000D01*
D37*
X169000000Y-92300000D02*
X169000000Y-90600000D01*
X161050000Y-76552500D02*
X160950000Y-76452500D01*
X175500000Y-80669320D02*
X175500000Y-80650000D01*
X142140000Y-71590000D02*
X133360000Y-71590000D01*
D38*
X169000361Y-85200000D02*
X169600361Y-84600000D01*
D37*
X173790000Y-96150000D02*
X178200000Y-91740000D01*
X166200000Y-93950000D02*
X167180000Y-92970000D01*
D38*
X161250000Y-81450000D02*
X161250000Y-82300000D01*
X159187500Y-89212500D02*
X158550000Y-89850000D01*
X169000000Y-89200000D02*
X169200000Y-89400000D01*
D37*
X158750000Y-78750000D02*
X157100000Y-77100000D01*
X169000000Y-90600000D02*
X169200000Y-90400000D01*
X142640000Y-72090000D02*
X142140000Y-71590000D01*
X172550000Y-77700000D02*
X165550000Y-77700000D01*
D38*
X169200000Y-89400000D02*
X169200000Y-90400000D01*
X175200000Y-88350000D02*
X175950000Y-89100000D01*
X170500000Y-88350000D02*
X172950000Y-88350000D01*
X169350000Y-87200000D02*
X170500000Y-88350000D01*
X172950000Y-88350000D02*
X175200000Y-88350000D01*
X168162500Y-87200000D02*
X169350000Y-87200000D01*
X169350000Y-86700000D02*
X169850480Y-86199520D01*
X168162500Y-86700000D02*
X169350000Y-86700000D01*
X172936480Y-86199520D02*
X172950000Y-86186000D01*
X169850480Y-86199520D02*
X172936480Y-86199520D01*
X175164000Y-86186000D02*
X175950000Y-85400000D01*
X172950000Y-86186000D02*
X175164000Y-86186000D01*
X167370000Y-83154639D02*
X167370000Y-80450000D01*
X166211049Y-85771052D02*
X166211049Y-84313590D01*
X167375000Y-80405000D02*
X167330000Y-80450000D01*
X166211049Y-84313590D02*
X167370000Y-83154639D01*
X166639997Y-86200000D02*
X166211049Y-85771052D01*
X168162500Y-86200000D02*
X166639997Y-86200000D01*
X167375000Y-78800000D02*
X167375000Y-80405000D01*
X171125000Y-78800000D02*
X167375000Y-78800000D01*
X159000000Y-74850000D02*
X160772500Y-74850000D01*
X160772500Y-74850000D02*
X160800000Y-74877500D01*
X164850000Y-74840000D02*
X163150000Y-74840000D01*
X165600000Y-87000000D02*
X167300000Y-88700000D01*
X167300000Y-88700000D02*
X168162500Y-88700000D01*
X159900000Y-79650000D02*
X159900000Y-82424639D01*
X163150000Y-76415000D02*
X163150000Y-77600000D01*
X164475361Y-87000000D02*
X165600000Y-87000000D01*
X159900000Y-82424639D02*
X164475361Y-87000000D01*
X152410000Y-74590000D02*
X156050000Y-74590000D01*
X151250000Y-77045000D02*
X151250000Y-75750000D01*
X151250000Y-75750000D02*
X152410000Y-74590000D01*
X157760000Y-87700000D02*
X150250000Y-80190000D01*
X150250000Y-77045000D02*
X150250000Y-78150000D01*
X149250000Y-78119022D02*
X149280978Y-78150000D01*
X149250000Y-77045000D02*
X149250000Y-78119022D01*
X150250000Y-80190000D02*
X150250000Y-78150000D01*
X149280978Y-78150000D02*
X150250000Y-78150000D01*
X159837500Y-87700000D02*
X157760000Y-87700000D01*
X149950000Y-75950000D02*
X149750000Y-76150000D01*
X149750000Y-76150000D02*
X149750000Y-77045000D01*
X151800000Y-79750000D02*
X150750000Y-78700000D01*
X157999520Y-87199520D02*
X153250000Y-82450000D01*
X150750000Y-78700000D02*
X150750000Y-77045000D01*
X150750000Y-77045000D02*
X150750000Y-76150000D01*
X153250000Y-80368573D02*
X152631427Y-79750000D01*
X150750000Y-76150000D02*
X150550000Y-75950000D01*
X159837500Y-87199520D02*
X157999520Y-87199520D01*
X153250000Y-82450000D02*
X153250000Y-80368573D01*
X159837500Y-87200000D02*
X159837500Y-87199520D01*
X152212500Y-79750000D02*
X151800000Y-79750000D01*
X150550000Y-75950000D02*
X149950000Y-75950000D01*
X152631427Y-79750000D02*
X152212500Y-79750000D01*
X148250000Y-75602234D02*
X147347766Y-74700000D01*
X147347766Y-74700000D02*
X143950000Y-74700000D01*
X148250000Y-77045000D02*
X148250000Y-75602234D01*
X160650000Y-89700000D02*
X159550000Y-90800000D01*
X155050000Y-89900000D02*
X145630000Y-89900000D01*
X161250000Y-89850000D02*
X161100000Y-89700000D01*
X136860000Y-81130000D02*
X136860000Y-75710000D01*
X136860000Y-75710000D02*
X135140000Y-73990000D01*
X161250000Y-90625000D02*
X161250000Y-89850000D01*
X155950000Y-90800000D02*
X155050000Y-89900000D01*
X145630000Y-89900000D02*
X136860000Y-81130000D01*
X161100000Y-89700000D02*
X160650000Y-89700000D01*
X159550000Y-90800000D02*
X155950000Y-90800000D01*
X138720000Y-75030000D02*
X137680000Y-73990000D01*
X146650000Y-88200000D02*
X138720000Y-80270000D01*
X159837500Y-88200000D02*
X146650000Y-88200000D01*
X138720000Y-80270000D02*
X138720000Y-75030000D01*
X164750000Y-89710000D02*
X164750000Y-90612500D01*
X165759511Y-88700489D02*
X164750000Y-89710000D01*
X166419748Y-88700489D02*
X165759511Y-88700489D01*
X167000841Y-89525480D02*
X167000841Y-89281582D01*
X167850000Y-90374639D02*
X167000841Y-89525480D01*
X167000841Y-89281582D02*
X166419748Y-88700489D01*
X167850000Y-93940000D02*
X167850000Y-90374639D01*
X165750000Y-91760978D02*
X165590480Y-91920498D01*
X165590480Y-91920498D02*
X165590480Y-94409520D01*
X165590480Y-94409520D02*
X157500000Y-102500000D01*
X165750000Y-90625000D02*
X165750000Y-91760978D01*
X165250000Y-91554550D02*
X164900000Y-91904550D01*
X164900000Y-93780000D02*
X161180000Y-97500000D01*
X165250000Y-90625000D02*
X165250000Y-91554550D01*
X161180000Y-97500000D02*
X157500000Y-97500000D01*
X164900000Y-91904550D02*
X164900000Y-93780000D01*
X154806431Y-91856431D02*
X153870000Y-90920000D01*
X162250000Y-90625000D02*
X162250000Y-91462861D01*
X135250000Y-84250000D02*
X135250000Y-79750000D01*
X161856431Y-91856431D02*
X154806431Y-91856431D01*
X141920000Y-90920000D02*
X135250000Y-84250000D01*
X153870000Y-90920000D02*
X141920000Y-90920000D01*
X162250000Y-91462861D02*
X161856431Y-91856431D01*
X135250000Y-97750000D02*
X141000000Y-92000000D01*
X161500000Y-92950000D02*
X162750480Y-91699520D01*
X141000000Y-92000000D02*
X152700000Y-92000000D01*
X153650000Y-92950000D02*
X161500000Y-92950000D01*
X135250000Y-97750000D02*
X135250000Y-102250000D01*
X152700000Y-92000000D02*
X153650000Y-92950000D01*
X162750480Y-91699520D02*
X162750480Y-91200000D01*
X135250000Y-115750000D02*
X135250000Y-120250000D01*
X163750000Y-92690000D02*
X163750000Y-90625000D01*
X156128572Y-94981428D02*
X161458572Y-94981428D01*
X135360000Y-115750000D02*
X156128572Y-94981428D01*
X135250000Y-115750000D02*
X135360000Y-115750000D01*
X161458572Y-94981428D02*
X163750000Y-92690000D01*
X153250000Y-115750000D02*
X155890000Y-113110000D01*
X164250000Y-93310000D02*
X164250000Y-90625000D01*
X161620000Y-95940000D02*
X164250000Y-93310000D01*
X156870000Y-95940000D02*
X161620000Y-95940000D01*
X153250000Y-115750000D02*
X153250000Y-120250000D01*
X155890000Y-113110000D02*
X155890000Y-96920000D01*
X155890000Y-96920000D02*
X156870000Y-95940000D01*
X161441786Y-93978214D02*
X155471786Y-93978214D01*
X163250480Y-92169520D02*
X161441786Y-93978214D01*
X151950000Y-97500000D02*
X143000000Y-97500000D01*
X155471786Y-93978214D02*
X151950000Y-97500000D01*
X163250480Y-91100000D02*
X163250480Y-92169520D01*
G04 #@! TA.AperFunction,Conductor*
G36*
X146642121Y-80470002D02*
G01*
X146688614Y-80523658D01*
X146700000Y-80576000D01*
X146700000Y-80900000D01*
X146734507Y-80929906D01*
X146739612Y-80934330D01*
X147405257Y-81511223D01*
X147423594Y-81530918D01*
X147424527Y-81532164D01*
X147446791Y-81580910D01*
X147447122Y-81582432D01*
X147450000Y-81609208D01*
X147450000Y-83924000D01*
X147429998Y-83992121D01*
X147376342Y-84038614D01*
X147324000Y-84050000D01*
X146353831Y-84050000D01*
X146329277Y-84047584D01*
X146327762Y-84047283D01*
X146282311Y-84028462D01*
X146281024Y-84027602D01*
X146261934Y-84011934D01*
X143738066Y-81488066D01*
X143722398Y-81468976D01*
X143721538Y-81467689D01*
X143702717Y-81422238D01*
X143702416Y-81420723D01*
X143700000Y-81396169D01*
X143700000Y-80576000D01*
X143720002Y-80507879D01*
X143773658Y-80461386D01*
X143826000Y-80450000D01*
X146574000Y-80450000D01*
X146642121Y-80470002D01*
G37*
G04 #@! TD.AperFunction*
G04 #@! TA.AperFunction,Conductor*
G36*
X148892121Y-81020002D02*
G01*
X148938614Y-81073658D01*
X148950000Y-81126000D01*
X148950000Y-83246169D01*
X148947584Y-83270723D01*
X148947283Y-83272238D01*
X148928462Y-83317689D01*
X148927602Y-83318976D01*
X148911934Y-83338066D01*
X148438066Y-83811934D01*
X148418976Y-83827602D01*
X148417689Y-83828462D01*
X148372238Y-83847283D01*
X148370723Y-83847584D01*
X148346169Y-83850000D01*
X147826000Y-83850000D01*
X147757879Y-83829998D01*
X147711386Y-83776342D01*
X147700000Y-83724000D01*
X147700000Y-81553831D01*
X147702416Y-81529277D01*
X147702717Y-81527762D01*
X147721538Y-81482311D01*
X147722398Y-81481024D01*
X147738066Y-81461934D01*
X148161934Y-81038066D01*
X148181024Y-81022398D01*
X148182311Y-81021538D01*
X148227762Y-81002717D01*
X148229277Y-81002416D01*
X148253831Y-81000000D01*
X148824000Y-81000000D01*
X148892121Y-81020002D01*
G37*
G04 #@! TD.AperFunction*
G04 #@! TA.AperFunction,Conductor*
G36*
X147792121Y-77670002D02*
G01*
X147838614Y-77723658D01*
X147850000Y-77776000D01*
X147850000Y-78100000D01*
X148774000Y-78100000D01*
X148842121Y-78120002D01*
X148888614Y-78173658D01*
X148900000Y-78226000D01*
X148900000Y-79846169D01*
X148897584Y-79870723D01*
X148897283Y-79872238D01*
X148878462Y-79917689D01*
X148877602Y-79918976D01*
X148861934Y-79938066D01*
X148038066Y-80761934D01*
X148018976Y-80777602D01*
X148017689Y-80778462D01*
X147972238Y-80797283D01*
X147970723Y-80797584D01*
X147946169Y-80800000D01*
X147276000Y-80800000D01*
X147207879Y-80779998D01*
X147161386Y-80726342D01*
X147150000Y-80674000D01*
X147150000Y-80150000D01*
X144726000Y-80150000D01*
X144657879Y-80129998D01*
X144611386Y-80076342D01*
X144600000Y-80024000D01*
X144600000Y-79476000D01*
X144620002Y-79407879D01*
X144673658Y-79361386D01*
X144726000Y-79350000D01*
X146900000Y-79350000D01*
X147250000Y-79000000D01*
X147250000Y-77794826D01*
X147250167Y-77791422D01*
X147250500Y-77789748D01*
X147250500Y-77776000D01*
X147270502Y-77707879D01*
X147324158Y-77661386D01*
X147376500Y-77650000D01*
X147724000Y-77650000D01*
X147792121Y-77670002D01*
G37*
G04 #@! TD.AperFunction*
M02*
