G04 #@! TF.GenerationSoftware,KiCad,Pcbnew,(6.0.1-0)*
G04 #@! TF.CreationDate,2022-07-10T21:45:08+01:00*
G04 #@! TF.ProjectId,Spinny,5370696e-6e79-42e6-9b69-6361645f7063,rev?*
G04 #@! TF.SameCoordinates,Original*
G04 #@! TF.FileFunction,Legend,Top*
G04 #@! TF.FilePolarity,Positive*
%FSLAX46Y46*%
G04 Gerber Fmt 4.6, Leading zero omitted, Abs format (unit mm)*
G04 Created by KiCad (PCBNEW (6.0.1-0)) date 2022-07-10 21:45:08*
%MOMM*%
%LPD*%
G01*
G04 APERTURE LIST*
G04 Aperture macros list*
%AMRoundRect*
0 Rectangle with rounded corners*
0 $1 Rounding radius*
0 $2 $3 $4 $5 $6 $7 $8 $9 X,Y pos of 4 corners*
0 Add a 4 corners polygon primitive as box body*
4,1,4,$2,$3,$4,$5,$6,$7,$8,$9,$2,$3,0*
0 Add four circle primitives for the rounded corners*
1,1,$1+$1,$2,$3*
1,1,$1+$1,$4,$5*
1,1,$1+$1,$6,$7*
1,1,$1+$1,$8,$9*
0 Add four rect primitives between the rounded corners*
20,1,$1+$1,$2,$3,$4,$5,0*
20,1,$1+$1,$4,$5,$6,$7,0*
20,1,$1+$1,$6,$7,$8,$9,0*
20,1,$1+$1,$8,$9,$2,$3,0*%
G04 Aperture macros list end*
%ADD10C,0.150000*%
%ADD11C,0.127000*%
%ADD12C,0.200000*%
%ADD13C,0.120000*%
%ADD14R,1.508000X1.508000*%
%ADD15C,1.508000*%
%ADD16RoundRect,0.218750X-0.256250X0.218750X-0.256250X-0.218750X0.256250X-0.218750X0.256250X0.218750X0*%
%ADD17C,3.200000*%
%ADD18RoundRect,0.135000X-0.185000X0.135000X-0.185000X-0.135000X0.185000X-0.135000X0.185000X0.135000X0*%
%ADD19RoundRect,0.140000X-0.140000X-0.170000X0.140000X-0.170000X0.140000X0.170000X-0.140000X0.170000X0*%
%ADD20R,1.650000X1.650000*%
%ADD21C,1.650000*%
%ADD22O,6.000000X3.000000*%
%ADD23R,2.400000X2.000000*%
%ADD24RoundRect,0.075000X0.662500X0.075000X-0.662500X0.075000X-0.662500X-0.075000X0.662500X-0.075000X0*%
%ADD25RoundRect,0.075000X0.075000X0.662500X-0.075000X0.662500X-0.075000X-0.662500X0.075000X-0.662500X0*%
%ADD26C,0.650000*%
%ADD27R,0.600000X1.450000*%
%ADD28R,0.300000X1.450000*%
%ADD29O,1.000000X2.100000*%
%ADD30O,1.000000X1.600000*%
%ADD31RoundRect,0.150000X0.150000X-0.587500X0.150000X0.587500X-0.150000X0.587500X-0.150000X-0.587500X0*%
%ADD32RoundRect,0.140000X0.140000X0.170000X-0.140000X0.170000X-0.140000X-0.170000X0.140000X-0.170000X0*%
%ADD33RoundRect,0.140000X-0.170000X0.140000X-0.170000X-0.140000X0.170000X-0.140000X0.170000X0.140000X0*%
%ADD34RoundRect,0.140000X0.170000X-0.140000X0.170000X0.140000X-0.170000X0.140000X-0.170000X-0.140000X0*%
%ADD35RoundRect,0.135000X-0.135000X-0.185000X0.135000X-0.185000X0.135000X0.185000X-0.135000X0.185000X0*%
%ADD36RoundRect,0.225000X-0.225000X-0.250000X0.225000X-0.250000X0.225000X0.250000X-0.225000X0.250000X0*%
%ADD37RoundRect,0.135000X0.185000X-0.135000X0.185000X0.135000X-0.185000X0.135000X-0.185000X-0.135000X0*%
%ADD38RoundRect,0.150000X-0.512500X-0.150000X0.512500X-0.150000X0.512500X0.150000X-0.512500X0.150000X0*%
%ADD39R,1.700000X1.700000*%
%ADD40O,1.700000X1.700000*%
%ADD41RoundRect,0.187500X0.187500X-0.312500X0.187500X0.312500X-0.187500X0.312500X-0.187500X-0.312500X0*%
G04 APERTURE END LIST*
D10*
X135072857Y-71874761D02*
X135215714Y-71922380D01*
X135453809Y-71922380D01*
X135549047Y-71874761D01*
X135596666Y-71827142D01*
X135644285Y-71731904D01*
X135644285Y-71636666D01*
X135596666Y-71541428D01*
X135549047Y-71493809D01*
X135453809Y-71446190D01*
X135263333Y-71398571D01*
X135168095Y-71350952D01*
X135120476Y-71303333D01*
X135072857Y-71208095D01*
X135072857Y-71112857D01*
X135120476Y-71017619D01*
X135168095Y-70970000D01*
X135263333Y-70922380D01*
X135501428Y-70922380D01*
X135644285Y-70970000D01*
X135977619Y-70922380D02*
X136215714Y-71922380D01*
X136406190Y-71208095D01*
X136596666Y-71922380D01*
X136834761Y-70922380D01*
X137215714Y-71922380D02*
X137215714Y-70922380D01*
X137453809Y-70922380D01*
X137596666Y-70970000D01*
X137691904Y-71065238D01*
X137739523Y-71160476D01*
X137787142Y-71350952D01*
X137787142Y-71493809D01*
X137739523Y-71684285D01*
X137691904Y-71779523D01*
X137596666Y-71874761D01*
X137453809Y-71922380D01*
X137215714Y-71922380D01*
X139730000Y-77671904D02*
X139682380Y-77767142D01*
X139682380Y-77910000D01*
X139730000Y-78052857D01*
X139825238Y-78148095D01*
X139920476Y-78195714D01*
X140110952Y-78243333D01*
X140253809Y-78243333D01*
X140444285Y-78195714D01*
X140539523Y-78148095D01*
X140634761Y-78052857D01*
X140682380Y-77910000D01*
X140682380Y-77814761D01*
X140634761Y-77671904D01*
X140587142Y-77624285D01*
X140253809Y-77624285D01*
X140253809Y-77814761D01*
X140682380Y-77195714D02*
X139682380Y-77195714D01*
X140682380Y-76624285D01*
X139682380Y-76624285D01*
X140682380Y-76148095D02*
X139682380Y-76148095D01*
X139682380Y-75910000D01*
X139730000Y-75767142D01*
X139825238Y-75671904D01*
X139920476Y-75624285D01*
X140110952Y-75576666D01*
X140253809Y-75576666D01*
X140444285Y-75624285D01*
X140539523Y-75671904D01*
X140634761Y-75767142D01*
X140682380Y-75910000D01*
X140682380Y-76148095D01*
X132052380Y-78178095D02*
X132052380Y-77559047D01*
X132433333Y-77892380D01*
X132433333Y-77749523D01*
X132480952Y-77654285D01*
X132528571Y-77606666D01*
X132623809Y-77559047D01*
X132861904Y-77559047D01*
X132957142Y-77606666D01*
X133004761Y-77654285D01*
X133052380Y-77749523D01*
X133052380Y-78035238D01*
X133004761Y-78130476D01*
X132957142Y-78178095D01*
X132052380Y-77273333D02*
X133052380Y-76940000D01*
X132052380Y-76606666D01*
X132052380Y-76368571D02*
X132052380Y-75749523D01*
X132433333Y-76082857D01*
X132433333Y-75940000D01*
X132480952Y-75844761D01*
X132528571Y-75797142D01*
X132623809Y-75749523D01*
X132861904Y-75749523D01*
X132957142Y-75797142D01*
X133004761Y-75844761D01*
X133052380Y-75940000D01*
X133052380Y-76225714D01*
X133004761Y-76320952D01*
X132957142Y-76368571D01*
X135564761Y-78225714D02*
X135612380Y-78082857D01*
X135612380Y-77844761D01*
X135564761Y-77749523D01*
X135517142Y-77701904D01*
X135421904Y-77654285D01*
X135326666Y-77654285D01*
X135231428Y-77701904D01*
X135183809Y-77749523D01*
X135136190Y-77844761D01*
X135088571Y-78035238D01*
X135040952Y-78130476D01*
X134993333Y-78178095D01*
X134898095Y-78225714D01*
X134802857Y-78225714D01*
X134707619Y-78178095D01*
X134660000Y-78130476D01*
X134612380Y-78035238D01*
X134612380Y-77797142D01*
X134660000Y-77654285D01*
X135517142Y-76654285D02*
X135564761Y-76701904D01*
X135612380Y-76844761D01*
X135612380Y-76940000D01*
X135564761Y-77082857D01*
X135469523Y-77178095D01*
X135374285Y-77225714D01*
X135183809Y-77273333D01*
X135040952Y-77273333D01*
X134850476Y-77225714D01*
X134755238Y-77178095D01*
X134660000Y-77082857D01*
X134612380Y-76940000D01*
X134612380Y-76844761D01*
X134660000Y-76701904D01*
X134707619Y-76654285D01*
X135612380Y-76225714D02*
X134612380Y-76225714D01*
X135612380Y-75654285D02*
X135040952Y-76082857D01*
X134612380Y-75654285D02*
X135183809Y-76225714D01*
X138094761Y-78249523D02*
X138142380Y-78106666D01*
X138142380Y-77868571D01*
X138094761Y-77773333D01*
X138047142Y-77725714D01*
X137951904Y-77678095D01*
X137856666Y-77678095D01*
X137761428Y-77725714D01*
X137713809Y-77773333D01*
X137666190Y-77868571D01*
X137618571Y-78059047D01*
X137570952Y-78154285D01*
X137523333Y-78201904D01*
X137428095Y-78249523D01*
X137332857Y-78249523D01*
X137237619Y-78201904D01*
X137190000Y-78154285D01*
X137142380Y-78059047D01*
X137142380Y-77820952D01*
X137190000Y-77678095D01*
X138142380Y-77249523D02*
X137142380Y-77249523D01*
X137142380Y-77011428D01*
X137190000Y-76868571D01*
X137285238Y-76773333D01*
X137380476Y-76725714D01*
X137570952Y-76678095D01*
X137713809Y-76678095D01*
X137904285Y-76725714D01*
X137999523Y-76773333D01*
X138094761Y-76868571D01*
X138142380Y-77011428D01*
X138142380Y-77249523D01*
X137142380Y-76059047D02*
X137142380Y-75868571D01*
X137190000Y-75773333D01*
X137285238Y-75678095D01*
X137475714Y-75630476D01*
X137809047Y-75630476D01*
X137999523Y-75678095D01*
X138094761Y-75773333D01*
X138142380Y-75868571D01*
X138142380Y-76059047D01*
X138094761Y-76154285D01*
X137999523Y-76249523D01*
X137809047Y-76297142D01*
X137475714Y-76297142D01*
X137285238Y-76249523D01*
X137190000Y-76154285D01*
X137142380Y-76059047D01*
X166756666Y-110127380D02*
X166756666Y-109127380D01*
X167328095Y-110127380D01*
X167328095Y-109127380D01*
X167804285Y-110127380D02*
X167804285Y-109460714D01*
X167804285Y-109127380D02*
X167756666Y-109175000D01*
X167804285Y-109222619D01*
X167851904Y-109175000D01*
X167804285Y-109127380D01*
X167804285Y-109222619D01*
X168709047Y-110079761D02*
X168613809Y-110127380D01*
X168423333Y-110127380D01*
X168328095Y-110079761D01*
X168280476Y-110032142D01*
X168232857Y-109936904D01*
X168232857Y-109651190D01*
X168280476Y-109555952D01*
X168328095Y-109508333D01*
X168423333Y-109460714D01*
X168613809Y-109460714D01*
X168709047Y-109508333D01*
X169137619Y-110127380D02*
X169137619Y-109127380D01*
X169566190Y-110127380D02*
X169566190Y-109603571D01*
X169518571Y-109508333D01*
X169423333Y-109460714D01*
X169280476Y-109460714D01*
X169185238Y-109508333D01*
X169137619Y-109555952D01*
X170423333Y-110079761D02*
X170328095Y-110127380D01*
X170137619Y-110127380D01*
X170042380Y-110079761D01*
X169994761Y-109984523D01*
X169994761Y-109603571D01*
X170042380Y-109508333D01*
X170137619Y-109460714D01*
X170328095Y-109460714D01*
X170423333Y-109508333D01*
X170470952Y-109603571D01*
X170470952Y-109698809D01*
X169994761Y-109794047D01*
X165090000Y-111689761D02*
X165232857Y-111737380D01*
X165470952Y-111737380D01*
X165566190Y-111689761D01*
X165613809Y-111642142D01*
X165661428Y-111546904D01*
X165661428Y-111451666D01*
X165613809Y-111356428D01*
X165566190Y-111308809D01*
X165470952Y-111261190D01*
X165280476Y-111213571D01*
X165185238Y-111165952D01*
X165137619Y-111118333D01*
X165090000Y-111023095D01*
X165090000Y-110927857D01*
X165137619Y-110832619D01*
X165185238Y-110785000D01*
X165280476Y-110737380D01*
X165518571Y-110737380D01*
X165661428Y-110785000D01*
X166090000Y-111070714D02*
X166090000Y-112070714D01*
X166090000Y-111118333D02*
X166185238Y-111070714D01*
X166375714Y-111070714D01*
X166470952Y-111118333D01*
X166518571Y-111165952D01*
X166566190Y-111261190D01*
X166566190Y-111546904D01*
X166518571Y-111642142D01*
X166470952Y-111689761D01*
X166375714Y-111737380D01*
X166185238Y-111737380D01*
X166090000Y-111689761D01*
X166994761Y-111737380D02*
X166994761Y-111070714D01*
X166994761Y-110737380D02*
X166947142Y-110785000D01*
X166994761Y-110832619D01*
X167042380Y-110785000D01*
X166994761Y-110737380D01*
X166994761Y-110832619D01*
X167470952Y-111070714D02*
X167470952Y-111737380D01*
X167470952Y-111165952D02*
X167518571Y-111118333D01*
X167613809Y-111070714D01*
X167756666Y-111070714D01*
X167851904Y-111118333D01*
X167899523Y-111213571D01*
X167899523Y-111737380D01*
X168375714Y-111070714D02*
X168375714Y-111737380D01*
X168375714Y-111165952D02*
X168423333Y-111118333D01*
X168518571Y-111070714D01*
X168661428Y-111070714D01*
X168756666Y-111118333D01*
X168804285Y-111213571D01*
X168804285Y-111737380D01*
X169185238Y-111070714D02*
X169423333Y-111737380D01*
X169661428Y-111070714D02*
X169423333Y-111737380D01*
X169328095Y-111975476D01*
X169280476Y-112023095D01*
X169185238Y-112070714D01*
X170709047Y-111070714D02*
X170947142Y-111737380D01*
X171185238Y-111070714D01*
X172090000Y-111737380D02*
X171518571Y-111737380D01*
X171804285Y-111737380D02*
X171804285Y-110737380D01*
X171709047Y-110880238D01*
X171613809Y-110975476D01*
X171518571Y-111023095D01*
X170027619Y-80912380D02*
X169694285Y-80436190D01*
X169456190Y-80912380D02*
X169456190Y-79912380D01*
X169837142Y-79912380D01*
X169932380Y-79960000D01*
X169980000Y-80007619D01*
X170027619Y-80102857D01*
X170027619Y-80245714D01*
X169980000Y-80340952D01*
X169932380Y-80388571D01*
X169837142Y-80436190D01*
X169456190Y-80436190D01*
X170456190Y-80388571D02*
X170789523Y-80388571D01*
X170932380Y-80912380D02*
X170456190Y-80912380D01*
X170456190Y-79912380D01*
X170932380Y-79912380D01*
X171313333Y-80864761D02*
X171456190Y-80912380D01*
X171694285Y-80912380D01*
X171789523Y-80864761D01*
X171837142Y-80817142D01*
X171884761Y-80721904D01*
X171884761Y-80626666D01*
X171837142Y-80531428D01*
X171789523Y-80483809D01*
X171694285Y-80436190D01*
X171503809Y-80388571D01*
X171408571Y-80340952D01*
X171360952Y-80293333D01*
X171313333Y-80198095D01*
X171313333Y-80102857D01*
X171360952Y-80007619D01*
X171408571Y-79960000D01*
X171503809Y-79912380D01*
X171741904Y-79912380D01*
X171884761Y-79960000D01*
X172313333Y-80388571D02*
X172646666Y-80388571D01*
X172789523Y-80912380D02*
X172313333Y-80912380D01*
X172313333Y-79912380D01*
X172789523Y-79912380D01*
X173075238Y-79912380D02*
X173646666Y-79912380D01*
X173360952Y-80912380D02*
X173360952Y-79912380D01*
X130666666Y-104654761D02*
X130809523Y-104702380D01*
X131047619Y-104702380D01*
X131142857Y-104654761D01*
X131190476Y-104607142D01*
X131238095Y-104511904D01*
X131238095Y-104416666D01*
X131190476Y-104321428D01*
X131142857Y-104273809D01*
X131047619Y-104226190D01*
X130857142Y-104178571D01*
X130761904Y-104130952D01*
X130714285Y-104083333D01*
X130666666Y-103988095D01*
X130666666Y-103892857D01*
X130714285Y-103797619D01*
X130761904Y-103750000D01*
X130857142Y-103702380D01*
X131095238Y-103702380D01*
X131238095Y-103750000D01*
X131571428Y-103702380D02*
X131809523Y-104702380D01*
X132000000Y-103988095D01*
X132190476Y-104702380D01*
X132428571Y-103702380D01*
X132761904Y-103797619D02*
X132809523Y-103750000D01*
X132904761Y-103702380D01*
X133142857Y-103702380D01*
X133238095Y-103750000D01*
X133285714Y-103797619D01*
X133333333Y-103892857D01*
X133333333Y-103988095D01*
X133285714Y-104130952D01*
X132714285Y-104702380D01*
X133333333Y-104702380D01*
X160261904Y-73667380D02*
X160261904Y-72667380D01*
X160500000Y-72667380D01*
X160642857Y-72715000D01*
X160738095Y-72810238D01*
X160785714Y-72905476D01*
X160833333Y-73095952D01*
X160833333Y-73238809D01*
X160785714Y-73429285D01*
X160738095Y-73524523D01*
X160642857Y-73619761D01*
X160500000Y-73667380D01*
X160261904Y-73667380D01*
X161785714Y-73667380D02*
X161214285Y-73667380D01*
X161500000Y-73667380D02*
X161500000Y-72667380D01*
X161404761Y-72810238D01*
X161309523Y-72905476D01*
X161214285Y-72953095D01*
X130666666Y-122654761D02*
X130809523Y-122702380D01*
X131047619Y-122702380D01*
X131142857Y-122654761D01*
X131190476Y-122607142D01*
X131238095Y-122511904D01*
X131238095Y-122416666D01*
X131190476Y-122321428D01*
X131142857Y-122273809D01*
X131047619Y-122226190D01*
X130857142Y-122178571D01*
X130761904Y-122130952D01*
X130714285Y-122083333D01*
X130666666Y-121988095D01*
X130666666Y-121892857D01*
X130714285Y-121797619D01*
X130761904Y-121750000D01*
X130857142Y-121702380D01*
X131095238Y-121702380D01*
X131238095Y-121750000D01*
X131571428Y-121702380D02*
X131809523Y-122702380D01*
X132000000Y-121988095D01*
X132190476Y-122702380D01*
X132428571Y-121702380D01*
X132714285Y-121702380D02*
X133333333Y-121702380D01*
X133000000Y-122083333D01*
X133142857Y-122083333D01*
X133238095Y-122130952D01*
X133285714Y-122178571D01*
X133333333Y-122273809D01*
X133333333Y-122511904D01*
X133285714Y-122607142D01*
X133238095Y-122654761D01*
X133142857Y-122702380D01*
X132857142Y-122702380D01*
X132761904Y-122654761D01*
X132714285Y-122607142D01*
X167683333Y-96652380D02*
X167350000Y-96176190D01*
X167111904Y-96652380D02*
X167111904Y-95652380D01*
X167492857Y-95652380D01*
X167588095Y-95700000D01*
X167635714Y-95747619D01*
X167683333Y-95842857D01*
X167683333Y-95985714D01*
X167635714Y-96080952D01*
X167588095Y-96128571D01*
X167492857Y-96176190D01*
X167111904Y-96176190D01*
X168540476Y-95985714D02*
X168540476Y-96652380D01*
X168302380Y-95604761D02*
X168064285Y-96319047D01*
X168683333Y-96319047D01*
X161433333Y-79857142D02*
X161385714Y-79904761D01*
X161242857Y-79952380D01*
X161147619Y-79952380D01*
X161004761Y-79904761D01*
X160909523Y-79809523D01*
X160861904Y-79714285D01*
X160814285Y-79523809D01*
X160814285Y-79380952D01*
X160861904Y-79190476D01*
X160909523Y-79095238D01*
X161004761Y-79000000D01*
X161147619Y-78952380D01*
X161242857Y-78952380D01*
X161385714Y-79000000D01*
X161433333Y-79047619D01*
X162338095Y-78952380D02*
X161861904Y-78952380D01*
X161814285Y-79428571D01*
X161861904Y-79380952D01*
X161957142Y-79333333D01*
X162195238Y-79333333D01*
X162290476Y-79380952D01*
X162338095Y-79428571D01*
X162385714Y-79523809D01*
X162385714Y-79761904D01*
X162338095Y-79857142D01*
X162290476Y-79904761D01*
X162195238Y-79952380D01*
X161957142Y-79952380D01*
X161861904Y-79904761D01*
X161814285Y-79857142D01*
X164707142Y-80807142D02*
X164659523Y-80854761D01*
X164516666Y-80902380D01*
X164421428Y-80902380D01*
X164278571Y-80854761D01*
X164183333Y-80759523D01*
X164135714Y-80664285D01*
X164088095Y-80473809D01*
X164088095Y-80330952D01*
X164135714Y-80140476D01*
X164183333Y-80045238D01*
X164278571Y-79950000D01*
X164421428Y-79902380D01*
X164516666Y-79902380D01*
X164659523Y-79950000D01*
X164707142Y-79997619D01*
X165659523Y-80902380D02*
X165088095Y-80902380D01*
X165373809Y-80902380D02*
X165373809Y-79902380D01*
X165278571Y-80045238D01*
X165183333Y-80140476D01*
X165088095Y-80188095D01*
X166040476Y-79997619D02*
X166088095Y-79950000D01*
X166183333Y-79902380D01*
X166421428Y-79902380D01*
X166516666Y-79950000D01*
X166564285Y-79997619D01*
X166611904Y-80092857D01*
X166611904Y-80188095D01*
X166564285Y-80330952D01*
X165992857Y-80902380D01*
X166611904Y-80902380D01*
X148799523Y-109212380D02*
X148799523Y-108212380D01*
X149132857Y-108926666D01*
X149466190Y-108212380D01*
X149466190Y-109212380D01*
X149799523Y-108212380D02*
X150370952Y-108212380D01*
X150085238Y-109212380D02*
X150085238Y-108212380D01*
X151228095Y-109212380D02*
X150656666Y-109212380D01*
X150942380Y-109212380D02*
X150942380Y-108212380D01*
X150847142Y-108355238D01*
X150751904Y-108450476D01*
X150656666Y-108498095D01*
X176773809Y-91126190D02*
X176773809Y-91602380D01*
X176440476Y-90602380D02*
X176773809Y-91126190D01*
X177107142Y-90602380D01*
X177964285Y-91602380D02*
X177392857Y-91602380D01*
X177678571Y-91602380D02*
X177678571Y-90602380D01*
X177583333Y-90745238D01*
X177488095Y-90840476D01*
X177392857Y-90888095D01*
X130666666Y-86654761D02*
X130809523Y-86702380D01*
X131047619Y-86702380D01*
X131142857Y-86654761D01*
X131190476Y-86607142D01*
X131238095Y-86511904D01*
X131238095Y-86416666D01*
X131190476Y-86321428D01*
X131142857Y-86273809D01*
X131047619Y-86226190D01*
X130857142Y-86178571D01*
X130761904Y-86130952D01*
X130714285Y-86083333D01*
X130666666Y-85988095D01*
X130666666Y-85892857D01*
X130714285Y-85797619D01*
X130761904Y-85750000D01*
X130857142Y-85702380D01*
X131095238Y-85702380D01*
X131238095Y-85750000D01*
X131571428Y-85702380D02*
X131809523Y-86702380D01*
X132000000Y-85988095D01*
X132190476Y-86702380D01*
X132428571Y-85702380D01*
X133333333Y-86702380D02*
X132761904Y-86702380D01*
X133047619Y-86702380D02*
X133047619Y-85702380D01*
X132952380Y-85845238D01*
X132857142Y-85940476D01*
X132761904Y-85988095D01*
X161038095Y-91902380D02*
X161038095Y-92711904D01*
X161085714Y-92807142D01*
X161133333Y-92854761D01*
X161228571Y-92902380D01*
X161419047Y-92902380D01*
X161514285Y-92854761D01*
X161561904Y-92807142D01*
X161609523Y-92711904D01*
X161609523Y-91902380D01*
X161990476Y-91902380D02*
X162609523Y-91902380D01*
X162276190Y-92283333D01*
X162419047Y-92283333D01*
X162514285Y-92330952D01*
X162561904Y-92378571D01*
X162609523Y-92473809D01*
X162609523Y-92711904D01*
X162561904Y-92807142D01*
X162514285Y-92854761D01*
X162419047Y-92902380D01*
X162133333Y-92902380D01*
X162038095Y-92854761D01*
X161990476Y-92807142D01*
X149438095Y-80552380D02*
X149438095Y-81361904D01*
X149485714Y-81457142D01*
X149533333Y-81504761D01*
X149628571Y-81552380D01*
X149819047Y-81552380D01*
X149914285Y-81504761D01*
X149961904Y-81457142D01*
X150009523Y-81361904D01*
X150009523Y-80552380D01*
X151009523Y-81552380D02*
X150438095Y-81552380D01*
X150723809Y-81552380D02*
X150723809Y-80552380D01*
X150628571Y-80695238D01*
X150533333Y-80790476D01*
X150438095Y-80838095D01*
X166383333Y-93907142D02*
X166335714Y-93954761D01*
X166192857Y-94002380D01*
X166097619Y-94002380D01*
X165954761Y-93954761D01*
X165859523Y-93859523D01*
X165811904Y-93764285D01*
X165764285Y-93573809D01*
X165764285Y-93430952D01*
X165811904Y-93240476D01*
X165859523Y-93145238D01*
X165954761Y-93050000D01*
X166097619Y-93002380D01*
X166192857Y-93002380D01*
X166335714Y-93050000D01*
X166383333Y-93097619D01*
X166716666Y-93002380D02*
X167383333Y-93002380D01*
X166954761Y-94002380D01*
X165033333Y-73652380D02*
X164700000Y-73176190D01*
X164461904Y-73652380D02*
X164461904Y-72652380D01*
X164842857Y-72652380D01*
X164938095Y-72700000D01*
X164985714Y-72747619D01*
X165033333Y-72842857D01*
X165033333Y-72985714D01*
X164985714Y-73080952D01*
X164938095Y-73128571D01*
X164842857Y-73176190D01*
X164461904Y-73176190D01*
X165890476Y-72652380D02*
X165700000Y-72652380D01*
X165604761Y-72700000D01*
X165557142Y-72747619D01*
X165461904Y-72890476D01*
X165414285Y-73080952D01*
X165414285Y-73461904D01*
X165461904Y-73557142D01*
X165509523Y-73604761D01*
X165604761Y-73652380D01*
X165795238Y-73652380D01*
X165890476Y-73604761D01*
X165938095Y-73557142D01*
X165985714Y-73461904D01*
X165985714Y-73223809D01*
X165938095Y-73128571D01*
X165890476Y-73080952D01*
X165795238Y-73033333D01*
X165604761Y-73033333D01*
X165509523Y-73080952D01*
X165461904Y-73128571D01*
X165414285Y-73223809D01*
X169933333Y-89607142D02*
X169885714Y-89654761D01*
X169742857Y-89702380D01*
X169647619Y-89702380D01*
X169504761Y-89654761D01*
X169409523Y-89559523D01*
X169361904Y-89464285D01*
X169314285Y-89273809D01*
X169314285Y-89130952D01*
X169361904Y-88940476D01*
X169409523Y-88845238D01*
X169504761Y-88750000D01*
X169647619Y-88702380D01*
X169742857Y-88702380D01*
X169885714Y-88750000D01*
X169933333Y-88797619D01*
X170790476Y-89035714D02*
X170790476Y-89702380D01*
X170552380Y-88654761D02*
X170314285Y-89369047D01*
X170933333Y-89369047D01*
X162411904Y-73667380D02*
X162411904Y-72667380D01*
X162650000Y-72667380D01*
X162792857Y-72715000D01*
X162888095Y-72810238D01*
X162935714Y-72905476D01*
X162983333Y-73095952D01*
X162983333Y-73238809D01*
X162935714Y-73429285D01*
X162888095Y-73524523D01*
X162792857Y-73619761D01*
X162650000Y-73667380D01*
X162411904Y-73667380D01*
X163364285Y-72762619D02*
X163411904Y-72715000D01*
X163507142Y-72667380D01*
X163745238Y-72667380D01*
X163840476Y-72715000D01*
X163888095Y-72762619D01*
X163935714Y-72857857D01*
X163935714Y-72953095D01*
X163888095Y-73095952D01*
X163316666Y-73667380D01*
X163935714Y-73667380D01*
X170933333Y-83807142D02*
X170885714Y-83854761D01*
X170742857Y-83902380D01*
X170647619Y-83902380D01*
X170504761Y-83854761D01*
X170409523Y-83759523D01*
X170361904Y-83664285D01*
X170314285Y-83473809D01*
X170314285Y-83330952D01*
X170361904Y-83140476D01*
X170409523Y-83045238D01*
X170504761Y-82950000D01*
X170647619Y-82902380D01*
X170742857Y-82902380D01*
X170885714Y-82950000D01*
X170933333Y-82997619D01*
X171504761Y-83330952D02*
X171409523Y-83283333D01*
X171361904Y-83235714D01*
X171314285Y-83140476D01*
X171314285Y-83092857D01*
X171361904Y-82997619D01*
X171409523Y-82950000D01*
X171504761Y-82902380D01*
X171695238Y-82902380D01*
X171790476Y-82950000D01*
X171838095Y-82997619D01*
X171885714Y-83092857D01*
X171885714Y-83140476D01*
X171838095Y-83235714D01*
X171790476Y-83283333D01*
X171695238Y-83330952D01*
X171504761Y-83330952D01*
X171409523Y-83378571D01*
X171361904Y-83426190D01*
X171314285Y-83521428D01*
X171314285Y-83711904D01*
X171361904Y-83807142D01*
X171409523Y-83854761D01*
X171504761Y-83902380D01*
X171695238Y-83902380D01*
X171790476Y-83854761D01*
X171838095Y-83807142D01*
X171885714Y-83711904D01*
X171885714Y-83521428D01*
X171838095Y-83426190D01*
X171790476Y-83378571D01*
X171695238Y-83330952D01*
X173007142Y-91507142D02*
X172959523Y-91554761D01*
X172816666Y-91602380D01*
X172721428Y-91602380D01*
X172578571Y-91554761D01*
X172483333Y-91459523D01*
X172435714Y-91364285D01*
X172388095Y-91173809D01*
X172388095Y-91030952D01*
X172435714Y-90840476D01*
X172483333Y-90745238D01*
X172578571Y-90650000D01*
X172721428Y-90602380D01*
X172816666Y-90602380D01*
X172959523Y-90650000D01*
X173007142Y-90697619D01*
X173959523Y-91602380D02*
X173388095Y-91602380D01*
X173673809Y-91602380D02*
X173673809Y-90602380D01*
X173578571Y-90745238D01*
X173483333Y-90840476D01*
X173388095Y-90888095D01*
X174578571Y-90602380D02*
X174673809Y-90602380D01*
X174769047Y-90650000D01*
X174816666Y-90697619D01*
X174864285Y-90792857D01*
X174911904Y-90983333D01*
X174911904Y-91221428D01*
X174864285Y-91411904D01*
X174816666Y-91507142D01*
X174769047Y-91554761D01*
X174673809Y-91602380D01*
X174578571Y-91602380D01*
X174483333Y-91554761D01*
X174435714Y-91507142D01*
X174388095Y-91411904D01*
X174340476Y-91221428D01*
X174340476Y-90983333D01*
X174388095Y-90792857D01*
X174435714Y-90697619D01*
X174483333Y-90650000D01*
X174578571Y-90602380D01*
X143543333Y-80057142D02*
X143495714Y-80104761D01*
X143352857Y-80152380D01*
X143257619Y-80152380D01*
X143114761Y-80104761D01*
X143019523Y-80009523D01*
X142971904Y-79914285D01*
X142924285Y-79723809D01*
X142924285Y-79580952D01*
X142971904Y-79390476D01*
X143019523Y-79295238D01*
X143114761Y-79200000D01*
X143257619Y-79152380D01*
X143352857Y-79152380D01*
X143495714Y-79200000D01*
X143543333Y-79247619D01*
X144495714Y-80152380D02*
X143924285Y-80152380D01*
X144210000Y-80152380D02*
X144210000Y-79152380D01*
X144114761Y-79295238D01*
X144019523Y-79390476D01*
X143924285Y-79438095D01*
X156233333Y-77402380D02*
X155900000Y-76926190D01*
X155661904Y-77402380D02*
X155661904Y-76402380D01*
X156042857Y-76402380D01*
X156138095Y-76450000D01*
X156185714Y-76497619D01*
X156233333Y-76592857D01*
X156233333Y-76735714D01*
X156185714Y-76830952D01*
X156138095Y-76878571D01*
X156042857Y-76926190D01*
X155661904Y-76926190D01*
X157185714Y-77402380D02*
X156614285Y-77402380D01*
X156900000Y-77402380D02*
X156900000Y-76402380D01*
X156804761Y-76545238D01*
X156709523Y-76640476D01*
X156614285Y-76688095D01*
X158733333Y-73702380D02*
X158400000Y-73226190D01*
X158161904Y-73702380D02*
X158161904Y-72702380D01*
X158542857Y-72702380D01*
X158638095Y-72750000D01*
X158685714Y-72797619D01*
X158733333Y-72892857D01*
X158733333Y-73035714D01*
X158685714Y-73130952D01*
X158638095Y-73178571D01*
X158542857Y-73226190D01*
X158161904Y-73226190D01*
X159066666Y-72702380D02*
X159685714Y-72702380D01*
X159352380Y-73083333D01*
X159495238Y-73083333D01*
X159590476Y-73130952D01*
X159638095Y-73178571D01*
X159685714Y-73273809D01*
X159685714Y-73511904D01*
X159638095Y-73607142D01*
X159590476Y-73654761D01*
X159495238Y-73702380D01*
X159209523Y-73702380D01*
X159114285Y-73654761D01*
X159066666Y-73607142D01*
X173207142Y-83757142D02*
X173159523Y-83804761D01*
X173016666Y-83852380D01*
X172921428Y-83852380D01*
X172778571Y-83804761D01*
X172683333Y-83709523D01*
X172635714Y-83614285D01*
X172588095Y-83423809D01*
X172588095Y-83280952D01*
X172635714Y-83090476D01*
X172683333Y-82995238D01*
X172778571Y-82900000D01*
X172921428Y-82852380D01*
X173016666Y-82852380D01*
X173159523Y-82900000D01*
X173207142Y-82947619D01*
X174159523Y-83852380D02*
X173588095Y-83852380D01*
X173873809Y-83852380D02*
X173873809Y-82852380D01*
X173778571Y-82995238D01*
X173683333Y-83090476D01*
X173588095Y-83138095D01*
X175111904Y-83852380D02*
X174540476Y-83852380D01*
X174826190Y-83852380D02*
X174826190Y-82852380D01*
X174730952Y-82995238D01*
X174635714Y-83090476D01*
X174540476Y-83138095D01*
X154143333Y-86722380D02*
X153810000Y-86246190D01*
X153571904Y-86722380D02*
X153571904Y-85722380D01*
X153952857Y-85722380D01*
X154048095Y-85770000D01*
X154095714Y-85817619D01*
X154143333Y-85912857D01*
X154143333Y-86055714D01*
X154095714Y-86150952D01*
X154048095Y-86198571D01*
X153952857Y-86246190D01*
X153571904Y-86246190D01*
X155048095Y-85722380D02*
X154571904Y-85722380D01*
X154524285Y-86198571D01*
X154571904Y-86150952D01*
X154667142Y-86103333D01*
X154905238Y-86103333D01*
X155000476Y-86150952D01*
X155048095Y-86198571D01*
X155095714Y-86293809D01*
X155095714Y-86531904D01*
X155048095Y-86627142D01*
X155000476Y-86674761D01*
X154905238Y-86722380D01*
X154667142Y-86722380D01*
X154571904Y-86674761D01*
X154524285Y-86627142D01*
X169583333Y-94107142D02*
X169535714Y-94154761D01*
X169392857Y-94202380D01*
X169297619Y-94202380D01*
X169154761Y-94154761D01*
X169059523Y-94059523D01*
X169011904Y-93964285D01*
X168964285Y-93773809D01*
X168964285Y-93630952D01*
X169011904Y-93440476D01*
X169059523Y-93345238D01*
X169154761Y-93250000D01*
X169297619Y-93202380D01*
X169392857Y-93202380D01*
X169535714Y-93250000D01*
X169583333Y-93297619D01*
X169916666Y-93202380D02*
X170535714Y-93202380D01*
X170202380Y-93583333D01*
X170345238Y-93583333D01*
X170440476Y-93630952D01*
X170488095Y-93678571D01*
X170535714Y-93773809D01*
X170535714Y-94011904D01*
X170488095Y-94107142D01*
X170440476Y-94154761D01*
X170345238Y-94202380D01*
X170059523Y-94202380D01*
X169964285Y-94154761D01*
X169916666Y-94107142D01*
X143383333Y-77552380D02*
X143050000Y-77076190D01*
X142811904Y-77552380D02*
X142811904Y-76552380D01*
X143192857Y-76552380D01*
X143288095Y-76600000D01*
X143335714Y-76647619D01*
X143383333Y-76742857D01*
X143383333Y-76885714D01*
X143335714Y-76980952D01*
X143288095Y-77028571D01*
X143192857Y-77076190D01*
X142811904Y-77076190D01*
X143764285Y-76647619D02*
X143811904Y-76600000D01*
X143907142Y-76552380D01*
X144145238Y-76552380D01*
X144240476Y-76600000D01*
X144288095Y-76647619D01*
X144335714Y-76742857D01*
X144335714Y-76838095D01*
X144288095Y-76980952D01*
X143716666Y-77552380D01*
X144335714Y-77552380D01*
X156433333Y-89807142D02*
X156385714Y-89854761D01*
X156242857Y-89902380D01*
X156147619Y-89902380D01*
X156004761Y-89854761D01*
X155909523Y-89759523D01*
X155861904Y-89664285D01*
X155814285Y-89473809D01*
X155814285Y-89330952D01*
X155861904Y-89140476D01*
X155909523Y-89045238D01*
X156004761Y-88950000D01*
X156147619Y-88902380D01*
X156242857Y-88902380D01*
X156385714Y-88950000D01*
X156433333Y-88997619D01*
X157290476Y-88902380D02*
X157100000Y-88902380D01*
X157004761Y-88950000D01*
X156957142Y-88997619D01*
X156861904Y-89140476D01*
X156814285Y-89330952D01*
X156814285Y-89711904D01*
X156861904Y-89807142D01*
X156909523Y-89854761D01*
X157004761Y-89902380D01*
X157195238Y-89902380D01*
X157290476Y-89854761D01*
X157338095Y-89807142D01*
X157385714Y-89711904D01*
X157385714Y-89473809D01*
X157338095Y-89378571D01*
X157290476Y-89330952D01*
X157195238Y-89283333D01*
X157004761Y-89283333D01*
X156909523Y-89330952D01*
X156861904Y-89378571D01*
X156814285Y-89473809D01*
X155725595Y-80252380D02*
X155725595Y-81061904D01*
X155773214Y-81157142D01*
X155820833Y-81204761D01*
X155916071Y-81252380D01*
X156106547Y-81252380D01*
X156201785Y-81204761D01*
X156249404Y-81157142D01*
X156297023Y-81061904D01*
X156297023Y-80252380D01*
X156725595Y-80347619D02*
X156773214Y-80300000D01*
X156868452Y-80252380D01*
X157106547Y-80252380D01*
X157201785Y-80300000D01*
X157249404Y-80347619D01*
X157297023Y-80442857D01*
X157297023Y-80538095D01*
X157249404Y-80680952D01*
X156677976Y-81252380D01*
X157297023Y-81252380D01*
X169683333Y-87207142D02*
X169635714Y-87254761D01*
X169492857Y-87302380D01*
X169397619Y-87302380D01*
X169254761Y-87254761D01*
X169159523Y-87159523D01*
X169111904Y-87064285D01*
X169064285Y-86873809D01*
X169064285Y-86730952D01*
X169111904Y-86540476D01*
X169159523Y-86445238D01*
X169254761Y-86350000D01*
X169397619Y-86302380D01*
X169492857Y-86302380D01*
X169635714Y-86350000D01*
X169683333Y-86397619D01*
X170159523Y-87302380D02*
X170350000Y-87302380D01*
X170445238Y-87254761D01*
X170492857Y-87207142D01*
X170588095Y-87064285D01*
X170635714Y-86873809D01*
X170635714Y-86492857D01*
X170588095Y-86397619D01*
X170540476Y-86350000D01*
X170445238Y-86302380D01*
X170254761Y-86302380D01*
X170159523Y-86350000D01*
X170111904Y-86397619D01*
X170064285Y-86492857D01*
X170064285Y-86730952D01*
X170111904Y-86826190D01*
X170159523Y-86873809D01*
X170254761Y-86921428D01*
X170445238Y-86921428D01*
X170540476Y-86873809D01*
X170588095Y-86826190D01*
X170635714Y-86730952D01*
X147413333Y-84917142D02*
X147365714Y-84964761D01*
X147222857Y-85012380D01*
X147127619Y-85012380D01*
X146984761Y-84964761D01*
X146889523Y-84869523D01*
X146841904Y-84774285D01*
X146794285Y-84583809D01*
X146794285Y-84440952D01*
X146841904Y-84250476D01*
X146889523Y-84155238D01*
X146984761Y-84060000D01*
X147127619Y-84012380D01*
X147222857Y-84012380D01*
X147365714Y-84060000D01*
X147413333Y-84107619D01*
X147794285Y-84107619D02*
X147841904Y-84060000D01*
X147937142Y-84012380D01*
X148175238Y-84012380D01*
X148270476Y-84060000D01*
X148318095Y-84107619D01*
X148365714Y-84202857D01*
X148365714Y-84298095D01*
X148318095Y-84440952D01*
X147746666Y-85012380D01*
X148365714Y-85012380D01*
X148666666Y-122654761D02*
X148809523Y-122702380D01*
X149047619Y-122702380D01*
X149142857Y-122654761D01*
X149190476Y-122607142D01*
X149238095Y-122511904D01*
X149238095Y-122416666D01*
X149190476Y-122321428D01*
X149142857Y-122273809D01*
X149047619Y-122226190D01*
X148857142Y-122178571D01*
X148761904Y-122130952D01*
X148714285Y-122083333D01*
X148666666Y-121988095D01*
X148666666Y-121892857D01*
X148714285Y-121797619D01*
X148761904Y-121750000D01*
X148857142Y-121702380D01*
X149095238Y-121702380D01*
X149238095Y-121750000D01*
X149571428Y-121702380D02*
X149809523Y-122702380D01*
X150000000Y-121988095D01*
X150190476Y-122702380D01*
X150428571Y-121702380D01*
X151238095Y-122035714D02*
X151238095Y-122702380D01*
X151000000Y-121654761D02*
X150761904Y-122369047D01*
X151380952Y-122369047D01*
D11*
X134176000Y-103000000D02*
X129824000Y-103000000D01*
X135000000Y-101176000D02*
X135000000Y-98824000D01*
X134176000Y-97000000D02*
X129824000Y-97000000D01*
X129000000Y-101176000D02*
X129000000Y-98824000D01*
D12*
X135350000Y-104004000D02*
G75*
G03*
X135350000Y-104004000I-100000J0D01*
G01*
D13*
X161685000Y-74180000D02*
X160215000Y-74180000D01*
X160215000Y-74180000D02*
X160215000Y-76465000D01*
X161685000Y-76465000D02*
X161685000Y-74180000D01*
D11*
X134176000Y-121000000D02*
X129824000Y-121000000D01*
X129000000Y-119176000D02*
X129000000Y-116824000D01*
X135000000Y-119176000D02*
X135000000Y-116824000D01*
X134176000Y-115000000D02*
X129824000Y-115000000D01*
D12*
X135350000Y-122004000D02*
G75*
G03*
X135350000Y-122004000I-100000J0D01*
G01*
D13*
X168230000Y-94296359D02*
X168230000Y-94603641D01*
X167470000Y-94296359D02*
X167470000Y-94603641D01*
X161422164Y-80960000D02*
X161637836Y-80960000D01*
X161422164Y-80240000D02*
X161637836Y-80240000D01*
X167742164Y-80090000D02*
X167957836Y-80090000D01*
X167742164Y-80810000D02*
X167957836Y-80810000D01*
D11*
X146600000Y-106250000D02*
X143300000Y-106250000D01*
X156700000Y-106250000D02*
X156700000Y-103700000D01*
X156700000Y-96300000D02*
X156700000Y-93750000D01*
X143300000Y-106250000D02*
X143300000Y-103700000D01*
X153400000Y-106250000D02*
X156700000Y-106250000D01*
X156700000Y-93750000D02*
X153400000Y-93750000D01*
X143300000Y-93750000D02*
X146600000Y-93750000D01*
X143300000Y-96300000D02*
X143300000Y-93750000D01*
D12*
X142500000Y-104200000D02*
G75*
G03*
X142500000Y-104200000I-100000J0D01*
G01*
D13*
X174150000Y-90300000D02*
X177750000Y-90300000D01*
X174150000Y-84550000D02*
X174150000Y-90300000D01*
X177750000Y-90300000D02*
X177750000Y-84550000D01*
D11*
X135000000Y-83176000D02*
X135000000Y-80824000D01*
X129000000Y-83176000D02*
X129000000Y-80824000D01*
X134176000Y-85000000D02*
X129824000Y-85000000D01*
X134176000Y-79000000D02*
X129824000Y-79000000D01*
D12*
X135350000Y-86004000D02*
G75*
G03*
X135350000Y-86004000I-100000J0D01*
G01*
D13*
X167160000Y-90060000D02*
X167610000Y-90060000D01*
X160390000Y-90060000D02*
X160390000Y-89610000D01*
X167610000Y-82840000D02*
X167610000Y-83290000D01*
X160840000Y-82840000D02*
X160390000Y-82840000D01*
X160390000Y-82840000D02*
X160390000Y-83290000D01*
X167160000Y-82840000D02*
X167610000Y-82840000D01*
X167610000Y-89610000D02*
X168900000Y-89610000D01*
X167610000Y-90060000D02*
X167610000Y-89610000D01*
X160840000Y-90060000D02*
X160390000Y-90060000D01*
X145300000Y-74900000D02*
X145300000Y-72900000D01*
X145300000Y-71000000D02*
X145300000Y-70260000D01*
X154700000Y-74900000D02*
X154700000Y-72900000D01*
X154700000Y-71000000D02*
X154700000Y-70270000D01*
X149110000Y-80862500D02*
X149110000Y-81512500D01*
X145990000Y-80862500D02*
X145990000Y-82537500D01*
X149110000Y-80862500D02*
X149110000Y-80212500D01*
X145990000Y-80862500D02*
X145990000Y-80212500D01*
X166807836Y-92660000D02*
X166592164Y-92660000D01*
X166807836Y-91940000D02*
X166592164Y-91940000D01*
X164470000Y-75196359D02*
X164470000Y-75503641D01*
X165230000Y-75196359D02*
X165230000Y-75503641D01*
X169572164Y-90040000D02*
X169787836Y-90040000D01*
X169572164Y-90760000D02*
X169787836Y-90760000D01*
X163885000Y-74142500D02*
X162415000Y-74142500D01*
X163885000Y-76427500D02*
X163885000Y-74142500D01*
X162415000Y-74142500D02*
X162415000Y-76427500D01*
X170790000Y-84972164D02*
X170790000Y-85187836D01*
X171510000Y-84972164D02*
X171510000Y-85187836D01*
X172590000Y-88722164D02*
X172590000Y-88937836D01*
X173310000Y-88722164D02*
X173310000Y-88937836D01*
X144740000Y-80212164D02*
X144740000Y-80427836D01*
X145460000Y-80212164D02*
X145460000Y-80427836D01*
X155670000Y-74946359D02*
X155670000Y-75253641D01*
X156430000Y-74946359D02*
X156430000Y-75253641D01*
X158620000Y-75206359D02*
X158620000Y-75513641D01*
X159380000Y-75206359D02*
X159380000Y-75513641D01*
X172590000Y-85813836D02*
X172590000Y-85598164D01*
X173310000Y-85813836D02*
X173310000Y-85598164D01*
X154146359Y-85450000D02*
X154453641Y-85450000D01*
X154146359Y-84690000D02*
X154453641Y-84690000D01*
X169634420Y-91790000D02*
X169915580Y-91790000D01*
X169634420Y-92810000D02*
X169915580Y-92810000D01*
X144330000Y-75363641D02*
X144330000Y-75056359D01*
X143570000Y-75363641D02*
X143570000Y-75056359D01*
X158510000Y-89477836D02*
X158510000Y-89262164D01*
X157790000Y-89477836D02*
X157790000Y-89262164D01*
X153350000Y-79140000D02*
X151550000Y-79140000D01*
X153350000Y-82260000D02*
X154150000Y-82260000D01*
X153350000Y-82260000D02*
X152550000Y-82260000D01*
X153350000Y-79140000D02*
X154150000Y-79140000D01*
X170260000Y-84972164D02*
X170260000Y-85187836D01*
X169540000Y-84972164D02*
X169540000Y-85187836D01*
X133870000Y-75320000D02*
X141550000Y-75320000D01*
X131270000Y-75320000D02*
X131270000Y-73990000D01*
X133870000Y-72660000D02*
X141550000Y-72660000D01*
X141550000Y-75320000D02*
X141550000Y-72660000D01*
X132600000Y-75320000D02*
X131270000Y-75320000D01*
X133870000Y-75320000D02*
X133870000Y-72660000D01*
X147687836Y-83040000D02*
X147472164Y-83040000D01*
X147687836Y-83760000D02*
X147472164Y-83760000D01*
D11*
X152176000Y-115000000D02*
X147824000Y-115000000D01*
X152176000Y-121000000D02*
X147824000Y-121000000D01*
X153000000Y-119176000D02*
X153000000Y-116824000D01*
X147000000Y-119176000D02*
X147000000Y-116824000D01*
D12*
X153350000Y-122004000D02*
G75*
G03*
X153350000Y-122004000I-100000J0D01*
G01*
D13*
X168250000Y-78600000D02*
X170250000Y-78600000D01*
X168240000Y-73000000D02*
X170240000Y-73000000D01*
%LPC*%
D14*
X135250000Y-102250000D03*
D15*
X135250000Y-97750000D03*
X128750000Y-102250000D03*
X128750000Y-97750000D03*
D16*
X160950000Y-74877500D03*
X160950000Y-76452500D03*
D15*
X135250000Y-115750000D03*
D14*
X135250000Y-120250000D03*
D15*
X128750000Y-120250000D03*
X128750000Y-115750000D03*
D17*
X124000000Y-123000000D03*
D18*
X167850000Y-93940000D03*
X167850000Y-94960000D03*
D19*
X161050000Y-80600000D03*
X162010000Y-80600000D03*
X167370000Y-80450000D03*
X168330000Y-80450000D03*
D20*
X143000000Y-102500000D03*
D21*
X143000000Y-97500000D03*
X157500000Y-102500000D03*
X157500000Y-97500000D03*
X157500000Y-100000000D03*
D22*
X150000000Y-105700000D03*
X150000000Y-94300000D03*
D23*
X175950000Y-89100000D03*
X175950000Y-85400000D03*
D15*
X135250000Y-79750000D03*
D14*
X135250000Y-84250000D03*
D15*
X128750000Y-79750000D03*
X128750000Y-84250000D03*
D17*
X176000000Y-77000000D03*
D24*
X168162500Y-89200000D03*
X168162500Y-88700000D03*
X168162500Y-88200000D03*
X168162500Y-87700000D03*
X168162500Y-87200000D03*
X168162500Y-86700000D03*
X168162500Y-86200000D03*
X168162500Y-85700000D03*
X168162500Y-85200000D03*
X168162500Y-84700000D03*
X168162500Y-84200000D03*
X168162500Y-83700000D03*
D25*
X166750000Y-82287500D03*
X166250000Y-82287500D03*
X165750000Y-82287500D03*
X165250000Y-82287500D03*
X164750000Y-82287500D03*
X164250000Y-82287500D03*
X163750000Y-82287500D03*
X163250000Y-82287500D03*
X162750000Y-82287500D03*
X162250000Y-82287500D03*
X161750000Y-82287500D03*
X161250000Y-82287500D03*
D24*
X159837500Y-83700000D03*
X159837500Y-84200000D03*
X159837500Y-84700000D03*
X159837500Y-85200000D03*
X159837500Y-85700000D03*
X159837500Y-86200000D03*
X159837500Y-86700000D03*
X159837500Y-87200000D03*
X159837500Y-87700000D03*
X159837500Y-88200000D03*
X159837500Y-88700000D03*
X159837500Y-89200000D03*
D25*
X161250000Y-90612500D03*
X161750000Y-90612500D03*
X162250000Y-90612500D03*
X162750000Y-90612500D03*
X163250000Y-90612500D03*
X163750000Y-90612500D03*
X164250000Y-90612500D03*
X164750000Y-90612500D03*
X165250000Y-90612500D03*
X165750000Y-90612500D03*
X166250000Y-90612500D03*
X166750000Y-90612500D03*
D26*
X152890000Y-75600000D03*
X147110000Y-75600000D03*
D27*
X153250000Y-77045000D03*
X152450000Y-77045000D03*
D28*
X151250000Y-77045000D03*
X150250000Y-77045000D03*
X149750000Y-77045000D03*
X148750000Y-77045000D03*
D27*
X147550000Y-77045000D03*
X146750000Y-77045000D03*
X146750000Y-77045000D03*
X147550000Y-77045000D03*
D28*
X148250000Y-77045000D03*
X149250000Y-77045000D03*
X150750000Y-77045000D03*
X151750000Y-77045000D03*
D27*
X152450000Y-77045000D03*
X153250000Y-77045000D03*
D29*
X154320000Y-76130000D03*
X145680000Y-76130000D03*
D30*
X145680000Y-71950000D03*
X154320000Y-71950000D03*
D31*
X146600000Y-81800000D03*
X148500000Y-81800000D03*
X147550000Y-79925000D03*
D32*
X167180000Y-92300000D03*
X166220000Y-92300000D03*
D18*
X164850000Y-74840000D03*
X164850000Y-75860000D03*
D19*
X169200000Y-90400000D03*
X170160000Y-90400000D03*
D16*
X163150000Y-74840000D03*
X163150000Y-76415000D03*
D33*
X171150000Y-84600000D03*
X171150000Y-85560000D03*
X172950000Y-88350000D03*
X172950000Y-89310000D03*
X145100000Y-79840000D03*
X145100000Y-80800000D03*
D17*
X124000000Y-77000000D03*
D18*
X156050000Y-74590000D03*
X156050000Y-75610000D03*
X159000000Y-74850000D03*
X159000000Y-75870000D03*
D34*
X172950000Y-86186000D03*
X172950000Y-85226000D03*
D35*
X153790000Y-85070000D03*
X154810000Y-85070000D03*
D17*
X176000000Y-123000000D03*
D36*
X169000000Y-92300000D03*
X170550000Y-92300000D03*
D37*
X143950000Y-75720000D03*
X143950000Y-74700000D03*
D34*
X158150000Y-89850000D03*
X158150000Y-88890000D03*
D38*
X152212500Y-79750000D03*
X152212500Y-80700000D03*
X152212500Y-81650000D03*
X154487500Y-81650000D03*
X154487500Y-80700000D03*
X154487500Y-79750000D03*
D33*
X169900000Y-84600000D03*
X169900000Y-85560000D03*
D39*
X132600000Y-73990000D03*
D40*
X135140000Y-73990000D03*
X137680000Y-73990000D03*
X140220000Y-73990000D03*
D32*
X148060000Y-83400000D03*
X147100000Y-83400000D03*
D14*
X153250000Y-120250000D03*
D15*
X153250000Y-115750000D03*
X146750000Y-115750000D03*
X146750000Y-120250000D03*
D41*
X167375000Y-78800000D03*
X171125000Y-78800000D03*
X171125000Y-72800000D03*
X167375000Y-72800000D03*
M02*
