%FSLAX45Y45*%
G04 Gerber Fmt 4.5, Leading zero omitted, Abs format (unit mm)*
G04 Created by KiCad (PCBNEW (6.0.1-0)) date 2022-07-10 21:45:14*
%MOMM*%
%LPD*%
G01*
G04 APERTURE LIST*
%TA.AperFunction,Profile*%
%ADD10C,0.100000*%
%TD*%
%ADD11C,0.200000*%
%ADD12C,0.065000*%
%ADD13C,0.320000*%
G04 APERTURE END LIST*
D10*
X12100000Y-7000000D02*
G75*
G03*
X12000000Y-7100000I0J-100000D01*
G01*
X18000000Y-7100000D02*
G75*
G03*
X17900000Y-7000000I-100000J0D01*
G01*
X17900000Y-13000000D02*
G75*
G03*
X18000000Y-12900000I0J100000D01*
G01*
X12000000Y-12900000D02*
G75*
G03*
X12100000Y-13000000I100000J0D01*
G01*
X12000000Y-12900000D02*
X12000000Y-7100000D01*
X18000000Y-7100000D02*
X18000000Y-12900000D01*
X17900000Y-13000000D02*
X12100000Y-13000000D01*
X12100000Y-7000000D02*
X17900000Y-7000000D01*
D11*
D12*
X14678500Y-7527500D02*
X14743500Y-7592500D01*
X14743500Y-7527500D02*
X14678500Y-7592500D01*
X15256500Y-7527500D02*
X15321500Y-7592500D01*
X15321500Y-7527500D02*
X15256500Y-7592500D01*
D13*
X12560000Y-7700000D02*
G75*
G03*
X12560000Y-7700000I-160000J0D01*
G01*
X12560000Y-12300000D02*
G75*
G03*
X12560000Y-12300000I-160000J0D01*
G01*
X17760000Y-7700000D02*
G75*
G03*
X17760000Y-7700000I-160000J0D01*
G01*
X17760000Y-12300000D02*
G75*
G03*
X17760000Y-12300000I-160000J0D01*
G01*
D11*
X12252619Y-13315476D02*
X12252619Y-13115476D01*
X12300238Y-13115476D01*
X12328809Y-13125000D01*
X12347857Y-13144048D01*
X12357381Y-13163095D01*
X12366905Y-13201190D01*
X12366905Y-13229762D01*
X12357381Y-13267857D01*
X12347857Y-13286905D01*
X12328809Y-13305952D01*
X12300238Y-13315476D01*
X12252619Y-13315476D01*
X12452619Y-13315476D02*
X12452619Y-13182143D01*
X12452619Y-13220238D02*
X12462143Y-13201190D01*
X12471667Y-13191667D01*
X12490714Y-13182143D01*
X12509762Y-13182143D01*
X12576428Y-13315476D02*
X12576428Y-13182143D01*
X12576428Y-13115476D02*
X12566905Y-13125000D01*
X12576428Y-13134524D01*
X12585952Y-13125000D01*
X12576428Y-13115476D01*
X12576428Y-13134524D01*
X12700238Y-13315476D02*
X12681190Y-13305952D01*
X12671667Y-13286905D01*
X12671667Y-13115476D01*
X12805000Y-13315476D02*
X12785952Y-13305952D01*
X12776428Y-13286905D01*
X12776428Y-13115476D01*
X13033571Y-13315476D02*
X13033571Y-13115476D01*
X13100238Y-13258333D01*
X13166905Y-13115476D01*
X13166905Y-13315476D01*
X13347857Y-13315476D02*
X13347857Y-13210714D01*
X13338333Y-13191667D01*
X13319286Y-13182143D01*
X13281190Y-13182143D01*
X13262143Y-13191667D01*
X13347857Y-13305952D02*
X13328809Y-13315476D01*
X13281190Y-13315476D01*
X13262143Y-13305952D01*
X13252619Y-13286905D01*
X13252619Y-13267857D01*
X13262143Y-13248809D01*
X13281190Y-13239286D01*
X13328809Y-13239286D01*
X13347857Y-13229762D01*
X13443095Y-13182143D02*
X13443095Y-13382143D01*
X13443095Y-13191667D02*
X13462143Y-13182143D01*
X13500238Y-13182143D01*
X13519286Y-13191667D01*
X13528809Y-13201190D01*
X13538333Y-13220238D01*
X13538333Y-13277381D01*
X13528809Y-13296428D01*
X13519286Y-13305952D01*
X13500238Y-13315476D01*
X13462143Y-13315476D01*
X13443095Y-13305952D01*
X13624048Y-13296428D02*
X13633571Y-13305952D01*
X13624048Y-13315476D01*
X13614524Y-13305952D01*
X13624048Y-13296428D01*
X13624048Y-13315476D01*
X13624048Y-13191667D02*
X13633571Y-13201190D01*
X13624048Y-13210714D01*
X13614524Y-13201190D01*
X13624048Y-13191667D01*
X13624048Y-13210714D01*
D12*
X11930000Y-13612500D02*
X11995000Y-13677500D01*
X11995000Y-13612500D02*
X11930000Y-13677500D01*
D11*
X12290714Y-13535476D02*
X12309762Y-13535476D01*
X12328809Y-13545000D01*
X12338333Y-13554524D01*
X12347857Y-13573571D01*
X12357381Y-13611667D01*
X12357381Y-13659286D01*
X12347857Y-13697381D01*
X12338333Y-13716428D01*
X12328809Y-13725952D01*
X12309762Y-13735476D01*
X12290714Y-13735476D01*
X12271667Y-13725952D01*
X12262143Y-13716428D01*
X12252619Y-13697381D01*
X12243095Y-13659286D01*
X12243095Y-13611667D01*
X12252619Y-13573571D01*
X12262143Y-13554524D01*
X12271667Y-13545000D01*
X12290714Y-13535476D01*
X12443095Y-13716428D02*
X12452619Y-13725952D01*
X12443095Y-13735476D01*
X12433571Y-13725952D01*
X12443095Y-13716428D01*
X12443095Y-13735476D01*
X12624048Y-13535476D02*
X12585952Y-13535476D01*
X12566905Y-13545000D01*
X12557381Y-13554524D01*
X12538333Y-13583095D01*
X12528809Y-13621190D01*
X12528809Y-13697381D01*
X12538333Y-13716428D01*
X12547857Y-13725952D01*
X12566905Y-13735476D01*
X12605000Y-13735476D01*
X12624048Y-13725952D01*
X12633571Y-13716428D01*
X12643095Y-13697381D01*
X12643095Y-13649762D01*
X12633571Y-13630714D01*
X12624048Y-13621190D01*
X12605000Y-13611667D01*
X12566905Y-13611667D01*
X12547857Y-13621190D01*
X12538333Y-13630714D01*
X12528809Y-13649762D01*
X12824048Y-13535476D02*
X12728809Y-13535476D01*
X12719286Y-13630714D01*
X12728809Y-13621190D01*
X12747857Y-13611667D01*
X12795476Y-13611667D01*
X12814524Y-13621190D01*
X12824048Y-13630714D01*
X12833571Y-13649762D01*
X12833571Y-13697381D01*
X12824048Y-13716428D01*
X12814524Y-13725952D01*
X12795476Y-13735476D01*
X12747857Y-13735476D01*
X12728809Y-13725952D01*
X12719286Y-13716428D01*
X12957381Y-13535476D02*
X12976428Y-13535476D01*
X12995476Y-13545000D01*
X13005000Y-13554524D01*
X13014524Y-13573571D01*
X13024048Y-13611667D01*
X13024048Y-13659286D01*
X13014524Y-13697381D01*
X13005000Y-13716428D01*
X12995476Y-13725952D01*
X12976428Y-13735476D01*
X12957381Y-13735476D01*
X12938333Y-13725952D01*
X12928809Y-13716428D01*
X12919286Y-13697381D01*
X12909762Y-13659286D01*
X12909762Y-13611667D01*
X12919286Y-13573571D01*
X12928809Y-13554524D01*
X12938333Y-13545000D01*
X12957381Y-13535476D01*
X13109762Y-13735476D02*
X13109762Y-13602143D01*
X13109762Y-13621190D02*
X13119286Y-13611667D01*
X13138333Y-13602143D01*
X13166905Y-13602143D01*
X13185952Y-13611667D01*
X13195476Y-13630714D01*
X13195476Y-13735476D01*
X13195476Y-13630714D02*
X13205000Y-13611667D01*
X13224048Y-13602143D01*
X13252619Y-13602143D01*
X13271667Y-13611667D01*
X13281190Y-13630714D01*
X13281190Y-13735476D01*
X13376428Y-13735476D02*
X13376428Y-13602143D01*
X13376428Y-13621190D02*
X13385952Y-13611667D01*
X13405000Y-13602143D01*
X13433571Y-13602143D01*
X13452619Y-13611667D01*
X13462143Y-13630714D01*
X13462143Y-13735476D01*
X13462143Y-13630714D02*
X13471667Y-13611667D01*
X13490714Y-13602143D01*
X13519286Y-13602143D01*
X13538333Y-13611667D01*
X13547857Y-13630714D01*
X13547857Y-13735476D01*
X13938333Y-13525952D02*
X13766905Y-13783095D01*
X14195476Y-13535476D02*
X14214524Y-13535476D01*
X14233571Y-13545000D01*
X14243095Y-13554524D01*
X14252619Y-13573571D01*
X14262143Y-13611667D01*
X14262143Y-13659286D01*
X14252619Y-13697381D01*
X14243095Y-13716428D01*
X14233571Y-13725952D01*
X14214524Y-13735476D01*
X14195476Y-13735476D01*
X14176428Y-13725952D01*
X14166905Y-13716428D01*
X14157381Y-13697381D01*
X14147857Y-13659286D01*
X14147857Y-13611667D01*
X14157381Y-13573571D01*
X14166905Y-13554524D01*
X14176428Y-13545000D01*
X14195476Y-13535476D01*
X14347857Y-13716428D02*
X14357381Y-13725952D01*
X14347857Y-13735476D01*
X14338333Y-13725952D01*
X14347857Y-13716428D01*
X14347857Y-13735476D01*
X14481190Y-13535476D02*
X14500238Y-13535476D01*
X14519286Y-13545000D01*
X14528809Y-13554524D01*
X14538333Y-13573571D01*
X14547857Y-13611667D01*
X14547857Y-13659286D01*
X14538333Y-13697381D01*
X14528809Y-13716428D01*
X14519286Y-13725952D01*
X14500238Y-13735476D01*
X14481190Y-13735476D01*
X14462143Y-13725952D01*
X14452619Y-13716428D01*
X14443095Y-13697381D01*
X14433571Y-13659286D01*
X14433571Y-13611667D01*
X14443095Y-13573571D01*
X14452619Y-13554524D01*
X14462143Y-13545000D01*
X14481190Y-13535476D01*
X14624048Y-13554524D02*
X14633571Y-13545000D01*
X14652619Y-13535476D01*
X14700238Y-13535476D01*
X14719286Y-13545000D01*
X14728809Y-13554524D01*
X14738333Y-13573571D01*
X14738333Y-13592619D01*
X14728809Y-13621190D01*
X14614524Y-13735476D01*
X14738333Y-13735476D01*
X14919286Y-13535476D02*
X14824048Y-13535476D01*
X14814524Y-13630714D01*
X14824048Y-13621190D01*
X14843095Y-13611667D01*
X14890714Y-13611667D01*
X14909762Y-13621190D01*
X14919286Y-13630714D01*
X14928809Y-13649762D01*
X14928809Y-13697381D01*
X14919286Y-13716428D01*
X14909762Y-13725952D01*
X14890714Y-13735476D01*
X14843095Y-13735476D01*
X14824048Y-13725952D01*
X14814524Y-13716428D01*
X15100238Y-13535476D02*
X15062143Y-13535476D01*
X15043095Y-13545000D01*
X15033571Y-13554524D01*
X15014524Y-13583095D01*
X15005000Y-13621190D01*
X15005000Y-13697381D01*
X15014524Y-13716428D01*
X15024048Y-13725952D01*
X15043095Y-13735476D01*
X15081190Y-13735476D01*
X15100238Y-13725952D01*
X15109762Y-13716428D01*
X15119286Y-13697381D01*
X15119286Y-13649762D01*
X15109762Y-13630714D01*
X15100238Y-13621190D01*
X15081190Y-13611667D01*
X15043095Y-13611667D01*
X15024048Y-13621190D01*
X15014524Y-13630714D01*
X15005000Y-13649762D01*
X15195476Y-13535476D02*
X15195476Y-13573571D01*
X15271667Y-13535476D02*
X15271667Y-13573571D01*
X15566905Y-13811667D02*
X15557381Y-13802143D01*
X15538333Y-13773571D01*
X15528809Y-13754524D01*
X15519286Y-13725952D01*
X15509762Y-13678333D01*
X15509762Y-13640238D01*
X15519286Y-13592619D01*
X15528809Y-13564048D01*
X15538333Y-13545000D01*
X15557381Y-13516428D01*
X15566905Y-13506905D01*
X15633571Y-13554524D02*
X15643095Y-13545000D01*
X15662143Y-13535476D01*
X15709762Y-13535476D01*
X15728809Y-13545000D01*
X15738333Y-13554524D01*
X15747857Y-13573571D01*
X15747857Y-13592619D01*
X15738333Y-13621190D01*
X15624048Y-13735476D01*
X15747857Y-13735476D01*
X15985952Y-13735476D02*
X15985952Y-13535476D01*
X16071667Y-13735476D02*
X16071667Y-13630714D01*
X16062143Y-13611667D01*
X16043095Y-13602143D01*
X16014524Y-13602143D01*
X15995476Y-13611667D01*
X15985952Y-13621190D01*
X16195476Y-13735476D02*
X16176428Y-13725952D01*
X16166905Y-13716428D01*
X16157381Y-13697381D01*
X16157381Y-13640238D01*
X16166905Y-13621190D01*
X16176428Y-13611667D01*
X16195476Y-13602143D01*
X16224048Y-13602143D01*
X16243095Y-13611667D01*
X16252619Y-13621190D01*
X16262143Y-13640238D01*
X16262143Y-13697381D01*
X16252619Y-13716428D01*
X16243095Y-13725952D01*
X16224048Y-13735476D01*
X16195476Y-13735476D01*
X16376428Y-13735476D02*
X16357381Y-13725952D01*
X16347857Y-13706905D01*
X16347857Y-13535476D01*
X16528809Y-13725952D02*
X16509762Y-13735476D01*
X16471667Y-13735476D01*
X16452619Y-13725952D01*
X16443095Y-13706905D01*
X16443095Y-13630714D01*
X16452619Y-13611667D01*
X16471667Y-13602143D01*
X16509762Y-13602143D01*
X16528809Y-13611667D01*
X16538333Y-13630714D01*
X16538333Y-13649762D01*
X16443095Y-13668809D01*
X16614524Y-13725952D02*
X16633571Y-13735476D01*
X16671667Y-13735476D01*
X16690714Y-13725952D01*
X16700238Y-13706905D01*
X16700238Y-13697381D01*
X16690714Y-13678333D01*
X16671667Y-13668809D01*
X16643095Y-13668809D01*
X16624048Y-13659286D01*
X16614524Y-13640238D01*
X16614524Y-13630714D01*
X16624048Y-13611667D01*
X16643095Y-13602143D01*
X16671667Y-13602143D01*
X16690714Y-13611667D01*
X16766905Y-13811667D02*
X16776428Y-13802143D01*
X16795476Y-13773571D01*
X16805000Y-13754524D01*
X16814524Y-13725952D01*
X16824048Y-13678333D01*
X16824048Y-13640238D01*
X16814524Y-13592619D01*
X16805000Y-13564048D01*
X16795476Y-13545000D01*
X16776428Y-13516428D01*
X16766905Y-13506905D01*
X17128810Y-13811667D02*
X17119286Y-13802143D01*
X17100238Y-13773571D01*
X17090714Y-13754524D01*
X17081190Y-13725952D01*
X17071667Y-13678333D01*
X17071667Y-13640238D01*
X17081190Y-13592619D01*
X17090714Y-13564048D01*
X17100238Y-13545000D01*
X17119286Y-13516428D01*
X17128810Y-13506905D01*
X17205000Y-13602143D02*
X17205000Y-13735476D01*
X17205000Y-13621190D02*
X17214524Y-13611667D01*
X17233571Y-13602143D01*
X17262143Y-13602143D01*
X17281190Y-13611667D01*
X17290714Y-13630714D01*
X17290714Y-13735476D01*
X17414524Y-13735476D02*
X17395476Y-13725952D01*
X17385952Y-13716428D01*
X17376429Y-13697381D01*
X17376429Y-13640238D01*
X17385952Y-13621190D01*
X17395476Y-13611667D01*
X17414524Y-13602143D01*
X17443095Y-13602143D01*
X17462143Y-13611667D01*
X17471667Y-13621190D01*
X17481190Y-13640238D01*
X17481190Y-13697381D01*
X17471667Y-13716428D01*
X17462143Y-13725952D01*
X17443095Y-13735476D01*
X17414524Y-13735476D01*
X17538333Y-13602143D02*
X17614524Y-13602143D01*
X17566905Y-13535476D02*
X17566905Y-13706905D01*
X17576429Y-13725952D01*
X17595476Y-13735476D01*
X17614524Y-13735476D01*
X17833571Y-13602143D02*
X17833571Y-13802143D01*
X17833571Y-13611667D02*
X17852619Y-13602143D01*
X17890714Y-13602143D01*
X17909762Y-13611667D01*
X17919286Y-13621190D01*
X17928810Y-13640238D01*
X17928810Y-13697381D01*
X17919286Y-13716428D01*
X17909762Y-13725952D01*
X17890714Y-13735476D01*
X17852619Y-13735476D01*
X17833571Y-13725952D01*
X18043095Y-13735476D02*
X18024048Y-13725952D01*
X18014524Y-13706905D01*
X18014524Y-13535476D01*
X18205000Y-13735476D02*
X18205000Y-13630714D01*
X18195476Y-13611667D01*
X18176429Y-13602143D01*
X18138333Y-13602143D01*
X18119286Y-13611667D01*
X18205000Y-13725952D02*
X18185952Y-13735476D01*
X18138333Y-13735476D01*
X18119286Y-13725952D01*
X18109762Y-13706905D01*
X18109762Y-13687857D01*
X18119286Y-13668809D01*
X18138333Y-13659286D01*
X18185952Y-13659286D01*
X18205000Y-13649762D01*
X18271667Y-13602143D02*
X18347857Y-13602143D01*
X18300238Y-13535476D02*
X18300238Y-13706905D01*
X18309762Y-13725952D01*
X18328810Y-13735476D01*
X18347857Y-13735476D01*
X18490714Y-13725952D02*
X18471667Y-13735476D01*
X18433571Y-13735476D01*
X18414524Y-13725952D01*
X18405000Y-13706905D01*
X18405000Y-13630714D01*
X18414524Y-13611667D01*
X18433571Y-13602143D01*
X18471667Y-13602143D01*
X18490714Y-13611667D01*
X18500238Y-13630714D01*
X18500238Y-13649762D01*
X18405000Y-13668809D01*
X18671667Y-13735476D02*
X18671667Y-13535476D01*
X18671667Y-13725952D02*
X18652619Y-13735476D01*
X18614524Y-13735476D01*
X18595476Y-13725952D01*
X18585952Y-13716428D01*
X18576429Y-13697381D01*
X18576429Y-13640238D01*
X18585952Y-13621190D01*
X18595476Y-13611667D01*
X18614524Y-13602143D01*
X18652619Y-13602143D01*
X18671667Y-13611667D01*
X18747857Y-13811667D02*
X18757381Y-13802143D01*
X18776429Y-13773571D01*
X18785952Y-13754524D01*
X18795476Y-13725952D01*
X18805000Y-13678333D01*
X18805000Y-13640238D01*
X18795476Y-13592619D01*
X18785952Y-13564048D01*
X18776429Y-13545000D01*
X18757381Y-13516428D01*
X18747857Y-13506905D01*
X11995000Y-13909000D02*
G75*
G03*
X11995000Y-13909000I-100000J0D01*
G01*
X12233571Y-13799476D02*
X12357381Y-13799476D01*
X12290714Y-13875667D01*
X12319286Y-13875667D01*
X12338333Y-13885190D01*
X12347857Y-13894714D01*
X12357381Y-13913762D01*
X12357381Y-13961381D01*
X12347857Y-13980428D01*
X12338333Y-13989952D01*
X12319286Y-13999476D01*
X12262143Y-13999476D01*
X12243095Y-13989952D01*
X12233571Y-13980428D01*
X12443095Y-13980428D02*
X12452619Y-13989952D01*
X12443095Y-13999476D01*
X12433571Y-13989952D01*
X12443095Y-13980428D01*
X12443095Y-13999476D01*
X12528809Y-13818524D02*
X12538333Y-13809000D01*
X12557381Y-13799476D01*
X12605000Y-13799476D01*
X12624048Y-13809000D01*
X12633571Y-13818524D01*
X12643095Y-13837571D01*
X12643095Y-13856619D01*
X12633571Y-13885190D01*
X12519286Y-13999476D01*
X12643095Y-13999476D01*
X12766905Y-13799476D02*
X12785952Y-13799476D01*
X12805000Y-13809000D01*
X12814524Y-13818524D01*
X12824048Y-13837571D01*
X12833571Y-13875667D01*
X12833571Y-13923286D01*
X12824048Y-13961381D01*
X12814524Y-13980428D01*
X12805000Y-13989952D01*
X12785952Y-13999476D01*
X12766905Y-13999476D01*
X12747857Y-13989952D01*
X12738333Y-13980428D01*
X12728809Y-13961381D01*
X12719286Y-13923286D01*
X12719286Y-13875667D01*
X12728809Y-13837571D01*
X12738333Y-13818524D01*
X12747857Y-13809000D01*
X12766905Y-13799476D01*
X12957381Y-13799476D02*
X12976428Y-13799476D01*
X12995476Y-13809000D01*
X13005000Y-13818524D01*
X13014524Y-13837571D01*
X13024048Y-13875667D01*
X13024048Y-13923286D01*
X13014524Y-13961381D01*
X13005000Y-13980428D01*
X12995476Y-13989952D01*
X12976428Y-13999476D01*
X12957381Y-13999476D01*
X12938333Y-13989952D01*
X12928809Y-13980428D01*
X12919286Y-13961381D01*
X12909762Y-13923286D01*
X12909762Y-13875667D01*
X12919286Y-13837571D01*
X12928809Y-13818524D01*
X12938333Y-13809000D01*
X12957381Y-13799476D01*
X13109762Y-13999476D02*
X13109762Y-13866143D01*
X13109762Y-13885190D02*
X13119286Y-13875667D01*
X13138333Y-13866143D01*
X13166905Y-13866143D01*
X13185952Y-13875667D01*
X13195476Y-13894714D01*
X13195476Y-13999476D01*
X13195476Y-13894714D02*
X13205000Y-13875667D01*
X13224048Y-13866143D01*
X13252619Y-13866143D01*
X13271667Y-13875667D01*
X13281190Y-13894714D01*
X13281190Y-13999476D01*
X13376428Y-13999476D02*
X13376428Y-13866143D01*
X13376428Y-13885190D02*
X13385952Y-13875667D01*
X13405000Y-13866143D01*
X13433571Y-13866143D01*
X13452619Y-13875667D01*
X13462143Y-13894714D01*
X13462143Y-13999476D01*
X13462143Y-13894714D02*
X13471667Y-13875667D01*
X13490714Y-13866143D01*
X13519286Y-13866143D01*
X13538333Y-13875667D01*
X13547857Y-13894714D01*
X13547857Y-13999476D01*
X13938333Y-13789952D02*
X13766905Y-14047095D01*
X14195476Y-13799476D02*
X14214524Y-13799476D01*
X14233571Y-13809000D01*
X14243095Y-13818524D01*
X14252619Y-13837571D01*
X14262143Y-13875667D01*
X14262143Y-13923286D01*
X14252619Y-13961381D01*
X14243095Y-13980428D01*
X14233571Y-13989952D01*
X14214524Y-13999476D01*
X14195476Y-13999476D01*
X14176428Y-13989952D01*
X14166905Y-13980428D01*
X14157381Y-13961381D01*
X14147857Y-13923286D01*
X14147857Y-13875667D01*
X14157381Y-13837571D01*
X14166905Y-13818524D01*
X14176428Y-13809000D01*
X14195476Y-13799476D01*
X14347857Y-13980428D02*
X14357381Y-13989952D01*
X14347857Y-13999476D01*
X14338333Y-13989952D01*
X14347857Y-13980428D01*
X14347857Y-13999476D01*
X14547857Y-13999476D02*
X14433571Y-13999476D01*
X14490714Y-13999476D02*
X14490714Y-13799476D01*
X14471667Y-13828048D01*
X14452619Y-13847095D01*
X14433571Y-13856619D01*
X14624048Y-13818524D02*
X14633571Y-13809000D01*
X14652619Y-13799476D01*
X14700238Y-13799476D01*
X14719286Y-13809000D01*
X14728809Y-13818524D01*
X14738333Y-13837571D01*
X14738333Y-13856619D01*
X14728809Y-13885190D01*
X14614524Y-13999476D01*
X14738333Y-13999476D01*
X14909762Y-13799476D02*
X14871667Y-13799476D01*
X14852619Y-13809000D01*
X14843095Y-13818524D01*
X14824048Y-13847095D01*
X14814524Y-13885190D01*
X14814524Y-13961381D01*
X14824048Y-13980428D01*
X14833571Y-13989952D01*
X14852619Y-13999476D01*
X14890714Y-13999476D01*
X14909762Y-13989952D01*
X14919286Y-13980428D01*
X14928809Y-13961381D01*
X14928809Y-13913762D01*
X14919286Y-13894714D01*
X14909762Y-13885190D01*
X14890714Y-13875667D01*
X14852619Y-13875667D01*
X14833571Y-13885190D01*
X14824048Y-13894714D01*
X14814524Y-13913762D01*
X15052619Y-13799476D02*
X15071667Y-13799476D01*
X15090714Y-13809000D01*
X15100238Y-13818524D01*
X15109762Y-13837571D01*
X15119286Y-13875667D01*
X15119286Y-13923286D01*
X15109762Y-13961381D01*
X15100238Y-13980428D01*
X15090714Y-13989952D01*
X15071667Y-13999476D01*
X15052619Y-13999476D01*
X15033571Y-13989952D01*
X15024048Y-13980428D01*
X15014524Y-13961381D01*
X15005000Y-13923286D01*
X15005000Y-13875667D01*
X15014524Y-13837571D01*
X15024048Y-13818524D01*
X15033571Y-13809000D01*
X15052619Y-13799476D01*
X15195476Y-13799476D02*
X15195476Y-13837571D01*
X15271667Y-13799476D02*
X15271667Y-13837571D01*
X15566905Y-14075667D02*
X15557381Y-14066143D01*
X15538333Y-14037571D01*
X15528809Y-14018524D01*
X15519286Y-13989952D01*
X15509762Y-13942333D01*
X15509762Y-13904238D01*
X15519286Y-13856619D01*
X15528809Y-13828048D01*
X15538333Y-13809000D01*
X15557381Y-13780428D01*
X15566905Y-13770905D01*
X15728809Y-13866143D02*
X15728809Y-13999476D01*
X15681190Y-13789952D02*
X15633571Y-13932809D01*
X15757381Y-13932809D01*
X15985952Y-13999476D02*
X15985952Y-13799476D01*
X16071667Y-13999476D02*
X16071667Y-13894714D01*
X16062143Y-13875667D01*
X16043095Y-13866143D01*
X16014524Y-13866143D01*
X15995476Y-13875667D01*
X15985952Y-13885190D01*
X16195476Y-13999476D02*
X16176428Y-13989952D01*
X16166905Y-13980428D01*
X16157381Y-13961381D01*
X16157381Y-13904238D01*
X16166905Y-13885190D01*
X16176428Y-13875667D01*
X16195476Y-13866143D01*
X16224048Y-13866143D01*
X16243095Y-13875667D01*
X16252619Y-13885190D01*
X16262143Y-13904238D01*
X16262143Y-13961381D01*
X16252619Y-13980428D01*
X16243095Y-13989952D01*
X16224048Y-13999476D01*
X16195476Y-13999476D01*
X16376428Y-13999476D02*
X16357381Y-13989952D01*
X16347857Y-13970905D01*
X16347857Y-13799476D01*
X16528809Y-13989952D02*
X16509762Y-13999476D01*
X16471667Y-13999476D01*
X16452619Y-13989952D01*
X16443095Y-13970905D01*
X16443095Y-13894714D01*
X16452619Y-13875667D01*
X16471667Y-13866143D01*
X16509762Y-13866143D01*
X16528809Y-13875667D01*
X16538333Y-13894714D01*
X16538333Y-13913762D01*
X16443095Y-13932809D01*
X16614524Y-13989952D02*
X16633571Y-13999476D01*
X16671667Y-13999476D01*
X16690714Y-13989952D01*
X16700238Y-13970905D01*
X16700238Y-13961381D01*
X16690714Y-13942333D01*
X16671667Y-13932809D01*
X16643095Y-13932809D01*
X16624048Y-13923286D01*
X16614524Y-13904238D01*
X16614524Y-13894714D01*
X16624048Y-13875667D01*
X16643095Y-13866143D01*
X16671667Y-13866143D01*
X16690714Y-13875667D01*
X16766905Y-14075667D02*
X16776428Y-14066143D01*
X16795476Y-14037571D01*
X16805000Y-14018524D01*
X16814524Y-13989952D01*
X16824048Y-13942333D01*
X16824048Y-13904238D01*
X16814524Y-13856619D01*
X16805000Y-13828048D01*
X16795476Y-13809000D01*
X16776428Y-13780428D01*
X16766905Y-13770905D01*
X17128810Y-14075667D02*
X17119286Y-14066143D01*
X17100238Y-14037571D01*
X17090714Y-14018524D01*
X17081190Y-13989952D01*
X17071667Y-13942333D01*
X17071667Y-13904238D01*
X17081190Y-13856619D01*
X17090714Y-13828048D01*
X17100238Y-13809000D01*
X17119286Y-13780428D01*
X17128810Y-13770905D01*
X17205000Y-13866143D02*
X17205000Y-13999476D01*
X17205000Y-13885190D02*
X17214524Y-13875667D01*
X17233571Y-13866143D01*
X17262143Y-13866143D01*
X17281190Y-13875667D01*
X17290714Y-13894714D01*
X17290714Y-13999476D01*
X17414524Y-13999476D02*
X17395476Y-13989952D01*
X17385952Y-13980428D01*
X17376429Y-13961381D01*
X17376429Y-13904238D01*
X17385952Y-13885190D01*
X17395476Y-13875667D01*
X17414524Y-13866143D01*
X17443095Y-13866143D01*
X17462143Y-13875667D01*
X17471667Y-13885190D01*
X17481190Y-13904238D01*
X17481190Y-13961381D01*
X17471667Y-13980428D01*
X17462143Y-13989952D01*
X17443095Y-13999476D01*
X17414524Y-13999476D01*
X17538333Y-13866143D02*
X17614524Y-13866143D01*
X17566905Y-13799476D02*
X17566905Y-13970905D01*
X17576429Y-13989952D01*
X17595476Y-13999476D01*
X17614524Y-13999476D01*
X17833571Y-13866143D02*
X17833571Y-14066143D01*
X17833571Y-13875667D02*
X17852619Y-13866143D01*
X17890714Y-13866143D01*
X17909762Y-13875667D01*
X17919286Y-13885190D01*
X17928810Y-13904238D01*
X17928810Y-13961381D01*
X17919286Y-13980428D01*
X17909762Y-13989952D01*
X17890714Y-13999476D01*
X17852619Y-13999476D01*
X17833571Y-13989952D01*
X18043095Y-13999476D02*
X18024048Y-13989952D01*
X18014524Y-13970905D01*
X18014524Y-13799476D01*
X18205000Y-13999476D02*
X18205000Y-13894714D01*
X18195476Y-13875667D01*
X18176429Y-13866143D01*
X18138333Y-13866143D01*
X18119286Y-13875667D01*
X18205000Y-13989952D02*
X18185952Y-13999476D01*
X18138333Y-13999476D01*
X18119286Y-13989952D01*
X18109762Y-13970905D01*
X18109762Y-13951857D01*
X18119286Y-13932809D01*
X18138333Y-13923286D01*
X18185952Y-13923286D01*
X18205000Y-13913762D01*
X18271667Y-13866143D02*
X18347857Y-13866143D01*
X18300238Y-13799476D02*
X18300238Y-13970905D01*
X18309762Y-13989952D01*
X18328810Y-13999476D01*
X18347857Y-13999476D01*
X18490714Y-13989952D02*
X18471667Y-13999476D01*
X18433571Y-13999476D01*
X18414524Y-13989952D01*
X18405000Y-13970905D01*
X18405000Y-13894714D01*
X18414524Y-13875667D01*
X18433571Y-13866143D01*
X18471667Y-13866143D01*
X18490714Y-13875667D01*
X18500238Y-13894714D01*
X18500238Y-13913762D01*
X18405000Y-13932809D01*
X18671667Y-13999476D02*
X18671667Y-13799476D01*
X18671667Y-13989952D02*
X18652619Y-13999476D01*
X18614524Y-13999476D01*
X18595476Y-13989952D01*
X18585952Y-13980428D01*
X18576429Y-13961381D01*
X18576429Y-13904238D01*
X18585952Y-13885190D01*
X18595476Y-13875667D01*
X18614524Y-13866143D01*
X18652619Y-13866143D01*
X18671667Y-13875667D01*
X18747857Y-14075667D02*
X18757381Y-14066143D01*
X18776429Y-14037571D01*
X18785952Y-14018524D01*
X18795476Y-13989952D01*
X18805000Y-13942333D01*
X18805000Y-13904238D01*
X18795476Y-13856619D01*
X18785952Y-13828048D01*
X18776429Y-13809000D01*
X18757381Y-13780428D01*
X18747857Y-13770905D01*
M02*
