M48
; DRILL file {KiCad (6.0.6-0)} date Monday, 25 July 2022 at 08:19:13
; FORMAT={-:-/ absolute / metric / decimal}
; #@! TF.CreationDate,2022-07-25T08:19:13+01:00
; #@! TF.GenerationSoftware,Kicad,Pcbnew,(6.0.6-0)
; #@! TF.FileFunction,MixedPlating,1,2
FMAT,2
METRIC
; #@! TA.AperFunction,Plated,PTH,ViaDrill
T1C0.300
; #@! TA.AperFunction,Plated,PTH,ViaDrill
T2C0.400
; #@! TA.AperFunction,Plated,PTH,ComponentDrill
T3C0.600
; #@! TA.AperFunction,Plated,PTH,ComponentDrill
T4C1.000
; #@! TA.AperFunction,Plated,PTH,ComponentDrill
T5C1.100
; #@! TA.AperFunction,Plated,PTH,ComponentDrill
T6C2.000
; #@! TA.AperFunction,NonPlated,NPTH,ComponentDrill
T7C0.650
; #@! TA.AperFunction,NonPlated,NPTH,ComponentDrill
T8C3.200
%
G90
G05
T1
X144.2Y-82.03
X145.5Y-82.83
X145.5Y-83.63
X146.25Y-84.58
X148.4Y-79.73
X152.45Y-79.73
X154.07Y-87.07
X154.07Y-88.99
X158.0Y-75.85
X159.9Y-79.65
X161.1Y-88.7
X162.031Y-83.567
X163.15Y-77.8
X165.75Y-75.85
X166.13Y-89.4
X166.911Y-85.481
X166.999Y-94.95
X168.3Y-81.5
X171.7Y-92.3
X172.4Y-72.8
X172.81Y-90.2
X172.815Y-84.485
T2
X150.999Y-80.93
T4
X129.75Y-79.75
X129.75Y-84.25
X129.75Y-97.75
X129.75Y-102.25
X129.75Y-115.75
X129.75Y-120.25
X132.6Y-73.99
X135.14Y-73.99
X136.25Y-79.75
X136.25Y-84.25
X136.25Y-97.75
X136.25Y-102.25
X136.25Y-115.75
X136.25Y-120.25
X137.68Y-73.99
X140.22Y-73.99
X146.75Y-115.75
X146.75Y-120.25
X153.25Y-115.75
X153.25Y-120.25
T5
X143.0Y-97.5
X143.0Y-102.5
X157.5Y-97.5
X157.5Y-100.0
X157.5Y-102.5
T7
X147.11Y-76.73
X152.89Y-76.73
T8
X123.0Y-77.0
X123.0Y-123.0
X177.0Y-77.0
X177.0Y-123.0
T3
X145.68Y-73.38G85X145.68Y-72.78
G05
X145.68Y-77.81G85X145.68Y-76.71
G05
X154.32Y-73.38G85X154.32Y-72.78
G05
X154.32Y-77.81G85X154.32Y-76.71
G05
T6
X149.6Y-94.3G85X150.4Y-94.3
G05
X149.6Y-105.7G85X150.4Y-105.7
G05
T0
M30
