G04 #@! TF.GenerationSoftware,KiCad,Pcbnew,(6.0.6-0)*
G04 #@! TF.CreationDate,2022-08-07T15:28:42+01:00*
G04 #@! TF.ProjectId,Spinny,5370696e-6e79-42e6-9b69-6361645f7063,rev?*
G04 #@! TF.SameCoordinates,Original*
G04 #@! TF.FileFunction,Soldermask,Top*
G04 #@! TF.FilePolarity,Negative*
%FSLAX46Y46*%
G04 Gerber Fmt 4.6, Leading zero omitted, Abs format (unit mm)*
G04 Created by KiCad (PCBNEW (6.0.6-0)) date 2022-08-07 15:28:42*
%MOMM*%
%LPD*%
G01*
G04 APERTURE LIST*
G04 Aperture macros list*
%AMRoundRect*
0 Rectangle with rounded corners*
0 $1 Rounding radius*
0 $2 $3 $4 $5 $6 $7 $8 $9 X,Y pos of 4 corners*
0 Add a 4 corners polygon primitive as box body*
4,1,4,$2,$3,$4,$5,$6,$7,$8,$9,$2,$3,0*
0 Add four circle primitives for the rounded corners*
1,1,$1+$1,$2,$3*
1,1,$1+$1,$4,$5*
1,1,$1+$1,$6,$7*
1,1,$1+$1,$8,$9*
0 Add four rect primitives between the rounded corners*
20,1,$1+$1,$2,$3,$4,$5,0*
20,1,$1+$1,$4,$5,$6,$7,0*
20,1,$1+$1,$6,$7,$8,$9,0*
20,1,$1+$1,$8,$9,$2,$3,0*%
G04 Aperture macros list end*
%ADD10R,1.508000X1.508000*%
%ADD11C,1.508000*%
%ADD12RoundRect,0.218750X-0.256250X0.218750X-0.256250X-0.218750X0.256250X-0.218750X0.256250X0.218750X0*%
%ADD13C,3.200000*%
%ADD14RoundRect,0.135000X-0.185000X0.135000X-0.185000X-0.135000X0.185000X-0.135000X0.185000X0.135000X0*%
%ADD15RoundRect,0.140000X-0.140000X-0.170000X0.140000X-0.170000X0.140000X0.170000X-0.140000X0.170000X0*%
%ADD16R,1.650000X1.650000*%
%ADD17C,1.650000*%
%ADD18O,6.000000X3.000000*%
%ADD19R,2.400000X2.000000*%
%ADD20RoundRect,0.075000X0.662500X0.075000X-0.662500X0.075000X-0.662500X-0.075000X0.662500X-0.075000X0*%
%ADD21RoundRect,0.075000X0.075000X0.662500X-0.075000X0.662500X-0.075000X-0.662500X0.075000X-0.662500X0*%
%ADD22C,0.650000*%
%ADD23R,0.600000X1.450000*%
%ADD24R,0.300000X1.450000*%
%ADD25O,1.000000X2.100000*%
%ADD26O,1.000000X1.600000*%
%ADD27RoundRect,0.150000X0.150000X-0.587500X0.150000X0.587500X-0.150000X0.587500X-0.150000X-0.587500X0*%
%ADD28RoundRect,0.140000X0.140000X0.170000X-0.140000X0.170000X-0.140000X-0.170000X0.140000X-0.170000X0*%
%ADD29RoundRect,0.140000X-0.170000X0.140000X-0.170000X-0.140000X0.170000X-0.140000X0.170000X0.140000X0*%
%ADD30RoundRect,0.140000X0.170000X-0.140000X0.170000X0.140000X-0.170000X0.140000X-0.170000X-0.140000X0*%
%ADD31RoundRect,0.135000X-0.135000X-0.185000X0.135000X-0.185000X0.135000X0.185000X-0.135000X0.185000X0*%
%ADD32RoundRect,0.225000X-0.225000X-0.250000X0.225000X-0.250000X0.225000X0.250000X-0.225000X0.250000X0*%
%ADD33RoundRect,0.135000X0.185000X-0.135000X0.185000X0.135000X-0.185000X0.135000X-0.185000X-0.135000X0*%
%ADD34RoundRect,0.150000X-0.512500X-0.150000X0.512500X-0.150000X0.512500X0.150000X-0.512500X0.150000X0*%
%ADD35R,1.700000X1.700000*%
%ADD36O,1.700000X1.700000*%
%ADD37RoundRect,0.187500X0.187500X-0.312500X0.187500X0.312500X-0.187500X0.312500X-0.187500X-0.312500X0*%
G04 APERTURE END LIST*
D10*
G04 #@! TO.C,SW2*
X136250000Y-102250000D03*
D11*
X136250000Y-97750000D03*
X129750000Y-102250000D03*
X129750000Y-97750000D03*
G04 #@! TD*
D12*
G04 #@! TO.C,D1*
X160950000Y-74877500D03*
X160950000Y-76452500D03*
G04 #@! TD*
D11*
G04 #@! TO.C,SW3*
X136250000Y-115750000D03*
D10*
X136250000Y-120250000D03*
D11*
X129750000Y-120250000D03*
X129750000Y-115750000D03*
G04 #@! TD*
D13*
G04 #@! TO.C,H3*
X123000000Y-123000000D03*
G04 #@! TD*
D14*
G04 #@! TO.C,R4*
X167850000Y-93940000D03*
X167850000Y-94960000D03*
G04 #@! TD*
D15*
G04 #@! TO.C,C5*
X161050000Y-80600000D03*
X162010000Y-80600000D03*
G04 #@! TD*
G04 #@! TO.C,C12*
X167370000Y-80450000D03*
X168330000Y-80450000D03*
G04 #@! TD*
D16*
G04 #@! TO.C,MT1*
X143000000Y-102500000D03*
D17*
X143000000Y-97500000D03*
X157500000Y-102500000D03*
X157500000Y-97500000D03*
X157500000Y-100000000D03*
D18*
X150000000Y-105700000D03*
X150000000Y-94300000D03*
G04 #@! TD*
D19*
G04 #@! TO.C,Y1*
X175410000Y-89120000D03*
X175410000Y-85420000D03*
G04 #@! TD*
D11*
G04 #@! TO.C,SW1*
X136250000Y-79750000D03*
D10*
X136250000Y-84250000D03*
D11*
X129750000Y-79750000D03*
X129750000Y-84250000D03*
G04 #@! TD*
D13*
G04 #@! TO.C,H2*
X177000000Y-77000000D03*
G04 #@! TD*
D20*
G04 #@! TO.C,U3*
X168162500Y-89200000D03*
X168162500Y-88700000D03*
X168162500Y-88200000D03*
X168162500Y-87700000D03*
X168162500Y-87200000D03*
X168162500Y-86700000D03*
X168162500Y-86200000D03*
X168162500Y-85700000D03*
X168162500Y-85200000D03*
X168162500Y-84700000D03*
X168162500Y-84200000D03*
X168162500Y-83700000D03*
D21*
X166750000Y-82287500D03*
X166250000Y-82287500D03*
X165750000Y-82287500D03*
X165250000Y-82287500D03*
X164750000Y-82287500D03*
X164250000Y-82287500D03*
X163750000Y-82287500D03*
X163250000Y-82287500D03*
X162750000Y-82287500D03*
X162250000Y-82287500D03*
X161750000Y-82287500D03*
X161250000Y-82287500D03*
D20*
X159837500Y-83700000D03*
X159837500Y-84200000D03*
X159837500Y-84700000D03*
X159837500Y-85200000D03*
X159837500Y-85700000D03*
X159837500Y-86200000D03*
X159837500Y-86700000D03*
X159837500Y-87200000D03*
X159837500Y-87700000D03*
X159837500Y-88200000D03*
X159837500Y-88700000D03*
X159837500Y-89200000D03*
D21*
X161250000Y-90612500D03*
X161750000Y-90612500D03*
X162250000Y-90612500D03*
X162750000Y-90612500D03*
X163250000Y-90612500D03*
X163750000Y-90612500D03*
X164250000Y-90612500D03*
X164750000Y-90612500D03*
X165250000Y-90612500D03*
X165750000Y-90612500D03*
X166250000Y-90612500D03*
X166750000Y-90612500D03*
G04 #@! TD*
D22*
G04 #@! TO.C,J1*
X152890000Y-76730000D03*
X147110000Y-76730000D03*
D23*
X153250000Y-78175000D03*
X152450000Y-78175000D03*
D24*
X151250000Y-78175000D03*
X150250000Y-78175000D03*
X149750000Y-78175000D03*
X148750000Y-78175000D03*
D23*
X147550000Y-78175000D03*
X146750000Y-78175000D03*
X146750000Y-78175000D03*
X147550000Y-78175000D03*
D24*
X148250000Y-78175000D03*
X149250000Y-78175000D03*
X150750000Y-78175000D03*
X151750000Y-78175000D03*
D23*
X152450000Y-78175000D03*
X153250000Y-78175000D03*
D25*
X154320000Y-77260000D03*
X145680000Y-77260000D03*
D26*
X145680000Y-73080000D03*
X154320000Y-73080000D03*
G04 #@! TD*
D27*
G04 #@! TO.C,U1*
X146600000Y-82980000D03*
X148500000Y-82980000D03*
X147550000Y-81105000D03*
G04 #@! TD*
D28*
G04 #@! TO.C,C7*
X167180000Y-92300000D03*
X166220000Y-92300000D03*
G04 #@! TD*
D14*
G04 #@! TO.C,R6*
X164850000Y-74840000D03*
X164850000Y-75860000D03*
G04 #@! TD*
D15*
G04 #@! TO.C,C4*
X169200000Y-90400000D03*
X170160000Y-90400000D03*
G04 #@! TD*
D12*
G04 #@! TO.C,D2*
X163150000Y-74840000D03*
X163150000Y-76415000D03*
G04 #@! TD*
D29*
G04 #@! TO.C,C8*
X171150000Y-84600000D03*
X171150000Y-85560000D03*
G04 #@! TD*
G04 #@! TO.C,C10*
X172810000Y-88350000D03*
X172810000Y-89310000D03*
G04 #@! TD*
G04 #@! TO.C,C1*
X145100000Y-81020000D03*
X145100000Y-81980000D03*
G04 #@! TD*
D13*
G04 #@! TO.C,H1*
X123000000Y-77000000D03*
G04 #@! TD*
D14*
G04 #@! TO.C,R1*
X156050000Y-75300000D03*
X156050000Y-76320000D03*
G04 #@! TD*
G04 #@! TO.C,R3*
X159000000Y-74850000D03*
X159000000Y-75870000D03*
G04 #@! TD*
D30*
G04 #@! TO.C,C11*
X172810000Y-86186000D03*
X172810000Y-85226000D03*
G04 #@! TD*
D31*
G04 #@! TO.C,R5*
X152290000Y-84680000D03*
X153310000Y-84680000D03*
G04 #@! TD*
D13*
G04 #@! TO.C,H4*
X177000000Y-123000000D03*
G04 #@! TD*
D32*
G04 #@! TO.C,C3*
X169000000Y-92300000D03*
X170550000Y-92300000D03*
G04 #@! TD*
D33*
G04 #@! TO.C,R2*
X143940000Y-76310000D03*
X143940000Y-75290000D03*
G04 #@! TD*
D30*
G04 #@! TO.C,C6*
X158150000Y-89850000D03*
X158150000Y-88890000D03*
G04 #@! TD*
D34*
G04 #@! TO.C,U2*
X152382500Y-80930000D03*
X152382500Y-81880000D03*
X152382500Y-82830000D03*
X154657500Y-82830000D03*
X154657500Y-81880000D03*
X154657500Y-80930000D03*
G04 #@! TD*
D29*
G04 #@! TO.C,C9*
X169900000Y-84600000D03*
X169900000Y-85560000D03*
G04 #@! TD*
D35*
G04 #@! TO.C,J2*
X132600000Y-73990000D03*
D36*
X135140000Y-73990000D03*
X137680000Y-73990000D03*
X140220000Y-73990000D03*
G04 #@! TD*
D28*
G04 #@! TO.C,C2*
X148060000Y-84580000D03*
X147100000Y-84580000D03*
G04 #@! TD*
D10*
G04 #@! TO.C,SW4*
X153250000Y-120250000D03*
D11*
X153250000Y-115750000D03*
X146750000Y-115750000D03*
X146750000Y-120250000D03*
G04 #@! TD*
D37*
G04 #@! TO.C,SW5*
X167375000Y-72800000D03*
X167375000Y-78800000D03*
X171125000Y-72800000D03*
X171125000Y-78800000D03*
G04 #@! TD*
M02*
