M48
; DRILL file {KiCad (6.0.6-0)} date Monday, 11 July 2022 at 21:24:59
; FORMAT={-:-/ absolute / metric / decimal}
; #@! TF.CreationDate,2022-07-11T21:24:59+01:00
; #@! TF.GenerationSoftware,Kicad,Pcbnew,(6.0.6-0)
; #@! TF.FileFunction,MixedPlating,1,2
FMAT,2
METRIC
; #@! TA.AperFunction,Plated,PTH,ViaDrill
T1C0.300
; #@! TA.AperFunction,Plated,PTH,ComponentDrill
T2C0.600
; #@! TA.AperFunction,Plated,PTH,ComponentDrill
T3C1.000
; #@! TA.AperFunction,Plated,PTH,ComponentDrill
T4C1.100
; #@! TA.AperFunction,Plated,PTH,ComponentDrill
T5C2.000
; #@! TA.AperFunction,NonPlated,NPTH,ComponentDrill
T6C0.650
; #@! TA.AperFunction,NonPlated,NPTH,ComponentDrill
T7C3.200
%
G90
G05
T1
X144.2Y-80.85
X145.5Y-81.65
X145.5Y-82.45
X146.25Y-83.4
X148.4Y-78.55
X150.981Y-79.92
X152.45Y-78.55
X154.9Y-87.08
X154.9Y-89.0
X158.0Y-75.85
X159.9Y-79.65
X161.1Y-88.7
X162.031Y-83.567
X163.15Y-77.6
X165.75Y-75.85
X166.13Y-89.4
X166.911Y-85.481
X166.999Y-94.95
X168.3Y-81.5
X171.7Y-92.3
X172.4Y-72.8
X172.95Y-84.35
X172.95Y-90.2
T3
X128.75Y-79.75
X128.75Y-84.25
X128.75Y-97.75
X128.75Y-102.25
X128.75Y-115.75
X128.75Y-120.25
X132.6Y-73.99
X135.14Y-73.99
X135.25Y-79.75
X135.25Y-84.25
X135.25Y-97.75
X135.25Y-102.25
X135.25Y-115.75
X135.25Y-120.25
X137.68Y-73.99
X140.22Y-73.99
X146.75Y-115.75
X146.75Y-120.25
X153.25Y-115.75
X153.25Y-120.25
T4
X143.0Y-97.5
X143.0Y-102.5
X157.5Y-97.5
X157.5Y-100.0
X157.5Y-102.5
T6
X147.11Y-75.6
X152.89Y-75.6
T7
X124.0Y-77.0
X124.0Y-123.0
X176.0Y-77.0
X176.0Y-123.0
T2
X145.68Y-72.25G85X145.68Y-71.65
G05
X145.68Y-76.68G85X145.68Y-75.58
G05
X154.32Y-72.25G85X154.32Y-71.65
G05
X154.32Y-76.68G85X154.32Y-75.58
G05
T5
X149.6Y-94.3G85X150.4Y-94.3
G05
X149.6Y-105.7G85X150.4Y-105.7
G05
T0
M30
